InterTight.glyphspackage
{
glyphname = exclam;
layers = (
{
guides = (
{
angle = 90;
pos = (208,1584);
}
);
layerId = "C698F293-3EC0-4A5A-A3A0-0FDB1F5CF265";
shapes = (
{
closed = 1;
nodes = (
(341,480,l),
(353,1490,l),
(159,1490,l),
(171,480,l)
);
},
{
closed = 1;
nodes = (
(328,-12,o),
(387,47,o),
(387,119,cs),
(387,191,o),
(328,250,o),
(256,250,cs),
(184,250,o),
(125,191,o),
(125,119,cs),
(125,47,o),
(184,-12,o),
(256,-12,cs)
);
}
);
width = 512;
},
{
layerId = "5C20EF92-B63D-42A8-8878-93C2863E0093";
shapes = (
{
closed = 1;
nodes = (
(546,466,l),
(576,1490,l),
(152,1490,l),
(182,466,l)
);
},
{
closed = 1;
nodes = (
(494,-24,o),
(578,52,o),
(578,175,cs),
(578,298,o),
(494,374,o),
(364,374,cs),
(234,374,o),
(150,298,o),
(150,175,cs),
(150,52,o),
(234,-24,o),
(364,-24,cs)
);
}
);
width = 728;
},
{
layerId = "11F4534A-B963-4AB5-820F-DAF9A20CD933";
shapes = (
{
closed = 1;
nodes = (
(328,480,l),
(507,1490,l),
(313,1490,l),
(158,480,l)
);
},
{
closed = 1;
nodes = (
(239,-12,o),
(301,41,o),
(312,108,cs),
(325,185,o),
(272,250,o),
(194,250,cs),
(128,250,o),
(65,197,o),
(54,130,cs),
(41,53,o),
(95,-12,o),
(172,-12,cs)
);
}
);
width = 512;
},
{
layerId = "D0EC06BF-13F9-4C88-A6F5-B8203AF6C77E";
shapes = (
{
closed = 1;
nodes = (
(531,466,l),
(730,1490,l),
(306,1490,l),
(167,466,l)
);
},
{
closed = 1;
nodes = (
(408,-24,o),
(492,39,o),
(510,149,cs),
(533,285,o),
(453,374,o),
(313,374,cs),
(193,374,o),
(109,311,o),
(91,201,cs),
(68,65,o),
(148,-24,o),
(288,-24,cs)
);
}
);
width = 728;
},
{
layerId = "B1F27B51-9973-4381-9301-4FE46FE1CA59";
shapes = (
{
closed = 1;
nodes = (
(316,442,l),
(316,1490,l),
(270,1490,l),
(270,442,l)
);
},
{
closed = 1;
nodes = (
(322,-9,o),
(346,15,o),
(346,44,cs),
(346,73,o),
(322,97,o),
(293,97,cs),
(264,97,o),
(240,73,o),
(240,44,cs),
(240,15,o),
(264,-9,o),
(293,-9,cs)
);
}
);
width = 586;
},
{
layerId = "200BE2C5-40F6-4CF4-AF4F-A33C0CC0964F";
shapes = (
{
closed = 1;
nodes = (
(297,442,l),
(470,1490,l),
(424,1490,l),
(251,442,l)
);
},
{
closed = 1;
nodes = (
(230,-9,o),
(256,13,o),
(260,41,cs),
(265,71,o),
(244,97,o),
(213,97,cs),
(186,97,o),
(160,75,o),
(155,47,cs),
(150,17,o),
(172,-9,o),
(202,-9,cs)
);
}
);
width = 586;
}
);
tags = (
"TODO-opsz"
);
unicode = 33;
userData = {
"interface.width-adjustments" = (
-16
);
};
}
{
glyphname = numbersign;
layers = (
{
layerId = "C698F293-3EC0-4A5A-A3A0-0FDB1F5CF265";
shapes = (
{
closed = 1;
nodes = (
(810,0,l),
(1054,1490,l),
(910,1490,l),
(664,0,l)
);
},
{
closed = 1;
nodes = (
(1098,414,l),
(1122,558,l),
(10,558,l),
(-14,414,l)
);
},
{
closed = 1;
nodes = (
(286,0,l),
(530,1490,l),
(386,1490,l),
(142,0,l)
);
},
{
closed = 1;
nodes = (
(1186,930,l),
(1208,1076,l),
(98,1076,l),
(74,930,l)
);
}
);
width = 1196;
},
{
layerId = "5C20EF92-B63D-42A8-8878-93C2863E0093";
shapes = (
{
closed = 1;
nodes = (
(938,0,l),
(1184,1490,l),
(892,1490,l),
(648,0,l)
);
},
{
closed = 1;
nodes = (
(1186,340,l),
(1236,632,l),
(38,632,l),
(-12,340,l)
);
},
{
closed = 1;
nodes = (
(416,0,l),
(660,1490,l),
(368,1490,l),
(124,0,l)
);
},
{
closed = 1;
nodes = (
(1270,858,l),
(1320,1150,l),
(122,1150,l),
(72,858,l)
);
}
);
width = 1308;
},
{
layerId = "11F4534A-B963-4AB5-820F-DAF9A20CD933";
shapes = (
{
closed = 1;
nodes = (
(828,0,l),
(1098,1490,l),
(952,1490,l),
(682,0,l)
);
},
{
closed = 1;
nodes = (
(1122,414,l),
(1150,558,l),
(38,558,l),
(12,414,l)
);
},
{
closed = 1;
nodes = (
(304,0,l),
(574,1490,l),
(430,1490,l),
(158,0,l)
);
},
{
closed = 1;
nodes = (
(1218,930,l),
(1246,1076,l),
(134,1076,l),
(108,930,l)
);
}
);
width = 1196;
},
{
layerId = "D0EC06BF-13F9-4C88-A6F5-B8203AF6C77E";
shapes = (
{
closed = 1;
nodes = (
(956,0,l),
(1226,1490,l),
(936,1490,l),
(666,0,l)
);
},
{
closed = 1;
nodes = (
(1210,340,l),
(1264,632,l),
(66,632,l),
(10,340,l)
);
},
{
closed = 1;
nodes = (
(432,0,l),
(704,1490,l),
(412,1490,l),
(142,0,l)
);
},
{
closed = 1;
nodes = (
(1304,858,l),
(1358,1150,l),
(160,1150,l),
(106,858,l)
);
}
);
width = 1308;
},
{
layerId = "B1F27B51-9973-4381-9301-4FE46FE1CA59";
shapes = (
{
closed = 1;
nodes = (
(812,0,l),
(1056,1490,l),
(1010,1490,l),
(766,0,l)
);
},
{
closed = 1;
nodes = (
(1158,462,l),
(1166,510,l),
(56,510,l),
(46,462,l)
);
},
{
closed = 1;
nodes = (
(288,0,l),
(532,1490,l),
(486,1490,l),
(242,0,l)
);
},
{
closed = 1;
nodes = (
(1242,980,l),
(1250,1026,l),
(140,1026,l),
(130,980,l)
);
}
);
width = 1298;
},
{
layerId = "200BE2C5-40F6-4CF4-AF4F-A33C0CC0964F";
shapes = (
{
closed = 1;
nodes = (
(830,0,l),
(1100,1490,l),
(1054,1490,l),
(782,0,l)
);
},
{
closed = 1;
nodes = (
(1184,462,l),
(1192,510,l),
(82,510,l),
(72,462,l)
);
},
{
closed = 1;
nodes = (
(306,0,l),
(576,1490,l),
(530,1490,l),
(258,0,l)
);
},
{
closed = 1;
nodes = (
(1278,980,l),
(1288,1026,l),
(176,1026,l),
(166,980,l)
);
}
);
width = 1298;
},
{
associatedMasterId = "C698F293-3EC0-4A5A-A3A0-0FDB1F5CF265";
layerId = "8B226100-FDA1-4179-99A9-A0AFC43B9D41";
name = "Dec 27 18, 16:44";
shapes = (
{
closed = 1;
nodes = (
(410,0,l),
(608,1490,l),
(460,1490,l),
(262,0,l)
);
},
{
closed = 1;
nodes = (
(862,0,l),
(1062,1490,l),
(914,1490,l),
(716,0,l)
);
},
{
closed = 1;
nodes = (
(1222,1082,l),
(166,1082,l),
(146,930,l),
(1202,930,l)
);
},
{
closed = 1;
nodes = (
(1154,558,l),
(98,558,l),
(78,414,l),
(1134,414,l)
);
}
);
width = 1314;
},
{
associatedMasterId = "C698F293-3EC0-4A5A-A3A0-0FDB1F5CF265";
layerId = "B5EAF93B-AA24-4C05-A772-FDBA6714CABE";
name = "Dec 27 18, 16:46";
shapes = (
{
closed = 1;
nodes = (
(920,0,l),
(920,1490,l)
);
},
{
closed = 1;
nodes = (
(1214,1004,l),
(102,1004,l)
);
},
{
closed = 1;
nodes = (
(396,0,l),
(396,1490,l)
);
},
{
closed = 1;
nodes = (
(1214,486,l),
(102,486,l)
);
}
);
width = 1314;
},
{
associatedMasterId = "5C20EF92-B63D-42A8-8878-93C2863E0093";
layerId = "8150BABC-50DE-457F-AD29-9E6DAA541700";
name = "Dec 27 18, 16:50";
shapes = (
{
closed = 1;
nodes = (
(504,0,l),
(774,1446,l),
(558,1446,l),
(288,0,l)
);
},
{
closed = 1;
nodes = (
(862,0,l),
(1132,1446,l),
(914,1446,l),
(642,0,l)
);
},
{
closed = 1;
nodes = (
(1294,1024,l),
(200,1024,l),
(206,830,l),
(1304,830,l)
);
},
{
closed = 1;
nodes = (
(1214,608,l),
(120,608,l),
(126,410,l),
(1218,410,l)
);
}
);
width = 1422;
},
{
associatedMasterId = "5C20EF92-B63D-42A8-8878-93C2863E0093";
background = {
shapes = (
{
closed = 1;
nodes = (
(416,0,l),
(686,1446,l),
(472,1446,l),
(200,0,l)
);
},
{
closed = 1;
nodes = (
(774,0,l),
(1044,1446,l),
(826,1446,l),
(556,0,l)
);
},
{
closed = 1;
nodes = (
(1208,1024,l),
(114,1024,l),
(120,830,l),
(1216,830,l)
);
},
{
closed = 1;
nodes = (
(1126,608,l),
(32,608,l),
(38,410,l),
(1132,410,l)
);
}
);
};
layerId = "5A59D344-CADF-46E4-B2F0-D61FEE264785";
name = "Dec 27 18, 16:53";
shapes = (
{
closed = 1;
nodes = (
(884,0,l),
(884,1490,l)
);
},
{
closed = 1;
nodes = (
(1222,1004,l),
(24,1004,l)
);
},
{
closed = 1;
nodes = (
(360,0,l),
(360,1490,l)
);
},
{
closed = 1;
nodes = (
(1222,486,l),
(24,486,l)
);
}
);
width = 1246;
},
{
associatedMasterId = "B1F27B51-9973-4381-9301-4FE46FE1CA59";
background = {
shapes = (
{
closed = 1;
nodes = (
(410,0,l),
(608,1490,l),
(460,1490,l),
(262,0,l)
);
},
{
closed = 1;
nodes = (
(862,0,l),
(1062,1490,l),
(914,1490,l),
(716,0,l)
);
},
{
closed = 1;
nodes = (
(1222,1082,l),
(184,1082,l),
(162,930,l),
(1202,930,l)
);
},
{
closed = 1;
nodes = (
(1154,558,l),
(116,558,l),
(96,414,l),
(1134,414,l)
);
}
);
};
layerId = "234210DF-ABFB-4FAA-87B6-7476935D9366";
name = "Dec 27 18, 16:59";
shapes = (
{
closed = 1;
nodes = (
(920,0,l),
(920,1490,l)
);
},
{
closed = 1;
nodes = (
(1214,1004,l),
(102,1004,l)
);
},
{
closed = 1;
nodes = (
(396,0,l),
(396,1490,l)
);
},
{
closed = 1;
nodes = (
(1214,486,l),
(102,486,l)
);
}
);
width = 1314;
}
);
note = "1. outline\0122. slant 9.4 deg\0123. remove extra shapes created by outlining";
tags = (
"TODO-opsz"
);
unicode = 35;
userData = {
"interface.width-adjustments" = (
-16
);
};
}
{
color = (204,240,242,1);
glyphname = dollar;
kernLeft = S;
kernRight = S;
layers = (
{
layerId = "C698F293-3EC0-4A5A-A3A0-0FDB1F5CF265";
shapes = (
{
closed = 1;
nodes = (
(664,-186,l),
(664,1676,l),
(546,1676,l),
(546,-186,l)
);
},
{
ref = S;
}
);
width = 1210;
},
{
guides = (
{
pos = (-144,2280);
},
{
pos = (-144,764);
}
);
layerId = "5C20EF92-B63D-42A8-8878-93C2863E0093";
shapes = (
{
closed = 1;
nodes = (
(736,-186,l),
(736,1676,l),
(616,1676,l),
(616,-186,l)
);
},
{
ref = S;
}
);
width = 1316;
},
{
layerId = "11F4534A-B963-4AB5-820F-DAF9A20CD933";
shapes = (
{
closed = 1;
nodes = (
(542,-186,l),
(850,1676,l),
(732,1676,l),
(424,-186,l)
);
},
{
ref = S;
}
);
width = 1210;
},
{
guides = (
{
pos = (1452,2280);
},
{
pos = (-50,764);
}
);
layerId = "D0EC06BF-13F9-4C88-A6F5-B8203AF6C77E";
shapes = (
{
closed = 1;
nodes = (
(612,-186,l),
(920,1676,l),
(800,1676,l),
(492,-186,l)
);
},
{
ref = S;
}
);
width = 1316;
},
{
layerId = "B1F27B51-9973-4381-9301-4FE46FE1CA59";
shapes = (
{
closed = 1;
nodes = (
(652,-186,l),
(652,1676,l),
(606,1676,l),
(606,-186,l)
);
},
{
alignment = -1;
ref = S;
}
);
width = 1254;
},
{
layerId = "200BE2C5-40F6-4CF4-AF4F-A33C0CC0964F";
shapes = (
{
closed = 1;
nodes = (
(530,-186,l),
(838,1676,l),
(792,1676,l),
(482,-186,l)
);
},
{
alignment = -1;
ref = S;
}
);
width = 1254;
}
);
metricLeft = S;
metricRight = S;
tags = (
"TODO-opsz"
);
unicode = 36;
userData = {
"interface.width-adjustments" = (
-16
);
};
}
{
glyphname = percent;
layers = (
{
layerId = "C698F293-3EC0-4A5A-A3A0-0FDB1F5CF265";
shapes = (
{
closed = 1;
nodes = (
(865,116,o),
(967,-20,o),
(1156,-20,cs),
(1343,-20,o),
(1444,116,o),
(1444,280,cs),
(1444,358,ls),
(1444,521,o),
(1345,657,o),
(1156,658,cs),
(970,657,o),
(865,521,o),
(866,358,cs),
(866,280,ls)
);
},
{
closed = 1;
nodes = (
(1014,448,o),
(1055,532,o),
(1156,532,cs),
(1261,532,o),
(1296,448,o),
(1296,358,cs),
(1296,280,ls),
(1296,189,o),
(1258,105,o),
(1156,104,cs),
(1052,105,o),
(1014,189,o),
(1014,280,cs),
(1014,358,ls)
);
},
{
closed = 1;
nodes = (
(124,969,o),
(225,832,o),
(414,832,cs),
(601,832,o),
(703,969,o),
(702,1132,cs),
(702,1210,ls),
(703,1373,o),
(604,1510,o),
(414,1510,cs),
(228,1510,o),
(124,1373,o),
(124,1210,cs),
(124,1132,ls)
);
},
{
closed = 1;
nodes = (
(272,1300,o),
(313,1385,o),
(414,1384,cs),
(519,1385,o),
(554,1300,o),
(554,1210,cs),
(554,1132,ls),
(554,1041,o),
(516,957,o),
(414,958,cs),
(310,957,o),
(272,1041,o),
(272,1132,cs),
(272,1210,ls)
);
},
{
pos = (542,0);
ref = fraction;
}
);
width = 1568;
},
{
layerId = "5C20EF92-B63D-42A8-8878-93C2863E0093";
shapes = (
{
closed = 1;
nodes = (
(927,90,o),
(1051,-73,o),
(1280,-72,cs),
(1508,-73,o),
(1634,90,o),
(1634,280,cs),
(1634,358,ls),
(1634,550,o),
(1511,710,o),
(1280,710,cs),
(1054,710,o),
(927,547,o),
(928,358,cs),
(928,280,ls)
);
},
{
closed = 1;
nodes = (
(1180,416,o),
(1202,483,o),
(1280,482,cs),
(1362,483,o),
(1378,416,o),
(1378,358,cs),
(1378,280,ls),
(1378,221,o),
(1359,157,o),
(1280,158,cs),
(1202,157,o),
(1180,224,o),
(1180,280,cs),
(1180,358,ls)
);
},
{
closed = 1;
nodes = (
(148,943,o),
(271,783,o),
(500,782,cs),
(728,783,o),
(855,940,o),
(854,1132,cs),
(854,1210,ls),
(855,1402,o),
(731,1562,o),
(500,1562,cs),
(277,1562,o),
(148,1402,o),
(148,1210,cs),
(148,1132,ls)
);
},
{
closed = 1;
nodes = (
(404,1265,o),
(423,1335,o),
(500,1336,cs),
(583,1335,o),
(599,1268,o),
(598,1210,cs),
(598,1132,ls),
(599,1073,o),
(580,1009,o),
(500,1010,cs),
(425,1009,o),
(404,1073,o),
(404,1132,cs),
(404,1210,ls)
);
},
{
pos = (632,0);
ref = fraction;
}
);
width = 1776;
},
{
layerId = "11F4534A-B963-4AB5-820F-DAF9A20CD933";
shapes = (
{
closed = 1;
nodes = (
(789,117,o),
(871,-20,o),
(1060,-20,cs),
(1247,-20,o),
(1368,117,o),
(1398,280,cs),
(1412,358,ls),
(1442,520,o),
(1363,657,o),
(1174,658,cs),
(988,657,o),
(863,520,o),
(834,358,cs),
(818,280,ls)
);
},
{
closed = 1;
nodes = (
(999,448,o),
(1052,532,o),
(1154,532,cs),
(1258,532,o),
(1281,448,o),
(1264,358,cs),
(1250,280,ls),
(1233,189,o),
(1183,105,o),
(1080,104,cs),
(976,105,o),
(951,189,o),
(968,280,cs),
(982,358,ls)
);
},
{
closed = 1;
nodes = (
(196,968,o),
(272,832,o),
(462,832,cs),
(647,832,o),
(775,968,o),
(798,1132,cs),
(810,1210,ls),
(834,1373,o),
(761,1510,o),
(572,1510,cs),
(385,1510,o),
(255,1373,o),
(232,1210,cs),
(220,1132,ls)
);
},
{
closed = 1;
nodes = (
(393,1300,o),
(449,1385,o),
(552,1384,cs),
(656,1385,o),
(675,1300,o),
(662,1210,cs),
(650,1132,ls),
(636,1041,o),
(583,957,o),
(482,958,cs),
(377,957,o),
(354,1041,o),
(368,1132,cs),
(380,1210,ls)
);
},
{
pos = (542,0);
ref = fraction;
}
);
width = 1568;
},
{
layerId = "D0EC06BF-13F9-4C88-A6F5-B8203AF6C77E";
shapes = (
{
closed = 1;
nodes = (
(846,91,o),
(946,-73,o),
(1174,-72,cs),
(1403,-73,o),
(1553,91,o),
(1588,280,cs),
(1602,358,ls),
(1638,549,o),
(1537,710,o),
(1306,710,cs),
(1080,710,o),
(930,546,o),
(896,358,cs),
(880,280,ls)
);
},
{
closed = 1;
nodes = (
(1159,416,o),
(1191,483,o),
(1268,482,cs),
(1351,483,o),
(1357,416,o),
(1346,358,cs),
(1332,280,ls),
(1321,222,o),
(1292,157,o),
(1212,158,cs),
(1135,157,o),
(1124,225,o),
(1134,280,cs),
(1148,358,ls)
);
},
{
closed = 1;
nodes = (
(215,942,o),
(309,783,o),
(538,782,cs),
(766,783,o),
(922,940,o),
(950,1132,cs),
(962,1210,ls),
(991,1403,o),
(897,1562,o),
(666,1562,cs),
(443,1562,o),
(284,1403,o),
(256,1210,cs),
(244,1132,ls)
);
},
{
closed = 1;
nodes = (
(519,1265,o),
(551,1335,o),
(628,1336,cs),
(711,1335,o),
(715,1268,o),
(706,1210,cs),
(694,1132,ls),
(686,1073,o),
(655,1009,o),
(576,1010,cs),
(501,1009,o),
(491,1073,o),
(500,1132,cs),
(512,1210,ls)
);
},
{
pos = (636,0);
ref = fraction;
}
);
width = 1776;
},
{
layerId = "B1F27B51-9973-4381-9301-4FE46FE1CA59";
shapes = (
{
closed = 1;
nodes = (
(931,97,o),
(1037,-20,o),
(1176,-20,cs),
(1313,-20,o),
(1420,97,o),
(1420,270,cs),
(1420,318,ls),
(1420,491,o),
(1313,608,o),
(1176,608,cs),
(1037,608,o),
(931,491,o),
(930,318,cs),
(930,270,ls)
);
},
{
closed = 1;
nodes = (
(977,465,o),
(1064,561,o),
(1176,562,cs),
(1287,561,o),
(1373,465,o),
(1374,318,cs),
(1374,270,ls),
(1373,122,o),
(1287,26,o),
(1176,26,cs),
(1064,26,o),
(977,122,o),
(978,270,cs),
(978,318,ls)
);
},
{
closed = 1;
nodes = (
(163,999,o),
(269,881,o),
(408,882,cs),
(545,881,o),
(652,999,o),
(652,1172,cs),
(652,1218,ls),
(652,1393,o),
(545,1510,o),
(408,1510,cs),
(269,1510,o),
(163,1393,o),
(162,1218,cs),
(162,1172,ls)
);
},
{
closed = 1;
nodes = (
(209,1367,o),
(296,1463,o),
(408,1464,cs),
(519,1463,o),
(605,1367,o),
(606,1218,cs),
(606,1172,ls),
(605,1024,o),
(519,928,o),
(408,928,cs),
(296,928,o),
(209,1024,o),
(210,1172,cs),
(210,1218,ls)
);
},
{
alignment = -1;
pos = (512,0);
ref = fraction;
}
);
width = 1582;
},
{
layerId = "200BE2C5-40F6-4CF4-AF4F-A33C0CC0964F";
shapes = (
{
closed = 1;
nodes = (
(855,96,o),
(943,-20,o),
(1080,-20,cs),
(1219,-20,o),
(1344,96,o),
(1374,270,cs),
(1378,318,ls),
(1408,492,o),
(1321,608,o),
(1184,608,cs),
(1044,608,o),
(919,492,o),
(890,318,cs),
(884,270,ls)
);
},
{
closed = 1;
nodes = (
(963,465,o),
(1065,561,o),
(1176,562,cs),
(1286,561,o),
(1359,465,o),
(1332,318,cs),
(1326,270,ls),
(1300,122,o),
(1199,26,o),
(1088,26,cs),
(975,26,o),
(905,122,o),
(930,270,cs),
(936,318,ls)
);
},
{
closed = 1;
nodes = (
(236,998,o),
(323,881,o),
(460,882,cs),
(599,881,o),
(724,998,o),
(754,1172,cs),
(762,1218,ls),
(788,1393,o),
(704,1510,o),
(564,1510,cs),
(428,1510,o),
(300,1393,o),
(274,1218,cs),
(264,1172,ls)
);
},
{
closed = 1;
nodes = (
(343,1367,o),
(445,1463,o),
(556,1464,cs),
(669,1463,o),
(739,1367,o),
(716,1218,cs),
(706,1172,ls),
(681,1024,o),
(579,928,o),
(468,928,cs),
(358,928,o),
(285,1024,o),
(312,1172,cs),
(320,1218,ls)
);
},
{
alignment = -1;
pos = (512,0);
ref = fraction;
}
);
width = 1582;
}
);
tags = (
"TODO-opsz"
);
unicode = 37;
userData = {
"interface.width-adjustments" = (
-16
);
};
}
{
glyphname = ampersand;
layers = (
{
layerId = "C698F293-3EC0-4A5A-A3A0-0FDB1F5CF265";
shapes = (
{
closed = 1;
nodes = (
(673,-20,o),
(833,32,o),
(930,140,c),
(941,154,o),
(950,169,o),
(962,184,c),
(1014,235,o),
(1142,355,o),
(1142,652,c),
(976,652,l),
(976,332,o),
(749,130,o),
(526,130,cs),
(348,130,o),
(232,256,o),
(232,396,cs),
(232,436,o),
(269,541,o),
(402,640,cs),
(700,862,ls),
(821,952,o),
(898,1050,o),
(898,1192,cs),
(898,1359,o),
(761,1504,o),
(536,1504,cs),
(319,1504,o),
(176,1367,o),
(176,1166,cs),
(176,992,o),
(301,870,o),
(458,680,cs),
(1022,0,l),
(1230,0,l),
(546,834,ls),
(450,952,o),
(350,1059,o),
(350,1164,cs),
(350,1257,o),
(429,1356,o),
(542,1356,cs),
(650,1356,o),
(722,1268,o),
(722,1192,cs),
(722,1091,o),
(665,1040,o),
(584,980,cs),
(368,820,ls),
(190,688,o),
(56,582,o),
(56,396,cs),
(56,154,o),
(237,-20,o),
(530,-20,c)
);
}
);
width = 1214;
},
{
layerId = "5C20EF92-B63D-42A8-8878-93C2863E0093";
shapes = (
{
closed = 1;
nodes = (
(679,-24,o),
(813,5,o),
(932,82,c),
(973,102,o),
(1011,119,o),
(1052,140,c),
(1246,276,o),
(1322,518,o),
(1322,776,c),
(1004,776,l),
(1004,495,o),
(781,290,o),
(582,290,cs),
(485,290,o),
(422,340,o),
(422,424,cs),
(422,492,o),
(463,531,o),
(510,564,cs),
(818,782,ls),
(946,873,o),
(1016,996,o),
(1016,1134,c),
(1016,1341,o),
(862,1512,o),
(612,1512,cs),
(350,1512,o),
(176,1327,o),
(176,1100,cs),
(176,896,o),
(316,735,o),
(406,640,cs),
(1010,0,l),
(1412,0,l),
(690,794,l),
(583,922,o),
(502,1007,o),
(502,1094,cs),
(502,1156,o),
(544,1196,o),
(612,1196,cs),
(685,1196,o),
(720,1153,o),
(720,1106,cs),
(720,1069,o),
(700,1020,o),
(632,978,cs),
(294,768,l),
(141,663,o),
(38,563,o),
(38,396,cs),
(38,165,o),
(233,-24,o),
(554,-24,cs)
);
}
);
width = 1376;
},
{
layerId = "11F4534A-B963-4AB5-820F-DAF9A20CD933";
shapes = (
{
closed = 1;
nodes = (
(577,-20,o),
(746,32,o),
(860,140,c),
(874,154,o),
(892,169,o),
(906,184,c),
(967,241,o),
(1107,355,o),
(1156,652,c),
(990,652,l),
(938,332,o),
(679,131,o),
(456,130,cs),
(278,131,o),
(182,256,o),
(206,396,c),
(211,436,o),
(267,540,o),
(418,640,cs),
(750,862,ls),
(885,952,o),
(979,1050,o),
(1002,1192,c),
(1031,1359,o),
(918,1504,o),
(694,1504,cs),
(476,1504,o),
(310,1367,o),
(278,1166,cs),
(250,992,o),
(353,870,o),
(478,680,cs),
(930,0,l),
(1136,0,l),
(592,834,ls),
(516,953,o),
(432,1059,o),
(450,1164,cs),
(465,1257,o),
(560,1356,o),
(674,1356,cs),
(781,1356,o),
(839,1268,o),
(828,1192,c),
(810,1091,o),
(746,1036,o),
(654,980,c),
(412,820,l),
(208,695,o),
(60,582,o),
(30,396,c),
(-10,154,o),
(141,-20,o),
(434,-20,c)
);
}
);
width = 1214;
},
{
layerId = "D0EC06BF-13F9-4C88-A6F5-B8203AF6C77E";
shapes = (
{
closed = 1;
nodes = (
(583,-23,o),
(722,6,o),
(853,82,c),
(896,102,o),
(937,119,o),
(981,140,c),
(1199,276,o),
(1316,518,o),
(1355,776,c),
(1039,776,l),
(993,495,o),
(737,291,o),
(539,290,cs),
(440,291,o),
(388,340,o),
(399,424,c),
(411,492,o),
(458,532,o),
(509,564,cs),
(855,782,ls),
(999,873,o),
(1089,995,o),
(1111,1134,c),
(1147,1341,o),
(1019,1513,o),
(769,1512,cs),
(507,1513,o),
(303,1327,o),
(265,1100,cs),
(230,896,o),
(345,735,o),
(419,640,cs),
(917,0,l),
(1317,0,l),
(727,794,l),
(644,922,o),
(577,1007,o),
(587,1094,cs),
(596,1159,o),
(650,1196,o),
(715,1196,cs),
(792,1196,o),
(818,1152,o),
(809,1106,cs),
(802,1071,o),
(775,1020,o),
(701,978,cs),
(329,768,l),
(158,663,o),
(39,564,o),
(11,396,c),
(-25,166,o),
(138,-23,o),
(457,-24,c)
);
}
);
width = 1375;
},
{
associatedMasterId = "D0EC06BF-13F9-4C88-A6F5-B8203AF6C77E";
layerId = "A024DAEF-5CF1-4DB6-A2CD-0618C3F5EE1E";
name = "Sep 16 18, 17:30";
shapes = (
{
closed = 1;
nodes = (
(207,663,o),
(88,567,o),
(62,404,c),
(21,154,o),
(181,-20,o),
(488,-20,c),
(737,-20,o),
(850,49,o),
(980,120,cs),
(990,125,o),
(1025,137,o),
(1030,140,cs),
(1249,276,o),
(1365,518,o),
(1406,776,c),
(1088,776,l),
(1042,495,o),
(786,291,o),
(588,290,cs),
(492,291,o),
(437,340,o),
(450,434,c),
(463,509,o),
(478,529,o),
(510,562,c),
(904,808,ls),
(1033,887,o),
(1138,1007,o),
(1160,1134,c),
(1196,1341,o),
(1068,1513,o),
(818,1512,cs),
(556,1513,o),
(353,1327,o),
(314,1100,cs),
(280,896,o),
(396,736,o),
(468,640,cs),
(936,0,l),
(1368,0,l),
(776,794,l),
(693,922,o),
(623,1001,o),
(638,1094,cs),
(649,1158,o),
(693,1196,o),
(766,1196,cs),
(836,1196,o),
(865,1143,o),
(858,1100,c),
(853,1076,o),
(847,1033,o),
(750,978,cs),
(378,768,l)
);
}
);
width = 1506;
},
{
layerId = "B1F27B51-9973-4381-9301-4FE46FE1CA59";
shapes = (
{
closed = 1;
nodes = (
(750,-20,o),
(889,77,o),
(965,175,cs),
(969,181,o),
(974,186,o),
(978,192,cs),
(1043,283,o),
(1094,410,o),
(1114,536,c),
(1068,542,l),
(1017,241,o),
(841,26,o),
(550,26,cs),
(340,26,o),
(176,180,o),
(176,372,cs),
(176,492,o),
(237,580,o),
(415,714,cs),
(633,878,ls),
(787,994,o),
(846,1088,o),
(846,1208,cs),
(846,1382,o),
(721,1510,o),
(552,1510,cs),
(376,1510,o),
(236,1371,o),
(236,1196,cs),
(236,1068,o),
(310,997,o),
(446,824,cs),
(1097,0,l),
(1156,0,l),
(483,852,ls),
(347,1024,o),
(282,1086,o),
(282,1196,cs),
(282,1345,o),
(402,1464,o),
(552,1464,cs),
(695,1464,o),
(800,1357,o),
(800,1209,cs),
(800,1102,o),
(744,1019,o),
(606,915,cs),
(386,750,ls),
(196,608,o),
(130,506,o),
(130,372,cs),
(130,154,o),
(314,-20,o),
(550,-20,cs)
);
}
);
width = 1196;
},
{
layerId = "200BE2C5-40F6-4CF4-AF4F-A33C0CC0964F";
shapes = (
{
closed = 1;
nodes = (
(600,-20,o),
(756,47,o),
(877,148,cs),
(891,161,o),
(904,176,o),
(917,192,cs),
(993,285,o),
(1070,410,o),
(1111,536,c),
(1065,542,l),
(965,241,o),
(742,33,o),
(451,26,cs),
(241,21,o),
(115,180,o),
(145,372,cs),
(165,492,o),
(240,578,o),
(443,712,cs),
(687,876,ls),
(860,991,o),
(935,1088,o),
(955,1208,cs),
(983,1382,o),
(880,1510,o),
(711,1510,cs),
(539,1510,o),
(369,1364,o),
(341,1196,cs),
(322,1082,o),
(382,996,o),
(489,824,cs),
(1005,0,l),
(1063,0,l),
(529,852,ls),
(422,1025,o),
(372,1100,o),
(387,1196,cs),
(410,1338,o),
(569,1463,o),
(713,1464,cs),
(857,1463,o),
(931,1356,o),
(909,1208,cs),
(891,1102,o),
(824,1020,o),
(663,914,cs),
(419,750,ls),
(205,607,o),
(123,506,o),
(99,372,cs),
(62,155,o),
(219,-20,o),
(455,-20,cs)
);
}
);
width = 1195;
},
{
associatedMasterId = "C698F293-3EC0-4A5A-A3A0-0FDB1F5CF265";
background = {
shapes = (
{
closed = 1;
nodes = (
(233,695,o),
(105,582,o),
(104,396,c),
(105,154,o),
(285,-20,o),
(578,-20,c),
(721,-20,o),
(881,32,o),
(978,140,c),
(1010,184,l),
(1062,235,o),
(1190,355,o),
(1190,652,c),
(1024,652,l),
(1024,332,o),
(797,131,o),
(574,130,cs),
(396,131,o),
(279,256,o),
(280,396,c),
(279,436,o),
(317,541,o),
(450,640,cs),
(748,862,ls),
(870,951,o),
(945,1050,o),
(946,1192,c),
(945,1359,o),
(809,1504,o),
(584,1504,cs),
(367,1504,o),
(224,1367,o),
(224,1166,cs),
(224,992,o),
(349,870,o),
(506,680,cs),
(1070,0,l),
(1278,0,l),
(594,834,ls),
(497,951,o),
(399,1059,o),
(398,1164,cs),
(399,1257,o),
(477,1356,o),
(590,1356,cs),
(698,1356,o),
(771,1268,o),
(770,1192,c),
(771,1091,o),
(716,1036,o),
(632,980,c),
(416,820,l)
);
}
);
};
layerId = "BA8B7BCA-29C4-43D2-BA91-3D8856FB35CE";
name = "Dec 27 18, 14:15";
shapes = (
{
closed = 0;
nodes = (
(1112,654,l),
(1111,395,o),
(983,250,o),
(940,206,c),
(849,108,o),
(706,58,o),
(578,58,c),
(345,58,o),
(196,208,o),
(194,398,c),
(196,512,o),
(279,621,o),
(436,734,c),
(646,888,l),
(765,976,o),
(860,1057,o),
(862,1196,c),
(860,1337,o),
(753,1437,o),
(588,1438,c),
(421,1437,o),
(316,1283,o),
(314,1166,c),
(316,1052,o),
(398,949,o),
(494,832,c),
(512,810,o),
(592,713,o),
(614,686,c),
(1178,2,l)
);
}
);
width = 1310;
},
{
associatedMasterId = "B1F27B51-9973-4381-9301-4FE46FE1CA59";
background = {
shapes = (
{
closed = 1;
nodes = (
(233,695,o),
(105,582,o),
(104,396,c),
(105,154,o),
(285,-20,o),
(578,-20,c),
(721,-20,o),
(881,32,o),
(978,140,c),
(1010,184,l),
(1062,235,o),
(1190,355,o),
(1190,652,c),
(1024,652,l),
(1024,332,o),
(797,131,o),
(574,130,cs),
(396,131,o),
(279,256,o),
(280,396,c),
(279,436,o),
(317,541,o),
(450,640,cs),
(748,862,ls),
(870,951,o),
(945,1050,o),
(946,1192,c),
(945,1359,o),
(809,1504,o),
(584,1504,cs),
(367,1504,o),
(224,1367,o),
(224,1166,cs),
(224,992,o),
(349,870,o),
(506,680,cs),
(1070,0,l),
(1278,0,l),
(594,834,ls),
(497,951,o),
(399,1059,o),
(398,1164,cs),
(399,1257,o),
(477,1356,o),
(590,1356,cs),
(698,1356,o),
(771,1268,o),
(770,1192,c),
(771,1091,o),
(716,1036,o),
(632,980,c),
(416,820,l)
);
}
);
};
layerId = "BC7DB698-6657-4284-AE4C-FB553159B532";
name = "Dec 27 18, 14:19";
shapes = (
{
closed = 0;
nodes = (
(1112,648,l),
(1111,479,o),
(1038,289,o),
(940,184,cs),
(850,86,o),
(712,29,o),
(578,30,cs),
(351,29,o),
(195,196,o),
(194,384,cs),
(195,519,o),
(276,611,o),
(436,730,cs),
(646,890,ls),
(805,1015,o),
(844,1100,o),
(844,1192,cs),
(844,1357,o),
(724,1463,o),
(582,1464,cs),
(415,1463,o),
(297,1319,o),
(296,1182,cs),
(297,1079,o),
(361,1002,o),
(494,834,cs),
(1178,-30,l)
);
}
);
width = 1238;
},
{
associatedMasterId = "B1F27B51-9973-4381-9301-4FE46FE1CA59";
background = {
shapes = (
{
closed = 1;
nodes = (
(233,695,o),
(105,582,o),
(104,396,c),
(105,154,o),
(285,-20,o),
(578,-20,c),
(721,-20,o),
(881,32,o),
(978,140,c),
(1010,184,l),
(1062,235,o),
(1190,355,o),
(1190,652,c),
(1024,652,l),
(1024,332,o),
(797,131,o),
(574,130,cs),
(396,131,o),
(279,256,o),
(280,396,c),
(279,436,o),
(317,541,o),
(450,640,cs),
(748,862,ls),
(870,951,o),
(945,1050,o),
(946,1192,c),
(945,1359,o),
(809,1504,o),
(584,1504,cs),
(367,1504,o),
(224,1367,o),
(224,1166,cs),
(224,992,o),
(349,870,o),
(506,680,cs),
(1070,0,l),
(1278,0,l),
(594,834,ls),
(497,951,o),
(399,1059,o),
(398,1164,cs),
(399,1257,o),
(477,1356,o),
(590,1356,cs),
(698,1356,o),
(771,1268,o),
(770,1192,c),
(771,1091,o),
(716,1036,o),
(632,980,c),
(416,820,l)
);
}
);
};
layerId = "297194E9-A452-4483-B058-5B7B44144A90";
name = "Dec 27 18, 14:20";
shapes = (
{
closed = 0;
nodes = (
(1118,538,l),
(1094,396,o),
(1030,250,o),
(952,162,cs),
(856,64,o),
(714,4,o),
(576,2,cs),
(340,4,o),
(180,177,o),
(180,372,cs),
(180,511,o),
(263,606,o),
(428,730,cs),
(646,894,ls),
(810,1023,o),
(849,1111,o),
(850,1208,cs),
(849,1377,o),
(727,1487,o),
(578,1486,cs),
(407,1487,o),
(284,1337,o),
(286,1196,cs),
(284,1090,o),
(351,1010,o),
(488,838,cs),
(1196,-56,l)
);
}
);
width = 1240;
}
);
metricLeft = d;
tags = (
"TODO-opsz"
);
unicode = 38;
userData = {
"interface.width-adjustments" = (
-16
);
};
}
{
glyphname = quotesingle;
kernLeft = quotedbl;
kernRight = quotedbl;
layers = (
{
background = {
shapes = (
{
ref = quoteright;
}
);
};
layerId = "C698F293-3EC0-4A5A-A3A0-0FDB1F5CF265";
shapes = (
{
closed = 1;
nodes = (
(327,928,l),
(348,1490,l),
(162,1490,l),
(183,928,l)
);
}
);
width = 510;
},
{
background = {
shapes = (
{
pos = (-3,0);
ref = quoteright;
}
);
};
layerId = "5C20EF92-B63D-42A8-8878-93C2863E0093";
shapes = (
{
closed = 1;
nodes = (
(505,824,l),
(542,1490,l),
(172,1490,l),
(209,824,l)
);
}
);
width = 714;
},
{
layerId = "11F4534A-B963-4AB5-820F-DAF9A20CD933";
shapes = (
{
closed = 1;
nodes = (
(388,928,l),
(502,1490,l),
(316,1490,l),
(244,928,l)
);
}
);
width = 510;
},
{
guides = (
{
pos = (116,1240);
},
{
pos = (-40,764);
}
);
layerId = "D0EC06BF-13F9-4C88-A6F5-B8203AF6C77E";
shapes = (
{
closed = 1;
nodes = (
(549,824,l),
(696,1490,l),
(326,1490,l),
(253,824,l)
);
}
);
width = 714;
},
{
background = {
shapes = (
{
pos = (72,0);
ref = quoteright;
}
);
};
layerId = "B1F27B51-9973-4381-9301-4FE46FE1CA59";
shapes = (
{
closed = 1;
nodes = (
(302,1040,l),
(307,1490,l),
(256,1490,l),
(261,1040,l)
);
}
);
width = 563;
},
{
layerId = "200BE2C5-40F6-4CF4-AF4F-A33C0CC0964F";
shapes = (
{
closed = 1;
nodes = (
(382,1040,l),
(461,1490,l),
(410,1490,l),
(341,1040,l)
);
}
);
width = 563;
},
{
associatedMasterId = "C698F293-3EC0-4A5A-A3A0-0FDB1F5CF265";
layerId = "B9FBAEDC-7021-4A04-93EB-75FBD30B3FED";
name = "Jun 8, 22, 14:54";
shapes = (
{
closed = 1;
nodes = (
(306,978,l),
(306,1490,l),
(146,1490,l),
(146,978,l)
);
}
);
width = 454;
}
);
unicode = 39;
userData = {
"interface.width-adjustments" = (
-16
);
};
}
{
glyphname = parenleft;
kernLeft = parenleft;
kernRight = parenleft;
layers = (
{
guides = (
{
pos = (728,2144);
},
{
pos = (752,-416);
},
{
name = "Mid center";
pos = (0,651);
}
);
layerId = "B1F27B51-9973-4381-9301-4FE46FE1CA59";
shapes = (
{
closed = 1;
nodes = (
(239,339,o),
(314,19,o),
(454,-280,c),
(504,-280,l),
(360,19,o),
(285,336,o),
(286,650,cs),
(285,962,o),
(359,1280,o),
(504,1582,c),
(454,1582,l),
(314,1285,o),
(239,965,o),
(238,650,cs)
);
}
);
width = 646;
},
{
associatedMasterId = "B1F27B51-9973-4381-9301-4FE46FE1CA59";
background = {
shapes = (
{
closed = 1;
nodes = (
(177,262,o),
(276,-44,o),
(454,-302,c),
(606,-302,l),
(465,-111,o),
(355,282,o),
(354,628,cs),
(355,975,o),
(465,1367,o),
(606,1560,c),
(454,1560,l),
(276,1300,o),
(177,995,o),
(178,628,cs)
);
}
);
};
guides = (
{
angle = 90;
pos = (660,2176);
},
{
orientation = center;
pos = (412,864);
},
{
pos = (728,2144);
},
{
pos = (752,-416);
}
);
layerId = "9613F405-67A1-4060-8122-78748D4E27B8";
name = "Dec 27 18, 14:49";
shapes = (
{
closed = 0;
nodes = (
(492,1582,l),
(340,1276,o),
(262,949,o),
(262,628,cs),
(262,308,o),
(340,-20,o),
(492,-326,c)
);
}
);
width = 646;
},
{
guides = (
{
name = "Mid center";
pos = (0,651);
}
);
layerId = "200BE2C5-40F6-4CF4-AF4F-A33C0CC0964F";
shapes = (
{
closed = 1;
nodes = (
(198,317,o),
(221,-3,o),
(312,-302,c),
(360,-302,l),
(268,-3,o),
(244,314,o),
(296,628,cs),
(349,940,o),
(474,1260,o),
(670,1560,c),
(620,1560,l),
(431,1263,o),
(303,943,o),
(250,628,cs)
);
}
);
width = 646;
},
{
guides = (
{
name = "Mid center";
pos = (-96,651);
}
);
layerId = "C698F293-3EC0-4A5A-A3A0-0FDB1F5CF265";
shapes = (
{
closed = 1;
nodes = (
(170,314,o),
(259,9,o),
(428,-279,c),
(594,-279,l),
(418,80,o),
(342,347,o),
(342,607,cs),
(342,897,o),
(437,1264,o),
(594,1581,c),
(428,1581,l),
(277,1332,o),
(170,929,o),
(170,607,cs)
);
}
);
width = 642;
},
{
guides = (
{
pos = (492,1560);
}
);
layerId = "11F4534A-B963-4AB5-820F-DAF9A20CD933";
shapes = (
{
closed = 1;
nodes = (
(129,314,o),
(168,9,o),
(289,-279,c),
(455,-279,l),
(339,80,o),
(307,347,o),
(350,607,cs),
(398,897,o),
(554,1264,o),
(763,1581,c),
(597,1581,l),
(405,1332,o),
(231,929,o),
(178,607,cs)
);
}
);
width = 642;
},
{
guides = (
{
name = "Mid center";
pos = (-144,651);
}
);
layerId = "5C20EF92-B63D-42A8-8878-93C2863E0093";
shapes = (
{
closed = 1;
nodes = (
(104,301,o),
(193,-6,o),
(362,-279,c),
(728,-279,l),
(571,112,o),
(514,347,o),
(514,607,cs),
(514,914,o),
(593,1274,o),
(728,1581,c),
(362,1581,l),
(210,1344,o),
(104,942,o),
(104,607,cs)
);
}
);
width = 746;
},
{
layerId = "D0EC06BF-13F9-4C88-A6F5-B8203AF6C77E";
shapes = (
{
closed = 1;
nodes = (
(61,301,o),
(99,-6,o),
(223,-279,c),
(589,-279,l),
(497,112,o),
(479,347,o),
(522,607,cs),
(573,914,o),
(711,1274,o),
(897,1581,c),
(531,1581,l),
(340,1344,o),
(167,942,o),
(112,607,cs)
);
}
);
width = 746;
},
{
associatedMasterId = "C698F293-3EC0-4A5A-A3A0-0FDB1F5CF265";
background = {
shapes = (
{
closed = 1;
nodes = (
(242,1560,l),
(242,-302,l),
(672,-302,l),
(672,-160,l),
(404,-160,l),
(404,1416,l),
(672,1416,l),
(672,1560,l)
);
}
);
};
guides = (
{
name = "Mid center";
pos = (0,651);
}
);
layerId = "C71264C2-F435-4AF9-9BA8-818B83E56032";
name = "Jun 1, 22, 10:58";
shapes = (
{
closed = 1;
nodes = (
(218,262,o),
(317,-44,o),
(494,-302,c),
(646,-302,l),
(506,-111,o),
(396,282,o),
(396,628,cs),
(396,975,o),
(506,1367,o),
(646,1560,c),
(494,1560,l),
(317,1300,o),
(218,995,o),
(218,628,cs)
);
}
);
width = 742;
},
{
associatedMasterId = "5C20EF92-B63D-42A8-8878-93C2863E0093";
background = {
shapes = (
{
closed = 1;
nodes = (
(1016,-338,l),
(1016,-46,l),
(736,-46,l),
(736,1198,l),
(1016,1198,l),
(1016,1490,l),
(346,1490,l),
(346,-338,l)
);
}
);
};
guides = (
{
name = "Mid center";
pos = (0,651);
}
);
layerId = "7F286FB3-CE07-4CF7-9740-45E871A5D1C5";
name = "Jun 1, 22, 11:04";
shapes = (
{
closed = 1;
nodes = (
(175,218,o),
(268,-79,o),
(480,-338,c),
(872,-338,l),
(713,-145,o),
(593,233,o),
(594,576,cs),
(593,919,o),
(713,1297,o),
(872,1490,c),
(480,1490,l),
(268,1231,o),
(175,934,o),
(174,576,cs)
);
}
);
width = 902;
}
);
tags = (
"TODO-opsz"
);
unicode = 40;
userData = {
com.typemytype.robofont.guideline.magnetic.6H1sRKKBfi = 5;
com.typemytype.robofont.guideline.magnetic.IYaB9kRuJP = 5;
com.typemytype.robofont.guideline.magnetic.PK9Z25O3at = 5;
com.typemytype.robofont.guideline.magnetic.pOwuJlK9ke = 5;
"interface.width-adjustments" = (
-16
);
};
}
{
glyphname = parenright;
kernLeft = parenright;
kernRight = parenright;
layers = (
{
guides = (
{
name = "Mid center";
pos = (-222,651);
}
);
layerId = "C698F293-3EC0-4A5A-A3A0-0FDB1F5CF265";
shapes = (
{
closed = 1;
nodes = (
(214,-279,l),
(383,9,o),
(472,314,o),
(472,607,cs),
(472,929,o),
(365,1332,o),
(214,1581,c),
(48,1581,l),
(205,1264,o),
(300,897,o),
(300,607,cs),
(300,347,o),
(224,80,o),
(48,-279,c)
);
}
);
width = 642;
},
{
guides = (
{
name = "Mid center";
pos = (-384,651);
}
);
layerId = "5C20EF92-B63D-42A8-8878-93C2863E0093";
shapes = (
{
closed = 1;
nodes = (
(384,-279,l),
(553,-6,o),
(642,301,o),
(642,607,cs),
(642,942,o),
(536,1344,o),
(384,1581,c),
(18,1581,l),
(153,1274,o),
(232,914,o),
(232,607,cs),
(232,347,o),
(175,112,o),
(18,-279,c)
);
}
);
width = 746;
},
{
guides = (
{
pos = (114,1560);
},
{
name = "Mid center";
pos = (-233,651);
}
);
layerId = "11F4534A-B963-4AB5-820F-DAF9A20CD933";
shapes = (
{
closed = 1;
nodes = (
(75,-279,l),
(292,9,o),
(431,314,o),
(480,607,cs),
(533,929,o),
(493,1332,o),
(383,1581,c),
(217,1581,l),
(322,1264,o),
(356,897,o),
(308,607,cs),
(265,347,o),
(145,80,o),
(-91,-279,c)
);
}
);
width = 642;
},
{
guides = (
{
name = "Mid center";
pos = (-245,651);
}
);
layerId = "D0EC06BF-13F9-4C88-A6F5-B8203AF6C77E";
shapes = (
{
closed = 1;
nodes = (
(259,-294,l),
(448,-43,o),
(577,264,o),
(631,592,cs),
(691,951,o),
(665,1344,o),
(567,1566,c),
(185,1566,l),
(252,1292,o),
(283,930,o),
(227,592,cs),
(178,296,o),
(62,45,o),
(-123,-294,c)
);
}
);
width = 730;
},
{
guides = (
{
name = "Mid center";
pos = (0,651);
}
);
layerId = "B1F27B51-9973-4381-9301-4FE46FE1CA59";
shapes = (
{
closed = 1;
nodes = (
(192,-279,l),
(332,20,o),
(407,340,o),
(408,651,cs),
(407,966,o),
(332,1286,o),
(192,1583,c),
(142,1583,l),
(287,1281,o),
(361,963,o),
(360,651,cs),
(361,337,o),
(286,20,o),
(142,-279,c)
);
}
);
width = 646;
},
{
guides = (
{
orientation = center;
pos = (-332,864);
}
);
layerId = "200BE2C5-40F6-4CF4-AF4F-A33C0CC0964F";
shapes = (
{
closed = 1;
nodes = (
(49,-302,l),
(239,-3,o),
(367,317,o),
(419,628,cs),
(471,943,o),
(449,1263,o),
(358,1560,c),
(308,1560,l),
(403,1258,o),
(424,940,o),
(371,628,cs),
(320,314,o),
(193,-3,o),
(-1,-302,c)
);
}
);
width = 647;
}
);
metricLeft = "=|parenleft";
metricRight = "=|parenleft";
tags = (
"TODO-opsz"
);
unicode = 41;
userData = {
"interface.width-adjustments" = (
-16
);
};
}
{
glyphname = asterisk;
kernLeft = asciicircum;
kernRight = asciicircum;
layers = (
{
background = {
shapes = (
{
closed = 1;
nodes = (
(573,960,o),
(623,1009,o),
(622,1070,cs),
(623,1132,o),
(573,1181,o),
(512,1182,cs),
(451,1181,o),
(401,1132,o),
(402,1070,cs),
(401,1009,o),
(451,960,o),
(512,960,cs)
);
}
);
};
guides = (
{
pos = (688,1472);
},
{
angle = -30;
pos = (608,1472);
},
{
angle = 30;
pos = (608,1472);
},
{
orientation = center;
angle = 90;
pos = (-92,1408);
}
);
layerId = "C698F293-3EC0-4A5A-A3A0-0FDB1F5CF265";
shapes = (
{
closed = 1;
nodes = (
(534,652,l),
(522,972,l),
(792,800,l),
(862,922,l),
(578,1070,l),
(862,1218,l),
(792,1342,l),
(522,1170,l),
(534,1490,l),
(394,1490,l),
(406,1170,l),
(136,1342,l),
(66,1218,l),
(350,1070,l),
(66,922,l),
(136,800,l),
(406,972,l),
(394,652,l)
);
}
);
width = 928;
},
{
guides = (
{
pos = (748,1344);
},
{
angle = -32;
pos = (716,1472);
},
{
angle = 28;
pos = (716,1472);
},
{
angle = -99.4;
pos = (724,1520);
}
);
layerId = "11F4534A-B963-4AB5-820F-DAF9A20CD933";
shapes = (
{
closed = 1;
nodes = (
(548,652,l),
(592,972,l),
(836,800,l),
(926,922,l),
(664,1070,l),
(970,1218,l),
(918,1342,l),
(624,1170,l),
(688,1490,l),
(548,1490,l),
(508,1170,l),
(264,1342,l),
(174,1218,l),
(434,1070,l),
(130,922,l),
(178,800,l),
(476,972,l),
(408,652,l)
);
}
);
width = 928;
},
{
associatedMasterId = "5C20EF92-B63D-42A8-8878-93C2863E0093";
guides = (
{
pos = (0,1238.875);
},
{
pos = (0,763.125);
},
{
orientation = center;
pos = (832,1472);
showMeasurement = 1;
},
{
orientation = center;
angle = 90;
pos = (876,1472);
},
{
angle = -30;
pos = (832,1472);
},
{
angle = 30;
pos = (832,1472);
}
);
layerId = "97A0723D-7FBB-4E7F-A62E-E3A1A7C6FCDB";
name = _base;
shapes = (
{
closed = 1;
nodes = (
(-52,748,l),
(46,920,l),
(-180,1042,l),
(46,1166,l),
(-52,1342,l),
(-262,1214,l),
(-244,1442,l),
(-480,1442,l),
(-462,1214,l),
(-674,1342,l),
(-770,1166,l),
(-544,1042,l),
(-770,920,l),
(-674,748,l),
(-462,872,l),
(-480,642,l),
(-244,642,l),
(-262,872,l)
);
},
{
closed = 1;
nodes = (
(488,652,l),
(722,652,l),
(722,1490,l),
(488,1490,l)
);
},
{
closed = 1;
nodes = (
(184,962,l),
(300,760,l),
(1026,1178,l),
(910,1382,l)
);
},
{
closed = 1;
nodes = (
(300,1382,l),
(184,1178,l),
(910,760,l),
(1026,962,l)
);
}
);
width = 1210;
},
{
associatedMasterId = "C698F293-3EC0-4A5A-A3A0-0FDB1F5CF265";
guides = (
{
pos = (784,1344);
},
{
angle = -30;
pos = (704,1472);
},
{
angle = 30;
pos = (704,1472);
},
{
orientation = center;
angle = 90;
pos = (980,1408);
}
);
layerId = "243F3215-096B-472B-B93F-12968743793A";
name = _base;
shapes = (
{
closed = 1;
nodes = (
(442,652,l),
(582,652,l),
(582,1490,l),
(442,1490,l)
);
},
{
closed = 1;
nodes = (
(114,922,l),
(184,800,l),
(910,1218,l),
(840,1342,l)
);
},
{
closed = 1;
nodes = (
(184,1342,l),
(114,1218,l),
(840,800,l),
(910,922,l)
);
}
);
width = 1024;
},
{
associatedMasterId = "11F4534A-B963-4AB5-820F-DAF9A20CD933";
guides = (
{
pos = (1080,1344);
},
{
angle = -30;
pos = (832,1472);
},
{
angle = 30;
pos = (832,1472);
},
{
angle = -99.4;
pos = (840,1520);
}
);
layerId = "CC0E1785-E413-44A4-BA29-F4CA3A7668BA";
name = _base;
shapes = (
{
closed = 1;
nodes = (
(460,652,l),
(602,652,l),
(744,1490,l),
(602,1490,l)
);
},
{
closed = 1;
nodes = (
(190,968,l),
(244,840,l),
(1016,1176,l),
(960,1304,l)
);
},
{
closed = 1;
nodes = (
(306,1376,l),
(224,1262,l),
(898,766,l),
(980,878,l)
);
}
);
width = 1036;
},
{
associatedMasterId = "5C20EF92-B63D-42A8-8878-93C2863E0093";
background = {
shapes = (
{
closed = 1;
nodes = (
(695,908,o),
(768,981,o),
(768,1070,cs),
(768,1160,o),
(695,1233,o),
(606,1234,cs),
(516,1233,o),
(442,1160,o),
(442,1070,cs),
(442,981,o),
(516,908,o),
(606,908,cs)
);
}
);
};
guides = (
{
pos = (0,1238.875);
},
{
pos = (0,763.125);
},
{
orientation = center;
angle = 90;
pos = (876,1752);
},
{
angle = -30;
pos = (832,1472);
},
{
angle = 30;
pos = (832,1472);
},
{
angle = 60;
pos = (832,1472);
},
{
angle = -60;
pos = (832,1472);
}
);
layerId = "6C5AA80E-891B-45F3-A4F8-A8296CFF1D53";
name = "Sep 11 18, 18:19";
shapes = (
{
closed = 1;
nodes = (
(300,760,l),
(524,928,l),
(488,652,l),
(722,652,l),
(686,928,l),
(910,760,l),
(1026,962,l),
(768,1070,l),
(1026,1178,l),
(910,1382,l),
(686,1214,l),
(722,1490,l),
(488,1490,l),
(524,1214,l),
(300,1382,l),
(184,1178,l),
(442,1070,l),
(184,962,l)
);
}
);
width = 1210;
},
{
background = {
shapes = (
{
closed = 1;
nodes = (
(726,884,o),
(809,968,o),
(808,1070,cs),
(809,1173,o),
(726,1257,o),
(622,1256,cs),
(521,1257,o),
(437,1173,o),
(436,1070,cs),
(437,968,o),
(521,884,o),
(622,884,cs)
);
}
);
};
guides = (
{
pos = (-120,1240);
},
{
pos = (-120,764);
},
{
orientation = center;
angle = 90;
pos = (-2275,1752);
},
{
angle = -30;
pos = (712,1472);
},
{
angle = 30;
pos = (712,1472);
},
{
angle = 60;
pos = (712,1472);
},
{
angle = -60;
pos = (712,1472);
}
);
layerId = "5C20EF92-B63D-42A8-8878-93C2863E0093";
shapes = (
{
closed = 1;
nodes = (
(714,652,l),
(692,908,l),
(904,760,l),
(1020,962,l),
(788,1070,l),
(1020,1178,l),
(904,1382,l),
(692,1234,l),
(714,1490,l),
(482,1490,l),
(506,1234,l),
(294,1382,l),
(176,1178,l),
(410,1070,l),
(176,962,l),
(294,760,l),
(506,908,l),
(482,652,l)
);
}
);
width = 1198;
},
{
background = {
shapes = (
{
closed = 1;
nodes = (
(726,884,o),
(809,968,o),
(808,1070,cs),
(809,1173,o),
(726,1257,o),
(622,1256,cs),
(521,1257,o),
(437,1173,o),
(436,1070,cs),
(437,968,o),
(521,884,o),
(622,884,cs)
);
}
);
};
guides = (
{
pos = (132,1240);
},
{
pos = (-24,764);
},
{
orientation = center;
angle = 90;
pos = (-46,1752);
},
{
angle = -30;
pos = (1040,1472);
},
{
angle = 30;
pos = (1040,1472);
},
{
angle = 60;
pos = (1040,1472);
},
{
angle = -60;
pos = (1040,1472);
}
);
layerId = "D0EC06BF-13F9-4C88-A6F5-B8203AF6C77E";
shapes = (
{
closed = 1;
nodes = (
(730,652,l),
(750,908,l),
(936,760,l),
(1088,962,l),
(872,1070,l),
(1122,1178,l),
(1040,1382,l),
(802,1234,l),
(870,1490,l),
(636,1490,l),
(616,1234,l),
(430,1382,l),
(278,1178,l),
(494,1070,l),
(244,962,l),
(326,760,l),
(564,908,l),
(496,652,l)
);
}
);
width = 1198;
},
{
guides = (
{
angle = 30;
pos = (704,1472);
},
{
orientation = center;
pos = (784,1472);
},
{
angle = -30;
pos = (704,1472);
}
);
layerId = "B1F27B51-9973-4381-9301-4FE46FE1CA59";
shapes = (
{
closed = 1;
nodes = (
(536,652,l),
(536,1030,l),
(864,840,l),
(888,882,l),
(558,1070,l),
(888,1260,l),
(864,1300,l),
(536,1112,l),
(536,1490,l),
(488,1490,l),
(488,1112,l),
(160,1300,l),
(136,1260,l),
(466,1070,l),
(136,882,l),
(160,840,l),
(488,1030,l),
(488,652,l)
);
}
);
width = 1024;
},
{
layerId = "200BE2C5-40F6-4CF4-AF4F-A33C0CC0964F";
shapes = (
{
closed = 1;
nodes = (
(550,652,l),
(614,1032,l),
(914,840,l),
(936,882,l),
(642,1068,l),
(1006,1260,l),
(984,1300,l),
(626,1112,l),
(690,1490,l),
(642,1490,l),
(578,1108,l),
(280,1300,l),
(256,1260,l),
(550,1074,l),
(186,882,l),
(210,840,l),
(568,1030,l),
(504,652,l)
);
}
);
width = 1024;
},
{
associatedMasterId = "B1F27B51-9973-4381-9301-4FE46FE1CA59";
background = {
shapes = (
{
closed = 1;
nodes = (
(582,652,l),
(570,972,l),
(840,800,l),
(910,922,l),
(626,1070,l),
(910,1218,l),
(840,1342,l),
(570,1170,l),
(582,1490,l),
(442,1490,l),
(454,1170,l),
(184,1342,l),
(114,1218,l),
(398,1070,l),
(114,922,l),
(184,800,l),
(454,972,l),
(442,652,l)
);
}
);
};
guides = (
{
angle = 30;
pos = (704,1472);
},
{
orientation = center;
pos = (784,1472);
},
{
angle = -30;
pos = (704,1472);
}
);
layerId = "F49FED06-13CF-4C84-978D-8F5A7D370851";
name = "Dec 27 18, 16:33";
shapes = (
{
closed = 0;
nodes = (
(512,1490,l),
(512,652,l)
);
},
{
closed = 0;
nodes = (
(876,1280,l),
(148,862,l)
);
},
{
closed = 0;
nodes = (
(876,862,l),
(148,1280,l)
);
}
);
width = 1024;
}
);
note = "hexagonal angle: 30 deg";
tags = (
"TODO-opsz"
);
unicode = 42;
userData = {
com.typemytype.robofont.guideline.magnetic.x5LXEmmtln = 5;
"interface.width-adjustments" = (
-16
);
};
}
{
color = (204,240,242,1);
glyphname = plus;
kernLeft = hyphen;
kernRight = hyphen;
layers = (
{
background = {
shapes = (
{
pos = (108,0);
ref = e;
}
);
};
guides = (
{
pos = (172,800);
}
);
layerId = "C698F293-3EC0-4A5A-A3A0-0FDB1F5CF265";
shapes = (
{
closed = 1;
nodes = (
(708,102,l),
(708,1062,l),
(546,1062,l),
(546,102,l)
);
},
{
closed = 1;
nodes = (
(1106,500,l),
(1106,664,l),
(146,664,l),
(146,500,l)
);
}
);
width = 1254;
},
{
guides = (
{
orientation = center;
pos = (-3202,832);
}
);
layerId = "5C20EF92-B63D-42A8-8878-93C2863E0093";
shapes = (
{
closed = 1;
nodes = (
(848,66,l),
(848,1144,l),
(522,1144,l),
(522,66,l)
);
},
{
closed = 1;
nodes = (
(1224,442,l),
(1224,768,l),
(148,768,l),
(148,442,l)
);
}
);
width = 1372;
},
{
guides = (
{
pos = (172,800);
}
);
layerId = "11F4534A-B963-4AB5-820F-DAF9A20CD933";
shapes = (
{
closed = 1;
nodes = (
(634,102,l),
(792,1062,l),
(628,1062,l),
(470,102,l)
);
},
{
closed = 1;
nodes = (
(1096,500,l),
(1124,664,l),
(164,664,l),
(136,500,l)
);
}
);
width = 1254;
},
{
guides = (
{
pos = (696,896);
}
);
layerId = "D0EC06BF-13F9-4C88-A6F5-B8203AF6C77E";
shapes = (
{
closed = 1;
nodes = (
(768,66,l),
(944,1144,l),
(618,1144,l),
(442,66,l)
);
},
{
closed = 1;
nodes = (
(1204,442,l),
(1258,768,l),
(182,768,l),
(128,442,l)
);
}
);
width = 1372;
},
{
guides = (
{
pos = (268,800);
}
);
layerId = "B1F27B51-9973-4381-9301-4FE46FE1CA59";
shapes = (
{
closed = 1;
nodes = (
(674,160,l),
(674,1004,l),
(628,1004,l),
(628,160,l)
);
},
{
closed = 1;
nodes = (
(1074,558,l),
(1074,606,l),
(230,606,l),
(230,558,l)
);
}
);
width = 1304;
},
{
layerId = "200BE2C5-40F6-4CF4-AF4F-A33C0CC0964F";
shapes = (
{
closed = 1;
nodes = (
(608,160,l),
(748,1004,l),
(702,1004,l),
(562,160,l)
);
},
{
closed = 1;
nodes = (
(1074,558,l),
(1082,606,l),
(238,606,l),
(230,558,l)
);
}
);
width = 1304;
}
);
tags = (
"TODO-opsz"
);
unicode = 43;
userData = {
com.typemytype.robofont.guideline.magnetic.vWa5hxe2x0 = 5;
"interface.width-adjustments" = (
-16
);
};
}
{
glyphname = hyphen;
kernLeft = hyphen;
kernRight = hyphen;
layers = (
{
background = {
shapes = (
{
pos = (-2,0);
ref = x;
}
);
};
layerId = "C698F293-3EC0-4A5A-A3A0-0FDB1F5CF265";
shapes = (
{
closed = 1;
nodes = (
(96,718,l),
(96,558,l),
(748,558,l),
(748,718,l)
);
}
);
width = 844;
},
{
background = {
shapes = (
{
ref = x;
}
);
};
layerId = "5C20EF92-B63D-42A8-8878-93C2863E0093";
shapes = (
{
closed = 1;
nodes = (
(113,744,l),
(113,442,l),
(811,442,l),
(811,744,l)
);
}
);
width = 924;
},
{
guides = (
{
orientation = center;
pos = (112,878);
}
);
layerId = "11F4534A-B963-4AB5-820F-DAF9A20CD933";
shapes = (
{
closed = 1;
nodes = (
(124,718,l),
(98,558,l),
(750,558,l),
(776,718,l)
);
}
);
width = 846;
},
{
layerId = "D0EC06BF-13F9-4C88-A6F5-B8203AF6C77E";
shapes = (
{
closed = 1;
nodes = (
(144,744,l),
(94,442,l),
(792,442,l),
(842,744,l)
);
}
);
width = 924;
},
{
layerId = "B1F27B51-9973-4381-9301-4FE46FE1CA59";
shapes = (
{
closed = 1;
nodes = (
(172,662,l),
(172,616,l),
(728,616,l),
(728,662,l)
);
}
);
width = 898;
},
{
guides = (
{
orientation = center;
pos = (1102,878);
}
);
layerId = "200BE2C5-40F6-4CF4-AF4F-A33C0CC0964F";
shapes = (
{
closed = 1;
nodes = (
(190,662,l),
(180,616,l),
(736,616,l),
(744,662,l)
);
}
);
width = 898;
},
{
associatedMasterId = "C698F293-3EC0-4A5A-A3A0-0FDB1F5CF265";
background = {
shapes = (
{
ref = x;
}
);
};
guides = (
{
orientation = center;
pos = (1104,816);
}
);
layerId = "63B5BFA6-C9AA-4ED3-8B09-961D912F95E3";
name = low;
shapes = (
{
closed = 1;
nodes = (
(146,674,l),
(146,514,l),
(798,514,l),
(798,674,l)
);
}
);
width = 942;
},
{
associatedMasterId = "11F4534A-B963-4AB5-820F-DAF9A20CD933";
guides = (
{
orientation = center;
pos = (1104,816);
}
);
layerId = "FA942A48-6198-45E0-B3DC-94AD50B28E82";
name = low;
shapes = (
{
closed = 1;
nodes = (
(164,674,l),
(138,514,l),
(790,514,l),
(816,674,l)
);
}
);
width = 942;
},
{
associatedMasterId = "B1F27B51-9973-4381-9301-4FE46FE1CA59";
background = {
shapes = (
{
ref = x;
}
);
};
guides = (
{
orientation = center;
pos = (1104,816);
}
);
layerId = "2A4AC893-944D-4CBF-BBBB-D9B421CC4A22";
name = low;
shapes = (
{
closed = 1;
nodes = (
(172,616,l),
(172,570,l),
(728,570,l),
(728,616,l)
);
}
);
width = 898;
},
{
associatedMasterId = "200BE2C5-40F6-4CF4-AF4F-A33C0CC0964F";
guides = (
{
orientation = center;
pos = (1104,816);
}
);
layerId = "628641A3-A77A-48BD-AD1C-A1A5E33F57F0";
name = low;
shapes = (
{
closed = 1;
nodes = (
(182,616,l),
(174,570,l),
(728,570,l),
(738,616,l)
);
}
);
width = 898;
}
);
tags = (
"TODO-opsz"
);
unicode = 45;
userData = {
"interface.width-adjustments" = (
-16
);
};
}
{
glyphname = period;
kernLeft = comma;
kernRight = comma;
layers = (
{
layerId = "C698F293-3EC0-4A5A-A3A0-0FDB1F5CF265";
shapes = (
{
closed = 1;
nodes = (
(315,-12,o),
(374,47,o),
(374,119,cs),
(374,191,o),
(315,250,o),
(243,250,cs),
(171,250,o),
(112,191,o),
(112,119,cs),
(112,47,o),
(171,-12,o),
(243,-12,cs)
);
}
);
width = 486;
},
{
guides = (
{
pos = (-66,1240);
},
{
pos = (-66,764);
}
);
layerId = "5C20EF92-B63D-42A8-8878-93C2863E0093";
shapes = (
{
closed = 1;
nodes = (
(475,-24,o),
(564,63,o),
(564,179,cs),
(564,295,o),
(475,382,o),
(358,382,cs),
(241,382,o),
(152,295,o),
(152,179,cs),
(152,63,o),
(241,-24,o),
(358,-24,cs)
);
}
);
width = 716;
},
{
layerId = "11F4534A-B963-4AB5-820F-DAF9A20CD933";
shapes = (
{
closed = 1;
nodes = (
(228,-12,o),
(290,41,o),
(301,108,cs),
(314,185,o),
(261,250,o),
(183,250,cs),
(117,250,o),
(54,197,o),
(43,130,cs),
(30,53,o),
(84,-12,o),
(161,-12,cs)
);
}
);
width = 490;
},
{
guides = (
{
pos = (516,1240);
},
{
pos = (-36,764);
}
);
layerId = "D0EC06BF-13F9-4C88-A6F5-B8203AF6C77E";
shapes = (
{
closed = 1;
nodes = (
(392,-24,o),
(483,50,o),
(500,153,cs),
(521,282,o),
(438,382,o),
(311,382,cs),
(204,382,o),
(113,308,o),
(96,205,cs),
(75,76,o),
(158,-24,o),
(285,-24,cs)
);
}
);
width = 722;
},
{
layerId = "B1F27B51-9973-4381-9301-4FE46FE1CA59";
shapes = (
{
closed = 1;
nodes = (
(306,-9,o),
(330,15,o),
(330,44,cs),
(330,73,o),
(306,97,o),
(277,97,cs),
(248,97,o),
(224,73,o),
(224,44,cs),
(224,15,o),
(248,-9,o),
(277,-9,cs)
);
}
);
width = 554;
},
{
layerId = "200BE2C5-40F6-4CF4-AF4F-A33C0CC0964F";
shapes = (
{
closed = 1;
nodes = (
(214,-9,o),
(240,13,o),
(244,41,cs),
(249,71,o),
(228,97,o),
(197,97,cs),
(170,97,o),
(144,75,o),
(139,47,cs),
(134,17,o),
(156,-9,o),
(186,-9,cs)
);
}
);
width = 554;
}
);
tags = (
"TODO-opsz"
);
unicode = 46;
userData = {
"interface.width-adjustments" = (
-16
);
};
}
{
glyphname = slash;
kernLeft = slash;
kernRight = slash;
layers = (
{
layerId = "C698F293-3EC0-4A5A-A3A0-0FDB1F5CF265";
shapes = (
{
closed = 1;
nodes = (
(478,1560,l),
(-2,-224,l),
(156,-224,l),
(636,1560,l)
);
}
);
width = 634;
},
{
guides = (
{
pos = (-132,1240);
},
{
pos = (-132,764);
}
);
layerId = "5C20EF92-B63D-42A8-8878-93C2863E0093";
shapes = (
{
closed = 1;
nodes = (
(468,1560,l),
(-12,-224,l),
(328,-224,l),
(808,1560,l)
);
}
);
width = 796;
},
{
layerId = "11F4534A-B963-4AB5-820F-DAF9A20CD933";
shapes = (
{
closed = 1;
nodes = (
(644,1560,l),
(-130,-224,l),
(28,-224,l),
(802,1560,l)
);
}
);
width = 634;
},
{
guides = (
{
pos = (276,1240);
},
{
pos = (-40,764);
}
);
layerId = "D0EC06BF-13F9-4C88-A6F5-B8203AF6C77E";
shapes = (
{
closed = 1;
nodes = (
(634,1560,l),
(-140,-224,l),
(200,-224,l),
(974,1560,l)
);
}
);
width = 796;
},
{
layerId = "B1F27B51-9973-4381-9301-4FE46FE1CA59";
shapes = (
{
closed = 1;
nodes = (
(546,1560,l),
(66,-224,l),
(116,-224,l),
(596,1560,l)
);
}
);
width = 662;
},
{
layerId = "200BE2C5-40F6-4CF4-AF4F-A33C0CC0964F";
shapes = (
{
closed = 1;
nodes = (
(710,1560,l),
(-64,-224,l),
(-14,-224,l),
(762,1560,l)
);
}
);
width = 662;
}
);
tags = (
"TODO-opsz"
);
unicode = 47;
userData = {
"interface.width-adjustments" = (
-16
);
};
}
{
color = (227,245,235,1);
glyphname = zero;
kernLeft = six;
kernRight = nine;
layers = (
{
guides = (
{
pos = (848,2044);
},
{
pos = (848,4);
}
);
layerId = "B1F27B51-9973-4381-9301-4FE46FE1CA59";
shapes = (
{
closed = 1;
nodes = (
(889,-20,o),
(1062,271,o),
(1062,744,cs),
(1062,1219,o),
(889,1510,o),
(606,1510,cs),
(321,1510,o),
(148,1219,o),
(148,744,cs),
(148,271,o),
(321,-20,o),
(606,-20,cs)
);
},
{
closed = 1;
nodes = (
(351,26,o),
(194,297,o),
(194,744,cs),
(194,1193,o),
(351,1464,o),
(606,1464,cs),
(859,1464,o),
(1016,1193,o),
(1016,744,cs),
(1016,297,o),
(859,26,o),
(606,26,cs)
);
}
);
width = 1210;
},
{
associatedMasterId = "B1F27B51-9973-4381-9301-4FE46FE1CA59";
background = {
shapes = (
{
closed = 1;
nodes = (
(858,-8,o),
(1010,264,o),
(1010,748,cs),
(1009,1225,o),
(854,1510,o),
(576,1510,cs),
(297,1510,o),
(140,1224,o),
(142,748,cs),
(143,263,o),
(293,-9,o),
(576,-8,cs)
);
},
{
closed = 1;
nodes = (
(313,51,o),
(170,314,o),
(168,748,cs),
(169,1182,o),
(315,1454,o),
(576,1454,cs),
(836,1454,o),
(982,1182,o),
(984,748,cs),
(981,314,o),
(839,51,o),
(576,52,cs)
);
}
);
};
guides = (
{
pos = (808,2044);
},
{
pos = (808,4);
}
);
layerId = "7AF2C568-77BF-4FF1-9E55-589BC7C6D392";
name = "Dec 25 18, 17:03";
shapes = (
{
closed = 1;
nodes = (
(845,3,o),
(1009,284,o),
(1010,744,cs),
(1009,1206,o),
(845,1487,o),
(576,1486,cs),
(307,1487,o),
(143,1206,o),
(142,744,cs),
(143,284,o),
(307,3,o),
(576,2,cs)
);
}
);
width = 1152;
},
{
guides = (
{
orientation = center;
angle = 90;
pos = (-504,792);
}
);
layerId = "C698F293-3EC0-4A5A-A3A0-0FDB1F5CF265";
shapes = (
{
closed = 1;
nodes = (
(921,-20,o),
(1110,258,o),
(1110,744,cs),
(1110,1228,o),
(918,1510,o),
(592,1510,cs),
(266,1510,o),
(74,1228,o),
(74,744,cs),
(74,258,o),
(263,-20,o),
(592,-20,cs)
);
},
{
closed = 1;
nodes = (
(371,138,o),
(246,361,o),
(246,744,cs),
(246,1128,o),
(371,1352,o),
(592,1352,cs),
(813,1352,o),
(938,1128,o),
(938,744,cs),
(938,361,o),
(813,138,o),
(592,138,cs)
);
}
);
width = 1184;
},
{
layerId = "5C20EF92-B63D-42A8-8878-93C2863E0093";
shapes = (
{
closed = 1;
nodes = (
(1139,-20,o),
(1382,263,o),
(1382,744,cs),
(1382,1225,o),
(1138,1510,o),
(724,1510,cs),
(310,1510,o),
(66,1226,o),
(66,744,cs),
(66,263,o),
(310,-20,o),
(724,-20,cs)
);
},
{
closed = 1;
nodes = (
(569,308,o),
(486,461,o),
(486,744,cs),
(486,1027,o),
(571,1184,o),
(724,1184,cs),
(878,1184,o),
(962,1028,o),
(962,744,cs),
(962,461,o),
(878,308,o),
(724,308,cs)
);
}
);
width = 1448;
},
{
associatedMasterId = "5C20EF92-B63D-42A8-8878-93C2863E0093";
guides = (
{
pos = (-16,1240);
},
{
pos = (-16,764);
}
);
layerId = "32BD53DC-98C5-430D-AABA-AC4F13E7ED90";
name = "Nov 23 18, 15:46";
shapes = (
{
closed = 1;
nodes = (
(1115,-41,o),
(1332,221,o),
(1332,738,cs),
(1332,1254,o),
(1115,1510,o),
(710,1510,cs),
(304,1510,o),
(87,1252,o),
(88,736,cs),
(86,220,o),
(304,-40,o),
(710,-40,cs)
);
},
{
closed = 1;
nodes = (
(542,285,o),
(467,430,o),
(468,736,cs),
(468,1042,o),
(543,1187,o),
(710,1186,cs),
(873,1187,o),
(949,1042,o),
(952,736,cs),
(952,430,o),
(877,285,o),
(710,286,cs)
);
}
);
width = 1420;
},
{
layerId = "200BE2C5-40F6-4CF4-AF4F-A33C0CC0964F";
shapes = (
{
closed = 1;
nodes = (
(791,-20,o),
(1013,271,o),
(1091,744,cs),
(1170,1219,o),
(1044,1510,o),
(761,1510,cs),
(477,1510,o),
(257,1217,o),
(179,744,cs),
(100,269,o),
(224,-20,o),
(507,-20,cs)
);
},
{
closed = 1;
nodes = (
(250,26,o),
(152,308,o),
(225,744,cs),
(301,1204,o),
(509,1463,o),
(761,1464,cs),
(1018,1463,o),
(1117,1180,o),
(1045,744,cs),
(969,284,o),
(759,26,o),
(511,26,cs)
);
}
);
width = 1208;
},
{
layerId = "11F4534A-B963-4AB5-820F-DAF9A20CD933";
shapes = (
{
closed = 1;
nodes = (
(824,-20,o),
(1059,259,o),
(1141,744,cs),
(1222,1227,o),
(1074,1510,o),
(749,1510,cs),
(422,1510,o),
(184,1228,o),
(105,744,cs),
(26,258,o),
(166,-20,o),
(495,-20,cs)
);
},
{
closed = 1;
nodes = (
(306,140,o),
(216,358,o),
(279,744,cs),
(344,1132,o),
(507,1353,o),
(721,1352,cs),
(937,1353,o),
(1030,1132,o),
(967,744,cs),
(902,358,o),
(739,140,o),
(521,140,cs)
);
}
);
width = 1184;
},
{
guides = (
{
pos = (676,1240);
},
{
pos = (-28,764);
}
);
layerId = "D0EC06BF-13F9-4C88-A6F5-B8203AF6C77E";
shapes = (
{
closed = 1;
nodes = (
(1029,-41,o),
(1329,250,o),
(1410,742,cs),
(1492,1234,o),
(1285,1510,o),
(880,1510,cs),
(476,1510,o),
(180,1233,o),
(96,742,cs),
(11,251,o),
(217,-41,o),
(624,-40,cs)
);
},
{
closed = 1;
nodes = (
(540,288,o),
(462,428,o),
(514,742,cs),
(565,1047,o),
(689,1184,o),
(828,1184,cs),
(968,1184,o),
(1044,1047,o),
(992,742,cs),
(937,428,o),
(820,288,o),
(680,288,cs)
);
}
);
width = 1446;
}
);
metricLeft = O;
metricRight = O;
tags = (
"TODO-opsz"
);
unicode = 48;
}
{
glyphname = one;
kernLeft = one;
kernRight = H;
layers = (
{
layerId = "C698F293-3EC0-4A5A-A3A0-0FDB1F5CF265";
shapes = (
{
closed = 1;
nodes = (
(420,1490,l),
(48,1242,l),
(48,1058,l),
(410,1300,l),
(420,1300,l),
(420,0,l),
(596,0,l),
(596,1490,l)
);
}
);
width = 728;
},
{
layerId = "5C20EF92-B63D-42A8-8878-93C2863E0093";
shapes = (
{
closed = 1;
nodes = (
(432,1490,l),
(66,1266,l),
(66,922,l),
(392,1118,l),
(400,1118,l),
(400,0,l),
(806,0,l),
(806,1490,l)
);
}
);
width = 878;
},
{
layerId = "11F4534A-B963-4AB5-820F-DAF9A20CD933";
shapes = (
{
closed = 1;
nodes = (
(604,1490,l),
(190,1242,l),
(158,1058,l),
(562,1300,l),
(572,1300,l),
(356,0,l),
(536,0,l),
(784,1490,l)
);
}
);
width = 762;
},
{
guides = (
{
pos = (436,1240);
},
{
pos = (-32,764);
}
);
layerId = "D0EC06BF-13F9-4C88-A6F5-B8203AF6C77E";
shapes = (
{
closed = 1;
nodes = (
(586,1490,l),
(182,1266,l),
(128,922,l),
(486,1118,l),
(494,1118,l),
(308,0,l),
(712,0,l),
(960,1490,l)
);
}
);
width = 878;
},
{
layerId = "B1F27B51-9973-4381-9301-4FE46FE1CA59";
shapes = (
{
closed = 1;
nodes = (
(456,1490,l),
(146,1282,l),
(146,1228,l),
(466,1440,l),
(474,1440,l),
(474,0,l),
(520,0,l),
(520,1490,l)
);
}
);
width = 752;
},
{
layerId = "200BE2C5-40F6-4CF4-AF4F-A33C0CC0964F";
shapes = (
{
closed = 1;
nodes = (
(610,1490,l),
(264,1282,l),
(256,1228,l),
(610,1440,l),
(620,1440,l),
(382,0,l),
(428,0,l),
(674,1490,l)
);
}
);
width = 752;
}
);
metricRight = H;
tags = (
"TODO-opsz"
);
unicode = 49;
}
{
color = (227,245,235,1);
glyphname = two;
kernLeft = two;
kernRight = two;
layers = (
{
anchors = (
{
name = cross;
pos = (792,768);
}
);
background = {
shapes = (
{
pos = (-24,0);
ref = three;
}
);
};
layerId = "C698F293-3EC0-4A5A-A3A0-0FDB1F5CF265";
shapes = (
{
closed = 1;
nodes = (
(1046,0,l),
(1046,160,l),
(354,160,l),
(354,172,l),
(688,530,ls),
(944,804,o),
(1020,932,o),
(1020,1096,cs),
(1020,1327,o),
(833,1510,o),
(572,1510,cs),
(311,1510,o),
(112,1332,o),
(112,1070,c),
(284,1070,l),
(284,1240,o),
(393,1352,o),
(566,1352,cs),
(727,1352,o),
(850,1254,o),
(850,1096,cs),
(850,959,o),
(769,858,o),
(598,670,cs),
(106,130,l),
(106,0,l)
);
}
);
width = 1144;
},
{
anchors = (
{
name = cross;
pos = (872,818);
}
);
guides = (
{
pos = (-160,2280);
},
{
pos = (-160,764);
}
);
layerId = "5C20EF92-B63D-42A8-8878-93C2863E0093";
shapes = (
{
closed = 1;
nodes = (
(1218,0,l),
(1218,322,l),
(636,322,l),
(636,332,l),
(776,448,ls),
(1117,730,o),
(1202,878,o),
(1202,1050,cs),
(1202,1328,o),
(975,1510,o),
(618,1510,cs),
(271,1510,o),
(46,1317,o),
(46,1004,c),
(430,1004,l),
(430,1129,o),
(505,1198,o),
(618,1198,cs),
(729,1198,o),
(808,1129,o),
(808,1016,cs),
(808,910,o),
(740,841,o),
(630,750,cs),
(74,290,l),
(74,0,l)
);
}
);
width = 1276;
},
{
anchors = (
{
name = cross;
pos = (814,768);
}
);
layerId = "11F4534A-B963-4AB5-820F-DAF9A20CD933";
shapes = (
{
closed = 1;
nodes = (
(952,0,l),
(978,160,l),
(286,160,l),
(290,172,l),
(682,530,ls),
(983,804,o),
(1081,931,o),
(1110,1096,cs),
(1148,1327,o),
(996,1510,o),
(734,1510,cs),
(473,1510,o),
(240,1332,o),
(196,1070,c),
(368,1070,l),
(397,1239,o),
(531,1353,o),
(702,1352,cs),
(865,1353,o),
(967,1254,o),
(942,1096,cs),
(918,960,o),
(819,858,o),
(616,670,cs),
(36,130,l),
(14,0,l)
);
}
);
width = 1144;
},
{
anchors = (
{
name = cross;
pos = (916,818);
}
);
guides = (
{
pos = (2632,2280);
},
{
pos = (-126,764);
}
);
layerId = "D0EC06BF-13F9-4C88-A6F5-B8203AF6C77E";
shapes = (
{
closed = 1;
nodes = (
(1126,0,l),
(1178,322,l),
(598,322,l),
(598,332,l),
(758,448,ls),
(1144,732,o),
(1255,879,o),
(1284,1050,cs),
(1331,1328,o),
(1132,1510,o),
(774,1510,cs),
(428,1510,o),
(171,1318,o),
(118,1004,c),
(502,1004,l),
(523,1129,o),
(612,1199,o),
(724,1198,cs),
(834,1199,o),
(903,1130,o),
(884,1016,cs),
(866,911,o),
(788,841,o),
(662,750,cs),
(30,290,l),
(-18,0,l)
);
}
);
width = 1276;
},
{
anchors = (
{
name = cross;
pos = (814,744);
}
);
layerId = "B1F27B51-9973-4381-9301-4FE46FE1CA59";
shapes = (
{
closed = 1;
nodes = (
(1088,0,l),
(1088,46,l),
(262,46,l),
(262,52,l),
(702,574,ls),
(930,844,o),
(1000,961,o),
(1000,1126,cs),
(1000,1347,o),
(835,1510,o),
(610,1510,cs),
(378,1510,o),
(216,1333,o),
(216,1118,c),
(262,1118,l),
(262,1307,o),
(404,1464,o),
(610,1464,cs),
(809,1464,o),
(954,1321,o),
(954,1126,cs),
(954,977,o),
(890,867,o),
(666,602,cs),
(190,38,l),
(190,0,l)
);
}
);
width = 1272;
},
{
anchors = (
{
name = cross;
pos = (846,744);
}
);
layerId = "200BE2C5-40F6-4CF4-AF4F-A33C0CC0964F";
shapes = (
{
closed = 1;
nodes = (
(994,0,l),
(1004,46,l),
(178,46,l),
(178,52,l),
(704,574,ls),
(977,844,o),
(1068,960,o),
(1094,1126,cs),
(1132,1347,o),
(992,1510,o),
(768,1510,cs),
(535,1510,o),
(343,1332,o),
(308,1118,c),
(354,1118,l),
(387,1306,o),
(561,1463,o),
(768,1464,cs),
(966,1463,o),
(1079,1321,o),
(1048,1126,cs),
(1024,977,o),
(943,867,o),
(672,602,cs),
(102,38,l),
(96,0,l)
);
}
);
width = 1272;
},
{
anchors = (
{
name = cross;
pos = (806,738);
}
);
associatedMasterId = "B1F27B51-9973-4381-9301-4FE46FE1CA59";
background = {
shapes = (
{
closed = 1;
nodes = (
(1094,0,l),
(1094,160,l),
(402,160,l),
(402,172,l),
(736,530,ls),
(992,804,o),
(1068,932,o),
(1068,1096,cs),
(1068,1327,o),
(881,1510,o),
(620,1510,cs),
(359,1510,o),
(160,1332,o),
(160,1070,c),
(332,1070,l),
(332,1240,o),
(441,1353,o),
(614,1352,cs),
(775,1353,o),
(899,1254,o),
(898,1096,cs),
(899,959,o),
(818,857,o),
(646,670,cs),
(154,130,l),
(154,0,l)
);
}
);
};
layerId = "B7995463-B533-426C-8A81-27353796E349";
name = "Dec 25 18, 17:25";
shapes = (
{
closed = 0;
nodes = (
(244,1096,l),
(245,1329,o),
(399,1486,o),
(616,1486,c),
(828,1486,o),
(983,1333,o),
(984,1126,c),
(983,960,o),
(904,836,o),
(690,588,c),
(212,24,l),
(1094,24,l)
);
}
);
width = 1170;
}
);
tags = (
"TODO-opsz"
);
unicode = 50;
}
{
color = (227,245,235,1);
glyphname = three;
kernLeft = three;
kernRight = eight;
layers = (
{
background = {
shapes = (
{
pos = (32,0);
ref = eight;
}
);
};
layerId = "C698F293-3EC0-4A5A-A3A0-0FDB1F5CF265";
shapes = (
{
closed = 1;
nodes = (
(898,-20,o),
(1112,161,o),
(1112,404,cs),
(1112,593,o),
(1001,731,o),
(814,762,c),
(814,774,l),
(964,820,o),
(1058,943,o),
(1058,1112,cs),
(1058,1322,o),
(891,1510,o),
(616,1510,cs),
(358,1510,o),
(144,1351,o),
(136,1118,c),
(310,1118,l),
(316,1265,o),
(457,1352,o),
(612,1352,cs),
(777,1352,o),
(882,1253,o),
(882,1102,cs),
(882,945,o),
(760,844,o),
(584,844,cs),
(464,844,l),
(464,684,l),
(584,684,ls),
(809,684,o),
(936,569,o),
(936,404,cs),
(936,247,o),
(798,140,o),
(606,140,cs),
(434,140,o),
(297,228,o),
(286,372,c),
(104,372,l),
(114,138,o),
(321,-20,o),
(610,-20,cs)
);
}
);
width = 1208;
},
{
layerId = "5C20EF92-B63D-42A8-8878-93C2863E0093";
shapes = (
{
closed = 1;
nodes = (
(1021,-20,o),
(1276,165,o),
(1276,428,cs),
(1276,610,o),
(1156,739,o),
(916,766,c),
(916,776,l),
(1093,796,o),
(1222,910,o),
(1222,1076,cs),
(1222,1327,o),
(990,1510,o),
(660,1510,cs),
(322,1510,o),
(80,1317,o),
(80,1044,c),
(468,1044,l),
(468,1135,o),
(548,1198,o),
(660,1198,cs),
(761,1198,o),
(832,1137,o),
(832,1050,cs),
(832,960,o),
(748,896,o),
(628,896,cs),
(476,896,l),
(476,616,l),
(628,616,ls),
(759,616,o),
(848,553,o),
(848,462,cs),
(848,370,o),
(772,306,o),
(660,306,cs),
(543,306,o),
(458,367,o),
(458,454,c),
(52,454,l),
(52,176,o),
(304,-20,o),
(656,-20,cs)
);
}
);
width = 1334;
},
{
layerId = "11F4534A-B963-4AB5-820F-DAF9A20CD933";
shapes = (
{
closed = 1;
nodes = (
(815,-20,o),
(1042,139,o),
(1084,392,cs),
(1115,581,o),
(1028,730,o),
(846,762,c),
(846,770,l),
(1001,818,o),
(1119,936,o),
(1144,1100,cs),
(1180,1315,o),
(1041,1510,o),
(760,1510,cs),
(508,1510,o),
(273,1350,o),
(228,1118,c),
(402,1118,l),
(431,1265,o),
(594,1353,o),
(752,1352,cs),
(916,1353,o),
(997,1257,o),
(974,1114,cs),
(946,950,o),
(801,844,o),
(624,844,cs),
(510,844,l),
(484,684,l),
(606,684,ls),
(834,684,o),
(932,571,o),
(910,416,cs),
(883,242,o),
(713,140,o),
(526,140,cs),
(349,140,o),
(241,230,o),
(254,372,c),
(74,372,l),
(44,137,o),
(231,-20,o),
(522,-20,cs)
);
}
);
width = 1208;
},
{
guides = (
{
pos = (936,2280);
},
{
pos = (-64,764);
}
);
layerId = "D0EC06BF-13F9-4C88-A6F5-B8203AF6C77E";
shapes = (
{
closed = 1;
nodes = (
(933,-20,o),
(1213,163,o),
(1254,408,cs),
(1284,598,o),
(1156,740,o),
(944,766,c),
(944,776,l),
(1138,793,o),
(1276,881,o),
(1306,1056,cs),
(1345,1300,o),
(1145,1510,o),
(806,1510,cs),
(479,1510,o),
(210,1317,o),
(166,1044,c),
(550,1044,l),
(562,1135,o),
(673,1199,o),
(784,1198,cs),
(887,1199,o),
(932,1148,o),
(918,1070,cs),
(902,970,o),
(801,896,o),
(678,896,cs),
(534,896,l),
(488,616,l),
(648,616,ls),
(771,617,o),
(855,575,o),
(840,482,cs),
(825,393,o),
(729,305,o),
(604,306,cs),
(499,305,o),
(425,367,o),
(442,454,c),
(40,454,l),
(-8,176,o),
(217,-20,o),
(582,-20,cs)
);
}
);
width = 1334;
},
{
associatedMasterId = "C698F293-3EC0-4A5A-A3A0-0FDB1F5CF265";
layerId = "AF98C4F5-295E-4E97-8B96-A27C316CE04C";
name = "Sep 23 18, 16:20";
shapes = (
{
closed = 1;
nodes = (
(884,-20,o),
(1085,152,o),
(1086,396,cs),
(1085,567,o),
(966,698,o),
(800,754,c),
(800,766,l),
(951,811,o),
(1053,942,o),
(1054,1106,cs),
(1053,1343,o),
(870,1510,o),
(606,1510,cs),
(348,1510,o),
(166,1351,o),
(166,1118,c),
(340,1118,l),
(340,1265,o),
(447,1353,o),
(602,1352,cs),
(764,1353,o),
(879,1257,o),
(878,1102,cs),
(879,945,o),
(761,838,o),
(584,838,cs),
(500,838,l),
(500,672,l),
(584,672,ls),
(767,672,o),
(908,560,o),
(908,396,cs),
(908,238,o),
(775,140,o),
(606,140,cs),
(446,140,o),
(337,226,o),
(338,372,c),
(152,372,l),
(151,134,o),
(330,-20,o),
(600,-20,cs)
);
}
);
width = 1228;
},
{
associatedMasterId = "11F4534A-B963-4AB5-820F-DAF9A20CD933";
layerId = "13E57C55-4418-4EA5-AB4C-FFA60C92562E";
name = "Sep 23 18, 16:27";
shapes = (
{
closed = 1;
nodes = (
(791,-20,o),
(1012,132,o),
(1056,384,cs),
(1084,558,o),
(996,695,o),
(826,750,c),
(830,762,l),
(993,809,o),
(1112,937,o),
(1140,1094,cs),
(1180,1333,o),
(1020,1510,o),
(750,1510,cs),
(498,1510,o),
(295,1354,o),
(258,1118,c),
(430,1118,l),
(455,1268,o),
(586,1361,o),
(748,1358,cs),
(903,1356,o),
(993,1264,o),
(968,1114,cs),
(945,951,o),
(801,838,o),
(626,838,cs),
(544,838,l),
(518,672,l),
(608,672,ls),
(816,672,o),
(910,573,o),
(884,410,cs),
(855,243,o),
(724,143,o),
(542,142,cs),
(361,143,o),
(280,238,o),
(300,372,c),
(122,372,l),
(81,143,o),
(248,-20,o),
(524,-20,cs)
);
}
);
width = 1224;
},
{
layerId = "B1F27B51-9973-4381-9301-4FE46FE1CA59";
shapes = (
{
closed = 1;
nodes = (
(895,-20,o),
(1076,158,o),
(1076,386,cs),
(1076,576,o),
(951,719,o),
(756,768,c),
(756,774,l),
(925,822,o),
(1033,954,o),
(1032,1128,cs),
(1033,1347,o),
(865,1510,o),
(632,1510,cs),
(397,1510,o),
(227,1347,o),
(226,1118,c),
(274,1118,l),
(273,1321,o),
(423,1463,o),
(632,1464,cs),
(841,1463,o),
(986,1320,o),
(986,1128,cs),
(986,922,o),
(814,791,o),
(590,792,cs),
(568,792,l),
(568,744,l),
(590,744,ls),
(845,745,o),
(1030,601,o),
(1030,386,cs),
(1030,188,o),
(871,26,o),
(634,26,cs),
(411,26,o),
(239,172,o),
(238,372,c),
(192,372,l),
(192,145,o),
(383,-20,o),
(634,-20,cs)
);
}
);
width = 1256;
},
{
layerId = "200BE2C5-40F6-4CF4-AF4F-A33C0CC0964F";
shapes = (
{
closed = 1;
nodes = (
(800,-20,o),
(1009,157,o),
(1048,386,cs),
(1079,576,o),
(977,719,o),
(792,768,c),
(792,774,l),
(969,823,o),
(1100,954,o),
(1126,1128,cs),
(1164,1347,o),
(1024,1510,o),
(788,1510,cs),
(556,1510,o),
(358,1347,o),
(320,1118,c),
(366,1118,l),
(399,1321,o),
(585,1463,o),
(792,1464,cs),
(1004,1463,o),
(1111,1321,o),
(1080,1128,cs),
(1047,922,o),
(852,791,o),
(628,792,cs),
(606,792,l),
(600,744,l),
(622,744,ls),
(876,745,o),
(1036,602,o),
(1000,386,cs),
(969,189,o),
(774,26,o),
(538,26,cs),
(314,26,o),
(175,172,o),
(206,372,c),
(160,372,l),
(122,145,o),
(288,-20,o),
(538,-20,cs)
);
}
);
width = 1256;
},
{
associatedMasterId = "B1F27B51-9973-4381-9301-4FE46FE1CA59";
background = {
shapes = (
{
closed = 1;
nodes = (
(946,-20,o),
(1161,161,o),
(1160,404,cs),
(1161,593,o),
(1049,731,o),
(862,762,c),
(862,774,l),
(1012,820,o),
(1105,943,o),
(1106,1112,cs),
(1105,1322,o),
(939,1510,o),
(664,1510,cs),
(406,1510,o),
(192,1351,o),
(184,1118,c),
(358,1118,l),
(364,1265,o),
(505,1353,o),
(660,1352,cs),
(825,1353,o),
(931,1253,o),
(930,1102,cs),
(931,945,o),
(808,844,o),
(632,844,cs),
(512,844,l),
(512,684,l),
(632,684,ls),
(857,684,o),
(983,569,o),
(984,404,cs),
(983,247,o),
(846,140,o),
(654,140,cs),
(482,140,o),
(345,228,o),
(334,372,c),
(152,372,l),
(162,138,o),
(369,-20,o),
(658,-20,cs)
);
}
);
};
layerId = "28ACB353-9A8E-4DD7-BCA4-EE6AE891814C";
name = "Dec 25 18, 17:44";
shapes = (
{
closed = 0;
nodes = (
(206,372,l),
(207,156,o),
(383,3,o),
(626,2,cs),
(873,3,o),
(1044,172,o),
(1044,386,cs),
(1044,620,o),
(841,768,o),
(558,768,c),
(817,768,o),
(1001,910,o),
(1000,1128,cs),
(1001,1331,o),
(846,1487,o),
(622,1486,cs),
(401,1487,o),
(241,1334,o),
(242,1118,cs)
);
}
);
width = 1256;
}
);
tags = (
"TODO-opsz"
);
unicode = 51;
}
{
color = (227,245,235,1);
glyphname = four;
kernLeft = four;
kernRight = four;
layers = (
{
layerId = "C698F293-3EC0-4A5A-A3A0-0FDB1F5CF265";
shapes = (
{
closed = 1;
nodes = (
(1148,306,l),
(1148,466,l),
(266,466,l),
(266,478,l),
(760,1260,l),
(834,1260,l),
(834,1490,l),
(726,1490,l),
(72,454,l),
(72,306,l)
);
},
{
closed = 1;
nodes = (
(944,0,l),
(944,1490,l),
(772,1490,l),
(772,420,l),
(772,350,l),
(772,0,l)
);
}
);
width = 1218;
},
{
background = {
shapes = (
{
pos = (-28,0);
ref = A;
}
);
};
guides = (
{
pos = (-40,320);
},
{
pos = (-40,752);
}
);
layerId = "5C20EF92-B63D-42A8-8878-93C2863E0093";
shapes = (
{
closed = 1;
nodes = (
(1344,232,l),
(1344,546,l),
(458,546,l),
(458,558,l),
(782,1070,l),
(944,1070,l),
(944,1490,l),
(660,1490,l),
(60,546,l),
(60,232,l)
);
},
{
closed = 1;
nodes = (
(1172,0,l),
(1172,1490,l),
(794,1490,l),
(794,466,l),
(784,328,l),
(784,0,l)
);
}
);
width = 1390;
},
{
layerId = "11F4534A-B963-4AB5-820F-DAF9A20CD933";
shapes = (
{
closed = 1;
nodes = (
(1106,306,l),
(1134,466,l),
(252,466,l),
(252,478,l),
(878,1260,l),
(950,1260,l),
(988,1490,l),
(880,1490,l),
(54,454,l),
(30,306,l)
);
},
{
closed = 1;
nodes = (
(850,0,l),
(1098,1490,l),
(926,1490,l),
(750,418,l),
(738,352,l),
(680,0,l)
);
}
);
width = 1218;
},
{
guides = (
{
pos = (512,1240);
},
{
pos = (116,896);
}
);
layerId = "D0EC06BF-13F9-4C88-A6F5-B8203AF6C77E";
shapes = (
{
closed = 1;
nodes = (
(1288,232,l),
(1340,546,l),
(456,546,l),
(458,558,l),
(866,1070,l),
(1030,1070,l),
(1098,1490,l),
(814,1490,l),
(58,546,l),
(6,232,l)
);
},
{
closed = 1;
nodes = (
(1078,0,l),
(1326,1490,l),
(948,1490,l),
(778,466,l),
(746,328,l),
(692,0,l)
);
}
);
width = 1390;
},
{
layerId = "B1F27B51-9973-4381-9301-4FE46FE1CA59";
shapes = (
{
closed = 1;
nodes = (
(1068,350,l),
(1068,396,l),
(218,396,l),
(218,402,l),
(830,1394,l),
(864,1394,l),
(864,1490,l),
(834,1490,l),
(152,384,l),
(152,350,l)
);
},
{
closed = 1;
nodes = (
(882,0,l),
(882,1490,l),
(834,1490,l),
(834,378,l),
(834,364,l),
(834,0,l)
);
}
);
width = 1218;
},
{
layerId = "200BE2C5-40F6-4CF4-AF4F-A33C0CC0964F";
shapes = (
{
closed = 1;
nodes = (
(1032,350,l),
(1042,396,l),
(192,396,l),
(192,402,l),
(968,1394,l),
(1004,1394,l),
(1018,1490,l),
(990,1490,l),
(122,384,l),
(116,350,l)
);
},
{
closed = 1;
nodes = (
(788,0,l),
(1036,1490,l),
(990,1490,l),
(806,378,l),
(802,364,l),
(742,0,l)
);
}
);
width = 1218;
}
);
tags = (
"TODO-opsz"
);
unicode = 52;
}
{
color = (227,245,235,1);
glyphname = five;
layers = (
{
guides = (
{
angle = 90;
pos = (1344,1656);
}
);
layerId = "B1F27B51-9973-4381-9301-4FE46FE1CA59";
shapes = (
{
closed = 1;
nodes = (
(822,-20,o),
(1006,186,o),
(1006,462,cs),
(1006,751,o),
(801,940,o),
(562,940,cs),
(442,940,o),
(342,895,o),
(268,826,c),
(262,826,l),
(338,1442,l),
(958,1442,l),
(958,1490,l),
(296,1490,l),
(210,786,l),
(280,774,l),
(348,844,o),
(444,894,o),
(562,894,cs),
(775,894,o),
(960,727,o),
(960,462,cs),
(960,215,o),
(799,26,o),
(564,26,cs),
(356,26,o),
(218,169,o),
(218,372,c),
(172,372,l),
(172,143,o),
(333,-20,o),
(564,-20,cs)
);
}
);
width = 1154;
},
{
associatedMasterId = "B1F27B51-9973-4381-9301-4FE46FE1CA59";
background = {
shapes = (
{
ref = three;
}
);
};
layerId = "09E68E1A-3F35-4777-BBE6-FD6C89765C56";
name = "Dec 27 18, 11:55";
shapes = (
{
closed = 0;
nodes = (
(206,318,l),
(220,136,o),
(378,4,o),
(582,2,c),
(816,4,o),
(987,179,o),
(986,416,c),
(987,659,o),
(817,837,o),
(584,838,c),
(489,838,o),
(388,804,o),
(326,756,c),
(238,768,l),
(308,1466,l),
(1006,1466,l)
);
}
);
width = 1170;
},
{
associatedMasterId = "B1F27B51-9973-4381-9301-4FE46FE1CA59";
background = {
shapes = (
{
ref = three;
}
);
};
layerId = "838CDDB9-573F-41EC-B215-16E0F2F00A69";
name = "Dec 27 18, 11:59";
shapes = (
{
closed = 1;
nodes = (
(296,1490,l),
(210,748,l),
(322,734,l),
(328,780,l),
(262,788,l),
(338,1442,l),
(1006,1442,l),
(1006,1490,l)
);
},
{
closed = 0;
nodes = (
(216,372,l),
(215,186,o),
(367,3,o),
(584,2,cs),
(812,3,o),
(1004,200,o),
(1004,446,cs),
(1004,689,o),
(816,887,o),
(582,888,cs),
(465,887,o),
(360,839,o),
(282,760,c)
);
}
);
width = 1170;
},
{
associatedMasterId = "B1F27B51-9973-4381-9301-4FE46FE1CA59";
background = {
shapes = (
{
ref = three;
}
);
};
guides = (
{
angle = 90;
pos = (1344,1656);
}
);
layerId = "5BB78558-3F9F-4EEB-9ED3-3B587D72683E";
name = "Dec 27 18, 12:06";
shapes = (
{
closed = 1;
nodes = (
(314,1490,l),
(226,786,l),
(300,774,l),
(290,820,l),
(280,826,l),
(354,1442,l),
(978,1442,l),
(978,1490,l)
);
},
{
closed = 1;
nodes = (
(369,844,o),
(466,893,o),
(582,894,cs),
(796,893,o),
(980,727,o),
(980,462,cs),
(980,214,o),
(820,26,o),
(584,26,cs),
(379,26,o),
(239,169,o),
(238,372,c),
(192,372,l),
(192,143,o),
(353,-20,o),
(584,-20,cs),
(842,-20,o),
(1027,187,o),
(1026,462,cs),
(1027,749,o),
(822,940,o),
(582,940,cs),
(452,940,o),
(341,884,o),
(264,806,c),
(300,774,l)
);
}
);
width = 1170;
},
{
background = {
shapes = (
{
ref = three;
}
);
};
guides = (
{
angle = 90;
pos = (1340,1656);
}
);
layerId = "C698F293-3EC0-4A5A-A3A0-0FDB1F5CF265";
shapes = (
{
closed = 1;
nodes = (
(855,-20,o),
(1064,189,o),
(1064,474,cs),
(1064,763,o),
(863,974,o),
(590,974,cs),
(489,974,o),
(391,939,o),
(330,890,c),
(322,890,l),
(374,1330,l),
(996,1330,l),
(996,1490,l),
(222,1490,l),
(132,756,l),
(302,736,l),
(363,780,o),
(468,812,o),
(560,812,cs),
(750,812,o),
(888,666,o),
(888,472,cs),
(888,280,o),
(755,140,o),
(572,140,cs),
(419,140,o),
(297,238,o),
(284,372,c),
(110,372,l),
(120,145,o),
(316,-20,o),
(572,-20,cs)
);
}
);
width = 1138;
},
{
background = {
shapes = (
{
pos = (28,0);
ref = three;
}
);
};
guides = (
{
pos = (-196,2280);
},
{
pos = (-196,2396);
}
);
layerId = "5C20EF92-B63D-42A8-8878-93C2863E0093";
shapes = (
{
closed = 1;
nodes = (
(1034,-20,o),
(1270,200,o),
(1270,512,cs),
(1270,795,o),
(1073,994,o),
(808,994,cs),
(657,994,o),
(535,928,o),
(488,838,c),
(480,838,l),
(508,1166,l),
(1178,1166,l),
(1178,1490,l),
(176,1490,l),
(118,670,l),
(474,600,l),
(508,672,o),
(585,716,o),
(672,716,cs),
(795,716,o),
(880,631,o),
(880,500,cs),
(880,370,o),
(795,286,o),
(672,286,cs),
(564,286,o),
(474,351,o),
(474,454,c),
(80,454,l),
(83,176,o),
(328,-20,o),
(672,-20,cs)
);
}
);
width = 1336;
},
{
layerId = "200BE2C5-40F6-4CF4-AF4F-A33C0CC0964F";
shapes = (
{
closed = 1;
nodes = (
(726,-20,o),
(943,186,o),
(992,462,cs),
(1043,750,o),
(865,940,o),
(626,940,cs),
(505,940,o),
(397,896,o),
(312,826,c),
(306,826,l),
(482,1442,l),
(1102,1442,l),
(1112,1490,l),
(450,1490,l),
(248,786,l),
(314,774,l),
(394,844,o),
(508,893,o),
(626,894,cs),
(839,893,o),
(988,727,o),
(946,462,cs),
(906,217,o),
(700,26,o),
(468,26,cs),
(260,26,o),
(153,169,o),
(186,372,c),
(140,372,l),
(100,143,o),
(237,-20,o),
(468,-20,cs)
);
}
);
width = 1156;
},
{
layerId = "11F4534A-B963-4AB5-820F-DAF9A20CD933";
shapes = (
{
closed = 1;
nodes = (
(761,-20,o),
(1002,189,o),
(1048,474,cs),
(1098,762,o),
(932,975,o),
(658,974,cs),
(557,975,o),
(455,940,o),
(386,890,c),
(376,890,l),
(502,1330,l),
(1124,1330,l),
(1150,1490,l),
(376,1490,l),
(164,756,l),
(330,736,l),
(400,780,o),
(511,812,o),
(600,812,cs),
(793,812,o),
(906,666,o),
(874,472,cs),
(842,279,o),
(685,140,o),
(502,140,cs),
(351,140,o),
(243,239,o),
(252,372,c),
(78,372,l),
(51,145,o),
(220,-20,o),
(476,-20,cs)
);
}
);
width = 1136;
},
{
guides = (
{
pos = (2716,2280);
},
{
pos = (2928,2396);
},
{
angle = 90;
pos = (-1116,0);
}
);
layerId = "D0EC06BF-13F9-4C88-A6F5-B8203AF6C77E";
shapes = (
{
closed = 1;
nodes = (
(940,-20,o),
(1213,201,o),
(1262,512,cs),
(1309,794,o),
(1146,995,o),
(880,994,cs),
(730,995,o),
(596,928,o),
(534,838,c),
(526,838,l),
(610,1166,l),
(1280,1166,l),
(1332,1490,l),
(330,1490,l),
(136,670,l),
(480,600,l),
(527,672,o),
(611,716,o),
(698,716,cs),
(820,716,o),
(893,631,o),
(872,500,cs),
(849,369,o),
(751,285,o),
(624,286,cs),
(518,285,o),
(442,352,o),
(456,454,c),
(64,454,l),
(20,177,o),
(233,-20,o),
(576,-20,cs)
);
}
);
width = 1336;
}
);
metricRight = zero;
tags = (
"TODO-opsz"
);
unicode = 53;
}
{
color = (227,245,235,1);
glyphname = six;
kernLeft = six;
layers = (
{
layerId = "B1F27B51-9973-4381-9301-4FE46FE1CA59";
shapes = (
{
closed = 1;
nodes = (
(840,-20,o),
(1009,198,o),
(1008,446,cs),
(1009,710,o),
(815,911,o),
(582,910,cs),
(409,911,o),
(247,803,o),
(200,654,c),
(194,654,l),
(194,1177,o),
(333,1463,o),
(604,1464,cs),
(800,1463,o),
(922,1321,o),
(936,1118,c),
(982,1118,l),
(968,1350,o),
(826,1510,o),
(604,1510,cs),
(246,1510,o),
(148,1076,o),
(148,674,cs),
(148,207,o),
(337,-20,o),
(590,-20,cs)
);
},
{
closed = 1;
nodes = (
(406,26,o),
(267,163,o),
(218,424,cs),
(174,658,o),
(351,864,o),
(578,864,cs),
(794,864,o),
(962,681,o),
(962,446,cs),
(962,215,o),
(805,26,o),
(590,26,cs)
);
}
);
width = 1156;
},
{
associatedMasterId = "B1F27B51-9973-4381-9301-4FE46FE1CA59";
background = {
shapes = (
{
closed = 1;
nodes = (
(823,745,o),
(1007,911,o),
(1006,1118,cs),
(1007,1323,o),
(823,1489,o),
(596,1490,cs),
(370,1489,o),
(186,1323,o),
(186,1118,cs),
(186,911,o),
(370,745,o),
(596,744,cs)
);
},
{
closed = 1;
nodes = (
(821,3,o),
(1004,201,o),
(1004,446,cs),
(1004,689,o),
(821,887,o),
(596,888,cs),
(372,887,o),
(189,689,o),
(190,446,cs),
(189,201,o),
(372,3,o),
(596,2,cs)
);
}
);
};
layerId = "9E406D40-9CB5-4845-B6DF-1B5201BAD6B0";
name = "Dec 27 18, 12:24";
shapes = (
{
closed = 0;
nodes = (
(190,446,l),
(189,690,o),
(372,887,o),
(596,888,cs),
(820,887,o),
(1004,689,o),
(1004,446,cs),
(1004,201,o),
(822,3,o),
(608,2,cs),
(391,3,o),
(189,182,o),
(190,674,cs),
(189,1326,o),
(402,1489,o),
(628,1490,cs),
(855,1489,o),
(1007,1324,o),
(1006,1118,c)
);
}
);
width = 1202;
},
{
associatedMasterId = "B1F27B51-9973-4381-9301-4FE46FE1CA59";
layerId = "0A5B7C9A-23F7-43E2-98D1-18F90204FF01";
name = "Dec 27 18, 12:33";
shapes = (
{
closed = 1;
nodes = (
(987,1349,o),
(844,1513,o),
(622,1512,cs),
(260,1513,o),
(166,1076,o),
(166,674,cs),
(166,206,o),
(354,-20,o),
(608,-20,cs),
(857,-20,o),
(1027,197,o),
(1026,446,cs),
(1027,708,o),
(836,911,o),
(596,910,cs),
(343,911,o),
(155,684,o),
(190,416,c),
(236,416,l),
(201,658,o),
(369,864,o),
(596,864,cs),
(812,864,o),
(980,681,o),
(980,446,cs),
(980,215,o),
(823,26,o),
(608,26,cs),
(368,26,o),
(212,255,o),
(212,674,cs),
(212,1025,o),
(284,1466,o),
(622,1466,cs),
(817,1466,o),
(940,1321,o),
(954,1118,c),
(1000,1118,l)
);
},
{
closed = 1;
nodes = (
(200,620,l),
(230,620,l),
(230,652,l),
(200,652,l)
);
}
);
width = 1202;
},
{
layerId = "C698F293-3EC0-4A5A-A3A0-0FDB1F5CF265";
shapes = (
{
closed = 1;
nodes = (
(894,-20,o),
(1090,203,o),
(1090,480,cs),
(1090,768,o),
(877,974,o),
(622,974,cs),
(468,974,o),
(337,900,o),
(256,776,c),
(244,776,l),
(244,1140,o),
(385,1350,o),
(616,1350,cs),
(773,1350,o),
(868,1251,o),
(902,1118,c),
(1078,1118,l),
(1042,1348,o),
(866,1510,o),
(616,1510,cs),
(281,1510,o),
(74,1213,o),
(74,686,cs),
(74,136,o),
(348,-20,o),
(592,-20,cs)
);
},
{
closed = 1;
nodes = (
(406,140,o),
(270,299,o),
(270,478,cs),
(270,655,o),
(414,814,o),
(598,814,cs),
(781,814,o),
(916,665,o),
(916,480,cs),
(916,291,o),
(775,140,o),
(592,140,cs)
);
}
);
width = 1164;
},
{
background = {
shapes = (
{
pos = (58,0);
ref = five;
}
);
};
layerId = "5C20EF92-B63D-42A8-8878-93C2863E0093";
shapes = (
{
closed = 1;
nodes = (
(1063,-20,o),
(1308,191,o),
(1308,512,cs),
(1308,785,o),
(1127,984,o),
(856,984,cs),
(687,984,o),
(533,902,o),
(476,766,c),
(468,766,l),
(468,1006,o),
(544,1166,o),
(714,1166,cs),
(799,1166,o),
(874,1129,o),
(892,1044,c),
(1290,1044,l),
(1265,1299,o),
(1043,1510,o),
(714,1510,cs),
(324,1510,o),
(66,1210,o),
(66,728,cs),
(66,186,o),
(364,-20,o),
(712,-20,cs)
);
},
{
closed = 1;
nodes = (
(591,286,o),
(502,375,o),
(502,498,cs),
(502,620,o),
(591,710,o),
(708,710,cs),
(829,710,o),
(916,620,o),
(916,498,cs),
(916,375,o),
(829,286,o),
(708,286,cs)
);
}
);
width = 1374;
},
{
layerId = "200BE2C5-40F6-4CF4-AF4F-A33C0CC0964F";
shapes = (
{
closed = 1;
nodes = (
(743,-20,o),
(947,198,o),
(991,446,cs),
(1034,710,o),
(874,911,o),
(639,910,cs),
(467,911,o),
(286,803,o),
(213,654,c),
(207,654,l),
(295,1178,o),
(490,1463,o),
(763,1464,cs),
(958,1463,o),
(1046,1321,o),
(1029,1118,c),
(1075,1118,l),
(1098,1350,o),
(982,1510,o),
(761,1510,cs),
(400,1510,o),
(231,1076,o),
(167,674,cs),
(89,207,o),
(240,-20,o),
(493,-20,cs)
);
},
{
closed = 1;
nodes = (
(307,26,o),
(199,163,o),
(193,424,cs),
(190,657,o),
(409,864,o),
(635,864,cs),
(851,864,o),
(982,681,o),
(943,446,cs),
(903,215,o),
(708,26,o),
(493,26,cs)
);
}
);
width = 1158;
},
{
layerId = "11F4534A-B963-4AB5-820F-DAF9A20CD933";
shapes = (
{
closed = 1;
nodes = (
(803,-23,o),
(1028,198,o),
(1075,468,cs),
(1124,762,o),
(941,975,o),
(679,974,cs),
(528,975,o),
(391,905,o),
(289,782,c),
(277,770,l),
(342,1149,o),
(527,1350,o),
(757,1350,cs),
(916,1350,o),
(991,1253,o),
(997,1118,c),
(1167,1118,l),
(1171,1350,o),
(1010,1510,o),
(763,1510,cs),
(432,1510,o),
(184,1219,o),
(97,698,cs),
(4,143,o),
(257,-18,o),
(507,-20,cs)
);
},
{
closed = 1;
nodes = (
(330,140,o),
(225,294,o),
(255,466,cs),
(283,649,o),
(461,815,o),
(649,814,cs),
(827,815,o),
(932,669,o),
(903,492,cs),
(871,297,o),
(699,140,o),
(513,140,cs)
);
}
);
width = 1164;
},
{
guides = (
{
pos = (285,1240);
},
{
pos = (-159,568);
}
);
layerId = "D0EC06BF-13F9-4C88-A6F5-B8203AF6C77E";
shapes = (
{
closed = 1;
nodes = (
(974,-20,o),
(1244,180,o),
(1295,492,cs),
(1343,774,o),
(1189,983,o),
(911,984,cs),
(747,983,o),
(587,911,o),
(507,774,c),
(495,754,l),
(540,995,o),
(654,1167,o),
(829,1166,cs),
(909,1167,o),
(975,1134,o),
(975,1048,c),
(1367,1048,l),
(1384,1303,o),
(1188,1510,o),
(855,1510,cs),
(473,1510,o),
(177,1222,o),
(97,748,cs),
(4,198,o),
(276,-20,o),
(631,-20,cs)
);
},
{
closed = 1;
nodes = (
(535,285,o),
(470,359,o),
(487,478,cs),
(508,612,o),
(622,710,o),
(749,710,cs),
(862,710,o),
(926,631,o),
(909,518,cs),
(891,384,o),
(776,285,o),
(647,286,cs)
);
}
);
width = 1372;
}
);
metricLeft = zero;
metricRight = zero;
tags = (
"TODO-opsz"
);
unicode = 54;
}
{
color = (227,245,235,1);
glyphname = seven;
kernRight = seven;
layers = (
{
layerId = "C698F293-3EC0-4A5A-A3A0-0FDB1F5CF265";
shapes = (
{
closed = 1;
nodes = (
(342,0,l),
(1006,1320,l),
(1006,1490,l),
(50,1490,l),
(50,1330,l),
(818,1330,l),
(818,1318,l),
(152,0,l)
);
}
);
width = 1056;
},
{
background = {
shapes = (
{
closed = 1;
nodes = (
(358,0,l),
(1022,1320,l),
(1022,1490,l),
(66,1490,l),
(66,1330,l),
(834,1330,l),
(834,1318,l),
(168,0,l)
);
}
);
};
layerId = "5C20EF92-B63D-42A8-8878-93C2863E0093";
shapes = (
{
closed = 1;
nodes = (
(558,0,l),
(1146,1166,l),
(1146,1490,l),
(40,1490,l),
(40,1166,l),
(726,1166,l),
(726,1158,l),
(142,0,l)
);
}
);
width = 1178;
},
{
layerId = "11F4534A-B963-4AB5-820F-DAF9A20CD933";
shapes = (
{
closed = 1;
nodes = (
(248,0,l),
(1130,1320,l),
(1160,1490,l),
(206,1490,l),
(178,1330,l),
(946,1330,l),
(944,1318,l),
(60,0,l)
);
}
);
width = 1056;
},
{
layerId = "D0EC06BF-13F9-4C88-A6F5-B8203AF6C77E";
shapes = (
{
closed = 1;
nodes = (
(464,0,l),
(1248,1166,l),
(1300,1490,l),
(194,1490,l),
(142,1166,l),
(828,1166,l),
(826,1158,l),
(48,0,l)
);
}
);
width = 1178;
},
{
layerId = "B1F27B51-9973-4381-9301-4FE46FE1CA59";
shapes = (
{
closed = 1;
nodes = (
(276,0,l),
(984,1442,l),
(984,1490,l),
(120,1490,l),
(120,1442,l),
(928,1442,l),
(928,1438,l),
(224,0,l)
);
}
);
width = 1110;
},
{
layerId = "200BE2C5-40F6-4CF4-AF4F-A33C0CC0964F";
shapes = (
{
closed = 1;
nodes = (
(184,0,l),
(1128,1442,l),
(1138,1490,l),
(274,1490,l),
(264,1442,l),
(1074,1442,l),
(1074,1438,l),
(130,0,l)
);
}
);
width = 1108;
}
);
metricRight = "=|T";
tags = (
"TODO-opsz"
);
unicode = 55;
}
{
color = (227,245,235,1);
glyphname = eight;
kernLeft = eight;
kernRight = eight;
layers = (
{
layerId = "C698F293-3EC0-4A5A-A3A0-0FDB1F5CF265";
shapes = (
{
closed = 1;
nodes = (
(877,-20,o),
(1086,153,o),
(1086,396,cs),
(1086,584,o),
(958,744,o),
(798,774,c),
(798,782,l),
(937,819,o),
(1030,956,o),
(1030,1114,cs),
(1030,1341,o),
(838,1510,o),
(580,1510,cs),
(317,1510,o),
(128,1341,o),
(128,1114,cs),
(128,956,o),
(219,819,o),
(362,782,c),
(362,774,l),
(197,744,o),
(74,584,o),
(74,396,cs),
(74,153,o),
(279,-20,o),
(580,-20,cs)
);
},
{
closed = 1;
nodes = (
(375,140,o),
(250,244,o),
(250,404,cs),
(250,572,o),
(388,692,o),
(580,692,cs),
(768,692,o),
(908,572,o),
(908,404,cs),
(908,244,o),
(781,140,o),
(580,140,cs)
);
},
{
closed = 1;
nodes = (
(416,846,o),
(302,948,o),
(302,1102,cs),
(302,1254,o),
(412,1352,o),
(580,1352,cs),
(744,1352,o),
(856,1254,o),
(856,1102,cs),
(856,948,o),
(739,846,o),
(580,846,cs)
);
}
);
width = 1160;
},
{
guides = (
{
pos = (-160,1480);
},
{
pos = (-160,2076);
}
);
layerId = "5C20EF92-B63D-42A8-8878-93C2863E0093";
shapes = (
{
closed = 1;
nodes = (
(1052,-20,o),
(1316,163,o),
(1316,404,cs),
(1316,588,o),
(1161,736,o),
(970,766,c),
(970,776,l),
(1137,806,o),
(1262,939,o),
(1262,1106,cs),
(1262,1338,o),
(1020,1510,o),
(690,1510,cs),
(362,1510,o),
(120,1339,o),
(120,1106,cs),
(120,940,o),
(242,806,o),
(412,776,c),
(412,766,l),
(217,736,o),
(66,588,o),
(66,404,cs),
(66,163,o),
(330,-20,o),
(690,-20,cs)
);
},
{
closed = 1;
nodes = (
(577,258,o),
(494,336,o),
(494,440,cs),
(494,543,o),
(577,616,o),
(690,616,cs),
(805,616,o),
(888,542,o),
(888,440,cs),
(888,335,o),
(805,258,o),
(690,258,cs)
);
},
{
closed = 1;
nodes = (
(590,896,o),
(516,966,o),
(516,1058,cs),
(516,1152,o),
(590,1218,o),
(690,1218,cs),
(792,1218,o),
(866,1151,o),
(866,1058,cs),
(866,965,o),
(792,896,o),
(690,896,cs)
);
}
);
width = 1382;
},
{
layerId = "11F4534A-B963-4AB5-820F-DAF9A20CD933";
shapes = (
{
closed = 1;
nodes = (
(788,-20,o),
(1019,146,o),
(1059,384,cs),
(1092,577,o),
(987,742,o),
(829,774,c),
(829,780,l),
(972,815,o),
(1095,937,o),
(1123,1102,cs),
(1163,1335,o),
(992,1510,o),
(727,1510,cs),
(472,1510,o),
(267,1351,o),
(225,1126,cs),
(193,963,o),
(256,817,o),
(393,780,c),
(393,774,l),
(227,745,o),
(80,591,o),
(49,408,cs),
(9,164,o),
(192,-20,o),
(497,-20,cs)
);
},
{
closed = 1;
nodes = (
(307,140,o),
(203,236,o),
(227,392,cs),
(255,567,o),
(419,692,o),
(615,692,cs),
(798,692,o),
(914,582,o),
(887,416,cs),
(862,250,o),
(714,140,o),
(503,140,cs)
);
},
{
closed = 1;
nodes = (
(465,847,o),
(368,938,o),
(393,1090,cs),
(419,1248,o),
(549,1353,o),
(725,1352,cs),
(887,1353,o),
(979,1265,o),
(951,1114,cs),
(924,956,o),
(790,847,o),
(621,846,cs)
);
}
);
width = 1162;
},
{
guides = (
{
pos = (404,1240);
},
{
pos = (-64,764);
}
);
layerId = "D0EC06BF-13F9-4C88-A6F5-B8203AF6C77E";
shapes = (
{
closed = 1;
nodes = (
(957,-20,o),
(1251,164,o),
(1292,404,cs),
(1323,589,o),
(1194,736,o),
(1006,766,c),
(1006,776,l),
(1182,806,o),
(1325,939,o),
(1352,1106,cs),
(1389,1337,o),
(1178,1510,o),
(850,1510,cs),
(520,1510,o),
(250,1339,o),
(212,1106,cs),
(186,940,o),
(286,806,o),
(448,776,c),
(448,766,l),
(251,736,o),
(72,587,o),
(40,404,cs),
(-1,162,o),
(236,-20,o),
(596,-20,cs)
);
},
{
closed = 1;
nodes = (
(530,259,o),
(456,335,o),
(474,440,cs),
(491,542,o),
(586,617,o),
(700,616,cs),
(816,617,o),
(887,543,o),
(870,440,cs),
(852,337,o),
(757,259,o),
(642,258,cs)
);
},
{
closed = 1;
nodes = (
(645,896,o),
(583,966,o),
(598,1058,cs),
(615,1152,o),
(702,1219,o),
(802,1218,cs),
(903,1219,o),
(964,1153,o),
(948,1058,cs),
(932,967,o),
(849,896,o),
(748,896,cs)
);
}
);
width = 1384;
},
{
associatedMasterId = "5C20EF92-B63D-42A8-8878-93C2863E0093";
background = {
shapes = (
{
closed = 1;
nodes = (
(73,166,o),
(329,-20,o),
(692,-20,cs),
(698,-20,l),
(704,-20,ls),
(1068,-20,o),
(1324,166,o),
(1324,428,cs),
(1324,611,o),
(1201,739,o),
(962,766,c),
(962,776,l),
(1129,794,o),
(1251,896,o),
(1266,1044,c),
(1268,1044,l),
(1268,1062,l),
(1268,1076,ls),
(1268,1327,o),
(1036,1510,o),
(706,1510,cs),
(698,1510,l),
(690,1510,ls),
(361,1510,o),
(128,1327,o),
(128,1076,cs),
(128,1062,l),
(128,1044,l),
(130,1044,l),
(145,896,o),
(268,794,o),
(434,776,c),
(434,766,l),
(195,739,o),
(73,611,o),
(72,428,cs)
);
},
{
closed = 1;
nodes = (
(500,547,o),
(582,608,o),
(698,616,c),
(815,608,o),
(896,547,o),
(896,462,cs),
(896,454,l),
(890,454,l),
(890,369,o),
(812,308,o),
(698,306,c),
(585,308,o),
(506,369,o),
(506,454,c),
(500,454,l),
(500,462,ls)
);
},
{
closed = 1;
nodes = (
(518,1071,o),
(521,1088,o),
(530,1106,cs),
(556,1161,o),
(617,1196,o),
(698,1198,c),
(780,1196,o),
(841,1161,o),
(866,1106,cs),
(876,1088,o),
(879,1071,o),
(878,1050,cs),
(879,966,o),
(806,905,o),
(698,896,c),
(591,905,o),
(518,966,o),
(518,1050,cs)
);
}
);
};
guides = (
{
pos = (-36,1480);
},
{
pos = (-36,1060);
},
{
pos = (196,588);
},
{
pos = (-36,2076);
},
{
orientation = center;
angle = 90;
pos = (996,508);
}
);
layerId = "0529D95E-C2D1-421A-B897-35690538E92C";
name = "Sep 20 18, 18:25";
shapes = (
{
closed = 1;
nodes = (
(1059,-20,o),
(1324,157,o),
(1324,398,cs),
(1324,646,o),
(1116,800,o),
(698,800,cs),
(280,800,o),
(73,646,o),
(72,398,cs),
(73,157,o),
(337,-20,o),
(698,-20,cs)
);
},
{
closed = 1;
nodes = (
(584,259,o),
(500,335,o),
(500,440,cs),
(500,542,o),
(584,617,o),
(698,616,cs),
(812,617,o),
(896,542,o),
(896,440,cs),
(896,335,o),
(812,259,o),
(698,258,cs)
);
},
{
closed = 1;
nodes = (
(597,896,o),
(524,965,o),
(524,1058,cs),
(524,1151,o),
(597,1219,o),
(698,1218,cs),
(799,1219,o),
(873,1151,o),
(872,1058,cs),
(873,965,o),
(799,896,o),
(698,896,cs)
);
},
{
closed = 1;
nodes = (
(1100,736,o),
(1268,880,o),
(1268,1076,cs),
(1268,1324,o),
(1041,1510,o),
(698,1510,cs),
(355,1510,o),
(128,1324,o),
(128,1076,cs),
(128,880,o),
(297,736,o),
(698,736,cs)
);
}
);
width = 1396;
},
{
associatedMasterId = "C698F293-3EC0-4A5A-A3A0-0FDB1F5CF265";
guides = (
{
orientation = center;
angle = 90;
pos = (912,568);
}
);
layerId = "55E72F0F-9EC8-457B-96D9-84C2391F29D1";
name = "Sep 20 18, 18:59";
shapes = (
{
closed = 1;
nodes = (
(915,-20,o),
(1129,156,o),
(1128,396,cs),
(1129,637,o),
(915,815,o),
(622,814,cs),
(330,815,o),
(116,637,o),
(116,396,cs),
(116,156,o),
(330,-20,o),
(622,-20,cs)
);
},
{
closed = 1;
nodes = (
(431,140,o),
(294,248,o),
(294,402,cs),
(294,572,o),
(433,692,o),
(622,692,cs),
(812,692,o),
(951,572,o),
(952,402,cs),
(951,248,o),
(815,140,o),
(622,140,cs)
);
},
{
closed = 1;
nodes = (
(883,739,o),
(1073,879,o),
(1074,1108,cs),
(1073,1340,o),
(883,1510,o),
(622,1510,cs),
(362,1510,o),
(172,1340,o),
(172,1108,cs),
(172,879,o),
(362,739,o),
(622,738,cs)
);
},
{
closed = 1;
nodes = (
(463,858,o),
(346,963,o),
(346,1106,cs),
(346,1248,o),
(463,1353,o),
(622,1352,cs),
(782,1353,o),
(899,1248,o),
(898,1106,cs),
(899,963,o),
(782,858,o),
(622,858,cs)
);
}
);
width = 1246;
},
{
layerId = "B1F27B51-9973-4381-9301-4FE46FE1CA59";
shapes = (
{
closed = 1;
nodes = (
(867,-20,o),
(1073,160,o),
(1074,384,cs),
(1073,561,o),
(942,728,o),
(760,768,c),
(760,774,l),
(916,826,o),
(1024,969,o),
(1024,1132,cs),
(1024,1345,o),
(836,1510,o),
(610,1510,cs),
(382,1510,o),
(198,1343,o),
(198,1132,cs),
(198,968,o),
(308,827,o),
(462,774,c),
(462,768,l),
(279,726,o),
(148,561,o),
(148,384,cs),
(148,160,o),
(355,-20,o),
(610,-20,cs)
);
},
{
closed = 1;
nodes = (
(379,26,o),
(195,189,o),
(194,386,cs),
(195,585,o),
(378,748,o),
(610,748,cs),
(843,748,o),
(1027,585,o),
(1026,386,cs),
(1027,189,o),
(843,26,o),
(610,26,cs)
);
},
{
closed = 1;
nodes = (
(409,788,o),
(244,946,o),
(244,1132,cs),
(244,1318,o),
(409,1463,o),
(610,1464,cs),
(812,1463,o),
(977,1318,o),
(978,1132,cs),
(977,946,o),
(812,788,o),
(610,788,cs)
);
}
);
width = 1222;
},
{
layerId = "200BE2C5-40F6-4CF4-AF4F-A33C0CC0964F";
shapes = (
{
closed = 1;
nodes = (
(770,-20,o),
(1005,160,o),
(1043,384,cs),
(1072,561,o),
(970,727,o),
(793,768,c),
(793,774,l),
(959,826,o),
(1090,969,o),
(1119,1132,cs),
(1154,1344,o),
(994,1510,o),
(767,1510,cs),
(540,1510,o),
(328,1344,o),
(293,1132,cs),
(264,969,o),
(351,826,o),
(497,774,c),
(497,768,l),
(307,727,o),
(147,561,o),
(119,384,cs),
(80,160,o),
(258,-20,o),
(513,-20,cs)
);
},
{
closed = 1;
nodes = (
(278,26,o),
(133,189,o),
(165,386,cs),
(197,585,o),
(424,748,o),
(657,748,cs),
(889,748,o),
(1029,585,o),
(997,386,cs),
(965,189,o),
(744,26,o),
(511,26,cs)
);
},
{
closed = 1;
nodes = (
(435,788,o),
(307,945,o),
(339,1132,cs),
(368,1318,o),
(569,1463,o),
(769,1464,cs),
(973,1463,o),
(1101,1318,o),
(1073,1132,cs),
(1040,945,o),
(837,788,o),
(635,788,cs)
);
}
);
width = 1220;
},
{
associatedMasterId = "B1F27B51-9973-4381-9301-4FE46FE1CA59";
background = {
shapes = (
{
closed = 1;
nodes = (
(891,-20,o),
(1097,153,o),
(1100,396,cs),
(1101,583,o),
(972,743,o),
(812,774,c),
(812,782,l),
(951,818,o),
(1043,955,o),
(1044,1114,cs),
(1047,1340,o),
(852,1509,o),
(594,1510,cs),
(332,1511,o),
(142,1340,o),
(142,1114,cs),
(143,955,o),
(233,818,o),
(376,782,c),
(376,774,l),
(212,743,o),
(86,583,o),
(88,396,cs),
(89,153,o),
(293,-21,o),
(594,-20,cs)
);
},
{
closed = 1;
nodes = (
(389,140,o),
(263,244,o),
(264,404,cs),
(266,572,o),
(402,692,o),
(594,692,cs),
(782,693,o),
(921,572,o),
(922,404,cs),
(924,244,o),
(795,139,o),
(594,140,cs)
);
},
{
closed = 1;
nodes = (
(431,847,o),
(316,948,o),
(318,1102,cs),
(319,1253,o),
(426,1352,o),
(594,1352,cs),
(758,1353,o),
(868,1253,o),
(870,1102,cs),
(871,948,o),
(753,846,o),
(594,846,cs)
);
},
{
closed = 1;
nodes = (
(809,769,o),
(983,928,o),
(984,1128,cs),
(983,1325,o),
(809,1486,o),
(594,1486,cs),
(378,1487,o),
(204,1325,o),
(204,1128,cs),
(204,928,o),
(378,767,o),
(594,768,cs)
);
},
{
closed = 1;
nodes = (
(836,4,o),
(1033,174,o),
(1032,386,cs),
(1033,596,o),
(836,767,o),
(594,768,cs),
(351,768,o),
(154,596,o),
(154,386,cs),
(154,174,o),
(351,3,o),
(594,2,cs)
);
}
);
};
layerId = "0731E66A-26BA-4BAF-9F98-AF7EB4311F62";
name = "Dec 27 18, 13:07";
shapes = (
{
closed = 1;
nodes = (
(809,772,o),
(983,931,o),
(984,1132,cs),
(983,1326,o),
(809,1486,o),
(594,1486,cs),
(378,1487,o),
(204,1326,o),
(204,1132,cs),
(204,931,o),
(378,771,o),
(594,770,cs)
);
},
{
closed = 1;
nodes = (
(836,4,o),
(1033,173,o),
(1032,384,cs),
(1033,593,o),
(836,764,o),
(594,766,cs),
(351,765,o),
(154,593,o),
(154,384,cs),
(154,173,o),
(351,3,o),
(594,2,cs)
);
}
);
width = 1186;
},
{
associatedMasterId = "B1F27B51-9973-4381-9301-4FE46FE1CA59";
background = {
shapes = (
{
closed = 1;
nodes = (
(891,-20,o),
(1097,153,o),
(1100,396,cs),
(1101,583,o),
(972,743,o),
(812,774,c),
(812,782,l),
(951,818,o),
(1043,955,o),
(1044,1114,cs),
(1047,1340,o),
(852,1509,o),
(594,1510,cs),
(332,1511,o),
(142,1340,o),
(142,1114,cs),
(143,955,o),
(233,818,o),
(376,782,c),
(376,774,l),
(212,743,o),
(86,583,o),
(88,396,cs),
(89,153,o),
(293,-21,o),
(594,-20,cs)
);
},
{
closed = 1;
nodes = (
(389,140,o),
(263,244,o),
(264,404,cs),
(266,572,o),
(402,692,o),
(594,692,cs),
(782,693,o),
(921,572,o),
(922,404,cs),
(924,244,o),
(795,139,o),
(594,140,cs)
);
},
{
closed = 1;
nodes = (
(431,847,o),
(316,948,o),
(318,1102,cs),
(319,1253,o),
(426,1352,o),
(594,1352,cs),
(758,1353,o),
(868,1253,o),
(870,1102,cs),
(871,948,o),
(753,846,o),
(594,846,cs)
);
},
{
closed = 1;
nodes = (
(809,769,o),
(983,928,o),
(984,1128,cs),
(983,1325,o),
(809,1486,o),
(594,1486,cs),
(378,1487,o),
(204,1325,o),
(204,1128,cs),
(204,928,o),
(378,767,o),
(594,768,cs)
);
},
{
closed = 1;
nodes = (
(836,4,o),
(1033,174,o),
(1032,386,cs),
(1033,596,o),
(836,767,o),
(594,768,cs),
(351,768,o),
(154,596,o),
(154,386,cs),
(154,174,o),
(351,3,o),
(594,2,cs)
);
}
);
};
layerId = "099996E5-6893-4918-AB65-52D8E36273B3";
name = "Dec 27 18, 13:09";
shapes = (
{
closed = 1;
nodes = (
(823,749,o),
(1007,919,o),
(1006,1132,cs),
(1007,1340,o),
(821,1509,o),
(594,1510,cs),
(367,1511,o),
(180,1340,o),
(180,1132,cs),
(180,919,o),
(364,748,o),
(594,748,cs)
);
},
{
closed = 1;
nodes = (
(399,788,o),
(227,940,o),
(226,1128,cs),
(227,1313,o),
(392,1464,o),
(594,1464,cs),
(796,1463,o),
(960,1312,o),
(960,1128,cs),
(960,941,o),
(789,788,o),
(594,788,cs)
);
},
{
closed = 1;
nodes = (
(850,-19,o),
(1056,161,o),
(1056,384,cs),
(1056,607,o),
(849,787,o),
(594,788,cs),
(339,790,o),
(131,607,o),
(130,384,cs),
(131,160,o),
(337,-20,o),
(594,-20,cs)
);
},
{
closed = 1;
nodes = (
(363,26,o),
(177,188,o),
(178,386,cs),
(177,585,o),
(361,749,o),
(594,748,cs),
(826,746,o),
(1009,585,o),
(1010,386,cs),
(1009,188,o),
(825,28,o),
(594,26,cs)
);
},
{
closed = 1;
nodes = (
(446,762,l),
(738,762,l),
(738,776,l),
(446,776,l)
);
}
);
width = 1186;
}
);
metricLeft = zero;
metricRight = zero;
note = "essentially two conjoined \"three\" glyphs";
tags = (
"TODO-opsz"
);
unicode = 56;
}
{
color = (227,245,235,1);
glyphname = nine;
kernRight = nine;
layers = (
{
layerId = "C698F293-3EC0-4A5A-A3A0-0FDB1F5CF265";
shapes = (
{
closed = 1;
nodes = (
(270,1513,o),
(75,1286,o),
(74,1012,cs),
(75,724,o),
(287,518,o),
(544,518,cs),
(697,518,o),
(828,593,o),
(910,716,c),
(922,716,l),
(921,349,o),
(779,140,o),
(550,140,cs),
(392,140,o),
(296,239,o),
(264,376,c),
(86,376,l),
(121,140,o),
(299,-20,o),
(550,-20,cs),
(884,-20,o),
(1090,276,o),
(1090,806,cs),
(1090,1353,o),
(817,1507,o),
(572,1510,cs)
);
},
{
closed = 1;
nodes = (
(759,1350,o),
(895,1190,o),
(896,1016,cs),
(895,838,o),
(750,678,o),
(566,678,cs),
(383,678,o),
(249,826,o),
(250,1012,cs),
(249,1199,o),
(389,1350,o),
(572,1350,cs)
);
}
);
width = 1164;
},
{
guides = (
{
pos = (-126,764);
},
{
pos = (-126,1240);
}
);
layerId = "5C20EF92-B63D-42A8-8878-93C2863E0093";
shapes = (
{
closed = 1;
nodes = (
(311,1514,o),
(66,1299,o),
(66,978,cs),
(66,705,o),
(247,506,o),
(518,506,cs),
(687,506,o),
(841,588,o),
(898,724,c),
(906,724,l),
(906,484,o),
(830,320,o),
(660,320,cs),
(575,320,o),
(500,361,o),
(482,446,c),
(84,446,l),
(109,191,o),
(331,-24,o),
(660,-24,cs),
(1050,-24,o),
(1308,280,o),
(1308,762,cs),
(1308,1304,o),
(1010,1514,o),
(662,1514,cs)
);
},
{
closed = 1;
nodes = (
(785,1204,o),
(872,1114,o),
(872,992,cs),
(872,870,o),
(785,780,o),
(666,780,cs),
(546,780,o),
(458,869,o),
(458,992,cs),
(458,1114,o),
(547,1204,o),
(666,1204,cs)
);
}
);
width = 1374;
},
{
layerId = "11F4534A-B963-4AB5-820F-DAF9A20CD933";
shapes = (
{
closed = 1;
nodes = (
(421,1513,o),
(197,1295,o),
(151,1024,cs),
(101,730,o),
(284,518,o),
(547,518,cs),
(697,518,o),
(834,588,o),
(935,710,c),
(947,722,l),
(884,340,o),
(697,140,o),
(467,140,cs),
(308,140,o),
(235,236,o),
(229,376,c),
(57,376,l),
(54,140,o),
(214,-20,o),
(461,-20,cs),
(793,-20,o),
(1041,271,o),
(1127,794,cs),
(1221,1350,o),
(968,1507,o),
(717,1510,cs)
);
},
{
closed = 1;
nodes = (
(895,1350,o),
(1000,1199,o),
(971,1026,cs),
(942,844,o),
(764,678,o),
(575,678,cs),
(398,678,o),
(293,823,o),
(323,1000,cs),
(354,1196,o),
(526,1350,o),
(711,1350,cs)
);
}
);
width = 1162;
},
{
background = {
shapes = (
{
closed = 1;
nodes = (
(485,1516,o),
(215,1315,o),
(163,1004,cs),
(116,721,o),
(270,512,o),
(547,512,cs),
(712,512,o),
(872,585,o),
(951,722,c),
(963,742,l),
(919,495,o),
(805,323,o),
(629,322,cs),
(549,323,o),
(482,355,o),
(483,448,c),
(91,448,l),
(75,186,o),
(270,-20,o),
(603,-20,cs),
(986,-20,o),
(1282,268,o),
(1361,748,cs),
(1454,1297,o),
(1183,1516,o),
(827,1516,cs)
);
},
{
closed = 1;
nodes = (
(924,1210,o),
(988,1135,o),
(971,1018,cs),
(951,884,o),
(837,785,o),
(709,786,cs),
(596,785,o),
(532,864,o),
(549,978,cs),
(567,1111,o),
(683,1210,o),
(811,1210,cs)
);
}
);
};
guides = (
{
pos = (-33,764);
},
{
pos = (123,1240);
}
);
layerId = "D0EC06BF-13F9-4C88-A6F5-B8203AF6C77E";
shapes = (
{
closed = 1;
nodes = (
(461,1510,o),
(191,1309,o),
(139,1000,cs),
(92,721,o),
(246,512,o),
(523,512,cs),
(688,512,o),
(848,585,o),
(927,722,c),
(939,742,l),
(895,495,o),
(781,323,o),
(605,322,cs),
(525,323,o),
(458,355,o),
(459,448,c),
(67,448,l),
(51,186,o),
(246,-20,o),
(579,-20,cs),
(962,-20,o),
(1257,268,o),
(1337,748,cs),
(1430,1292,o),
(1159,1510,o),
(803,1510,cs)
);
},
{
closed = 1;
nodes = (
(900,1204,o),
(964,1129,o),
(947,1016,cs),
(928,884,o),
(813,785,o),
(685,786,cs),
(572,785,o),
(511,863,o),
(525,974,cs),
(543,1105,o),
(659,1204,o),
(787,1204,cs)
);
}
);
width = 1372;
},
{
layerId = "B1F27B51-9973-4381-9301-4FE46FE1CA59";
shapes = (
{
closed = 1;
nodes = (
(317,1510,o),
(148,1295,o),
(148,1048,cs),
(148,783,o),
(340,582,o),
(576,582,cs),
(747,582,o),
(910,689,o),
(956,838,c),
(962,838,l),
(962,314,o),
(823,26,o),
(552,26,cs),
(357,26,o),
(235,172,o),
(220,376,c),
(174,376,l),
(189,143,o),
(331,-20,o),
(552,-20,cs),
(913,-20,o),
(1009,416,o),
(1008,818,cs),
(1009,1286,o),
(820,1510,o),
(566,1510,cs)
);
},
{
closed = 1;
nodes = (
(750,1463,o),
(890,1329,o),
(940,1068,cs),
(983,835,o),
(805,628,o),
(578,628,cs),
(363,628,o),
(194,812,o),
(194,1048,cs),
(194,1277,o),
(351,1463,o),
(566,1464,cs)
);
}
);
width = 1156;
},
{
layerId = "200BE2C5-40F6-4CF4-AF4F-A33C0CC0964F";
shapes = (
{
closed = 1;
nodes = (
(476,1510,o),
(272,1295,o),
(229,1048,cs),
(182,783,o),
(345,582,o),
(581,582,cs),
(752,582,o),
(932,689,o),
(1005,838,c),
(1011,838,l),
(924,314,o),
(729,26,o),
(455,26,cs),
(260,26,o),
(173,172,o),
(191,376,c),
(143,376,l),
(121,143,o),
(237,-20,o),
(459,-20,cs),
(819,-20,o),
(988,416,o),
(1051,818,cs),
(1126,1287,o),
(979,1510,o),
(725,1510,cs)
);
},
{
closed = 1;
nodes = (
(912,1463,o),
(1020,1329,o),
(1025,1068,cs),
(1030,835,o),
(810,628,o),
(583,628,cs),
(368,628,o),
(237,812,o),
(275,1048,cs),
(312,1278,o),
(510,1463,o),
(725,1464,cs)
);
}
);
width = 1156;
}
);
metricLeft = zero;
metricRight = zero;
note = "six mirrored";
tags = (
"TODO-opsz"
);
unicode = 57;
}
{
glyphname = semicolon;
kernLeft = colon;
kernRight = colon;
layers = (
{
guides = (
{
name = "Colon1 center";
pos = (-96,928);
}
);
layerId = "C698F293-3EC0-4A5A-A3A0-0FDB1F5CF265";
shapes = (
{
alignment = -1;
ref = comma;
},
{
pos = (28,809);
ref = period;
}
);
width = 514;
},
{
guides = (
{
angle = 90;
pos = (248,1118);
},
{
name = "Colon1 center";
pos = (-144,864);
}
);
layerId = "5C20EF92-B63D-42A8-8878-93C2863E0093";
shapes = (
{
alignment = -1;
ref = comma;
},
{
pos = (10,685);
ref = period;
}
);
width = 726;
},
{
background = {
shapes = (
{
closed = 1;
nodes = (
(109,-354,l),
(356,208,l),
(158,208,l),
(-23,-354,l)
);
},
{
closed = 1;
nodes = (
(430,797,o),
(499,856,o),
(511,928,cs),
(523,1000,o),
(474,1059,o),
(402,1059,cs),
(330,1059,o),
(261,1000,o),
(249,928,cs),
(237,856,o),
(286,797,o),
(358,797,cs)
);
}
);
};
guides = (
{
angle = 80.6;
pos = (178,287);
}
);
layerId = "11F4534A-B963-4AB5-820F-DAF9A20CD933";
shapes = (
{
alignment = -1;
ref = comma;
},
{
pos = (160,809);
ref = period;
}
);
width = 516;
},
{
background = {
shapes = (
{
closed = 1;
nodes = (
(209,-426,l),
(527,240,l),
(147,240,l),
(-51,-426,l)
);
},
{
closed = 1;
nodes = (
(526,661,o),
(629,748,o),
(648,864,cs),
(668,980,o),
(593,1067,o),
(476,1067,cs),
(359,1067,o),
(256,980,o),
(236,864,cs),
(217,748,o),
(292,661,o),
(409,661,cs)
);
}
);
};
guides = (
{
angle = 80.6;
pos = (299,287);
}
);
layerId = "D0EC06BF-13F9-4C88-A6F5-B8203AF6C77E";
shapes = (
{
alignment = -1;
ref = comma;
},
{
pos = (121,685);
ref = period;
}
);
width = 730;
},
{
guides = (
{
name = "Colon1 center";
pos = (0,1008);
},
{
angle = 90;
pos = (285,287);
}
);
layerId = "B1F27B51-9973-4381-9301-4FE46FE1CA59";
shapes = (
{
alignment = -1;
ref = comma;
},
{
alignment = -1;
pos = (8,964);
ref = period;
}
);
width = 562;
},
{
background = {
shapes = (
{
closed = 1;
nodes = (
(59,-298,l),
(243,152,l),
(193,152,l),
(18,-298,l)
);
},
{
closed = 1;
nodes = (
(380,955,o),
(408,979,o),
(412,1008,cs),
(417,1037,o),
(397,1061,o),
(368,1061,cs),
(339,1061,o),
(311,1037,o),
(306,1008,cs),
(302,979,o),
(322,955,o),
(351,955,cs)
);
}
);
};
guides = (
{
angle = 80.6;
pos = (240,287);
}
);
layerId = "200BE2C5-40F6-4CF4-AF4F-A33C0CC0964F";
shapes = (
{
alignment = -1;
ref = comma;
},
{
alignment = -1;
pos = (168,964);
ref = period;
}
);
width = 562;
}
);
metricLeft = comma;
metricRight = period;
tags = (
"TODO-opsz"
);
unicode = 59;
userData = {
"interface.width-adjustments" = (
-16
);
};
}
{
color = (204,240,242,1);
glyphname = less;
layers = (
{
guides = (
{
pos = (1200,1616);
},
{
pos = (172,800);
}
);
layerId = "C698F293-3EC0-4A5A-A3A0-0FDB1F5CF265";
shapes = (
{
closed = 1;
nodes = (
(1096,46,l),
(1096,232,l),
(376,578,l),
(382,568,l),
(382,596,l),
(376,584,l),
(1096,930,l),
(1096,1118,l),
(158,640,l),
(158,524,l)
);
}
);
width = 1254;
},
{
associatedMasterId = "C698F293-3EC0-4A5A-A3A0-0FDB1F5CF265";
background = {
shapes = (
{
closed = 1;
nodes = (
(646,116,l),
(806,116,l),
(806,1094,l),
(646,1094,l)
);
}
);
};
guides = (
{
pos = (1060,176);
},
{
pos = (1296,1616);
},
{
pos = (256,832);
}
);
layerId = "2DACB510-E67E-4127-A295-62EC37F1A42C";
name = "recipe 1";
shapes = (
{
closed = 1;
nodes = (
(168,664,l),
(242,538,l),
(1106,954,l),
(1106,1140,l)
);
},
{
closed = 1;
nodes = (
(168,546,l),
(286,546,l),
(286,664,l),
(168,664,l)
);
},
{
closed = 1;
nodes = (
(1106,256,l),
(242,672,l),
(168,546,l),
(1106,70,l)
);
},
{
closed = 1;
nodes = (
(300,596,l),
(392,596,l),
(392,614,l),
(300,614,l)
);
}
);
width = 1330;
},
{
associatedMasterId = "C698F293-3EC0-4A5A-A3A0-0FDB1F5CF265";
guides = (
{
angle = 41.9872;
pos = (256,896);
},
{
angle = 318.0498;
pos = (256,896);
},
{
pos = (1060,176);
},
{
pos = (1296,1616);
},
{
pos = (256,896);
}
);
layerId = "BEE623A7-E3DC-4EB0-A534-F8B717154E56";
name = "Nov 24 18, 10:38";
shapes = (
{
closed = 1;
nodes = (
(332,648,l),
(332,654,l),
(792,1064,l),
(678,1176,l),
(96,652,l),
(678,128,l),
(792,238,l)
);
}
);
width = 942;
},
{
guides = (
{
pos = (172,800);
}
);
layerId = "11F4534A-B963-4AB5-820F-DAF9A20CD933";
shapes = (
{
closed = 1;
nodes = (
(1010,46,l),
(1042,232,l),
(378,578,l),
(384,568,l),
(386,596,l),
(382,584,l),
(1158,930,l),
(1186,1118,l),
(172,640,l),
(152,524,l)
);
}
);
width = 1254;
},
{
associatedMasterId = "11F4534A-B963-4AB5-820F-DAF9A20CD933";
guides = (
{
angle = 41.9872;
pos = (320,896);
},
{
angle = 318.0498;
pos = (320,896);
},
{
pos = (764,176);
},
{
pos = (1716,1616);
},
{
pos = (320,896);
}
);
layerId = "EF43BAE6-FFF7-42F6-8EF1-6FA5FACED43C";
name = "Sep 11 18, 20:42";
shapes = (
{
closed = 1;
nodes = (
(346,648,l),
(346,654,l),
(876,1064,l),
(780,1176,l),
(110,652,l),
(606,128,l),
(738,238,l)
);
}
);
width = 942;
},
{
background = {
guides = (
{
orientation = center;
pos = (408,832);
}
);
shapes = (
{
closed = 1;
nodes = (
(646,24,l),
(972,24,l),
(972,1094,l),
(646,1094,l)
);
}
);
};
guides = (
{
orientation = center;
pos = (-3202,832);
}
);
layerId = "5C20EF92-B63D-42A8-8878-93C2863E0093";
shapes = (
{
closed = 1;
nodes = (
(1226,-2,l),
(1226,364,l),
(538,602,l),
(550,584,l),
(550,626,l),
(538,608,l),
(1226,846,l),
(1226,1214,l),
(144,780,l),
(144,430,l)
);
}
);
width = 1372;
},
{
guides = (
{
pos = (428,1240);
},
{
pos = (344,896);
},
{
angle = 90;
pos = (1844,1620);
}
);
layerId = "D0EC06BF-13F9-4C88-A6F5-B8203AF6C77E";
shapes = (
{
closed = 1;
nodes = (
(1134,-2,l),
(1194,364,l),
(544,602,l),
(552,584,l),
(560,626,l),
(546,608,l),
(1274,846,l),
(1334,1214,l),
(182,780,l),
(124,430,l)
);
}
);
width = 1372;
},
{
associatedMasterId = "5C20EF92-B63D-42A8-8878-93C2863E0093";
guides = (
{
pos = (12,1240);
},
{
pos = (268,896);
},
{
angle = 90;
pos = (1048,1620);
}
);
layerId = "C60C402B-F6E4-41D5-9289-ACC0313E7250";
name = "Nov 24 18, 10:58";
shapes = (
{
closed = 1;
nodes = (
(538,648,l),
(538,654,l),
(922,974,l),
(696,1178,l),
(82,652,l),
(696,126,l),
(922,328,l)
);
}
);
width = 1022;
},
{
associatedMasterId = "5C20EF92-B63D-42A8-8878-93C2863E0093";
background = {
guides = (
{
orientation = center;
pos = (408,832);
}
);
shapes = (
{
closed = 1;
nodes = (
(646,24,l),
(972,24,l),
(972,1094,l),
(646,1094,l)
);
}
);
};
guides = (
{
orientation = center;
pos = (408,832);
}
);
layerId = "323ECA97-198F-4297-957F-EC3DABE1457E";
name = "recipe 1";
shapes = (
{
closed = 1;
nodes = (
(148,780,l),
(264,524,l),
(1230,818,l),
(1230,1214,l)
);
},
{
closed = 1;
nodes = (
(148,430,l),
(364,430,l),
(364,780,l),
(148,780,l)
);
},
{
closed = 1;
nodes = (
(500,594,l),
(552,594,l),
(552,616,l),
(500,616,l)
);
},
{
closed = 1;
nodes = (
(1230,392,l),
(264,686,l),
(148,430,l),
(1230,-2,l)
);
}
);
width = 1420;
},
{
guides = (
{
orientation = center;
pos = (268,800);
}
);
layerId = "B1F27B51-9973-4381-9301-4FE46FE1CA59";
shapes = (
{
closed = 1;
nodes = (
(1050,40,l),
(1050,96,l),
(296,584,l),
(306,570,l),
(306,594,l),
(296,578,l),
(1050,1068,l),
(1050,1122,l),
(254,606,l),
(254,558,l)
);
}
);
width = 1304;
},
{
guides = (
{
pos = (288,800);
}
);
layerId = "200BE2C5-40F6-4CF4-AF4F-A33C0CC0964F";
shapes = (
{
closed = 1;
nodes = (
(966,40,l),
(974,96,l),
(300,584,l),
(308,570,l),
(312,594,l),
(300,578,l),
(1134,1068,l),
(1144,1122,l),
(262,606,l),
(254,558,l)
);
}
);
width = 1304;
},
{
associatedMasterId = "B1F27B51-9973-4381-9301-4FE46FE1CA59";
guides = (
{
orientation = center;
pos = (268,800);
}
);
layerId = "F4F49379-65DA-4D24-8FD9-467723384620";
name = "Dec 27 18, 15:52";
shapes = (
{
closed = 0;
nodes = (
(1164,1140,l),
(300,582,l),
(1164,24,l)
);
}
);
width = 1304;
}
);
metricWidth = plus;
note = "Recipe: Make rect and rotate 63deg (regular) or 69deg (black)";
tags = (
"TODO-opsz"
);
unicode = 60;
userData = {
com.typemytype.robofont.guideline.magnetic.UCqMAsbNEX = 5;
com.typemytype.robofont.guideline.magnetic.abdyNxiJ0X = 5;
com.typemytype.robofont.guideline.magnetic.hl7wBCA74H = 5;
com.typemytype.robofont.guideline.magnetic.o3FB2ulJxh = 5;
com.typemytype.robofont.guideline.magnetic.oUvmdsbOwf = 5;
"interface.width-adjustments" = (
-16
);
};
}
{
color = (204,240,242,1);
glyphname = equal;
kernLeft = approxequal;
kernRight = approxequal;
layers = (
{
background = {
shapes = (
{
ref = plus;
}
);
};
guides = (
{
pos = (172,800);
}
);
layerId = "C698F293-3EC0-4A5A-A3A0-0FDB1F5CF265";
shapes = (
{
closed = 1;
nodes = (
(1074,718,l),
(1074,876,l),
(178,876,l),
(178,718,l)
);
},
{
closed = 1;
nodes = (
(1074,288,l),
(1074,446,l),
(178,446,l),
(178,288,l)
);
}
);
width = 1254;
},
{
guides = (
{
orientation = center;
pos = (-3202,832);
}
);
layerId = "5C20EF92-B63D-42A8-8878-93C2863E0093";
shapes = (
{
closed = 1;
nodes = (
(1224,702,l),
(1224,1026,l),
(148,1026,l),
(148,702,l)
);
},
{
closed = 1;
nodes = (
(1224,184,l),
(1224,510,l),
(148,510,l),
(148,184,l)
);
}
);
width = 1372;
},
{
guides = (
{
pos = (310,896);
}
);
layerId = "11F4534A-B963-4AB5-820F-DAF9A20CD933";
shapes = (
{
closed = 1;
nodes = (
(1102,718,l),
(1128,876,l),
(232,876,l),
(206,718,l)
);
},
{
closed = 1;
nodes = (
(1030,288,l),
(1056,446,l),
(160,446,l),
(134,288,l)
);
}
);
width = 1254;
},
{
guides = (
{
pos = (676,896);
}
);
layerId = "D0EC06BF-13F9-4C88-A6F5-B8203AF6C77E";
shapes = (
{
closed = 1;
nodes = (
(1248,702,l),
(1302,1026,l),
(226,1026,l),
(170,702,l)
);
},
{
closed = 1;
nodes = (
(1162,184,l),
(1216,510,l),
(138,510,l),
(86,184,l)
);
}
);
width = 1372;
},
{
guides = (
{
pos = (268,800);
}
);
layerId = "B1F27B51-9973-4381-9301-4FE46FE1CA59";
shapes = (
{
closed = 1;
nodes = (
(998,754,l),
(998,800,l),
(306,800,l),
(306,754,l)
);
},
{
closed = 1;
nodes = (
(998,364,l),
(998,410,l),
(306,410,l),
(306,364,l)
);
}
);
width = 1304;
},
{
layerId = "200BE2C5-40F6-4CF4-AF4F-A33C0CC0964F";
shapes = (
{
closed = 1;
nodes = (
(1030,754,l),
(1038,800,l),
(346,800,l),
(338,754,l)
);
},
{
closed = 1;
nodes = (
(966,364,l),
(974,410,l),
(282,410,l),
(274,364,l)
);
}
);
width = 1304;
}
);
metricWidth = plus;
tags = (
"TODO-opsz"
);
unicode = 61;
userData = {
com.typemytype.robofont.guideline.magnetic.7d4CjnlrzW = 5;
interface.gridadjust.original = "{'width': 1664, 'leftMargin': 256, 'rightMargin': 256}";
"interface.width-adjustments" = (
-16
);
};
}
{
color = (204,240,242,1);
glyphname = greater;
layers = (
{
guides = (
{
pos = (172,800);
}
);
layerId = "C698F293-3EC0-4A5A-A3A0-0FDB1F5CF265";
shapes = (
{
closed = 1;
nodes = (
(1096,640,l),
(158,1118,l),
(158,930,l),
(878,584,l),
(872,596,l),
(872,568,l),
(878,578,l),
(158,232,l),
(158,46,l),
(1096,524,l)
);
}
);
width = 1254;
},
{
guides = (
{
orientation = center;
pos = (-3202,832);
}
);
layerId = "5C20EF92-B63D-42A8-8878-93C2863E0093";
shapes = (
{
closed = 1;
nodes = (
(1226,780,l),
(144,1214,l),
(144,846,l),
(834,608,l),
(822,626,l),
(822,584,l),
(834,602,l),
(144,364,l),
(144,-2,l),
(1226,430,l)
);
}
);
width = 1372;
},
{
guides = (
{
pos = (172,800);
}
);
layerId = "11F4534A-B963-4AB5-820F-DAF9A20CD933";
shapes = (
{
closed = 1;
nodes = (
(1144,640,l),
(286,1118,l),
(258,930,l),
(918,584,l),
(912,596,l),
(910,568,l),
(914,578,l),
(142,232,l),
(110,46,l),
(1124,524,l)
);
}
);
width = 1254;
},
{
guides = (
{
pos = (-644,248);
},
{
pos = (1564,896);
}
);
layerId = "D0EC06BF-13F9-4C88-A6F5-B8203AF6C77E";
shapes = (
{
closed = 1;
nodes = (
(1264,780,l),
(252,1214,l),
(192,846,l),
(842,608,l),
(834,626,l),
(826,584,l),
(840,602,l),
(112,364,l),
(52,-2,l),
(1206,430,l)
);
}
);
width = 1372;
},
{
guides = (
{
pos = (268,800);
}
);
layerId = "B1F27B51-9973-4381-9301-4FE46FE1CA59";
shapes = (
{
closed = 1;
nodes = (
(1050,606,l),
(254,1122,l),
(254,1068,l),
(1006,578,l),
(998,594,l),
(998,570,l),
(1006,584,l),
(254,96,l),
(254,40,l),
(1050,558,l)
);
}
);
width = 1304;
},
{
layerId = "200BE2C5-40F6-4CF4-AF4F-A33C0CC0964F";
shapes = (
{
closed = 1;
nodes = (
(1058,606,l),
(346,1122,l),
(338,1068,l),
(1010,578,l),
(1004,594,l),
(1000,570,l),
(1010,584,l),
(178,96,l),
(168,40,l),
(1050,558,l)
);
}
);
width = 1304;
}
);
metricWidth = plus;
tags = (
"TODO-opsz"
);
unicode = 62;
userData = {
"interface.width-adjustments" = (
-16
);
};
}
{
glyphname = question;
layers = (
{
guides = (
{
angle = 90;
pos = (373,416);
}
);
layerId = "C698F293-3EC0-4A5A-A3A0-0FDB1F5CF265";
shapes = (
{
closed = 1;
nodes = (
(508,448,l),
(508,458,ls),
(508,638,o),
(557,687,o),
(686,766,cs),
(813,844,o),
(888,956,o),
(888,1118,cs),
(888,1344,o),
(723,1510,o),
(466,1510,cs),
(231,1510,o),
(44,1364,o),
(34,1118,c),
(216,1118,l),
(228,1289,o),
(348,1358,o),
(466,1358,cs),
(604,1358,o),
(714,1268,o),
(714,1126,cs),
(714,1010,o),
(648,927,o),
(562,876,cs),
(420,789,o),
(334,735,o),
(334,458,cs),
(334,448,l)
);
},
{
closed = 1;
nodes = (
(495,-12,o),
(554,47,o),
(554,119,cs),
(554,191,o),
(495,250,o),
(423,250,cs),
(351,250,o),
(292,191,o),
(292,119,cs),
(292,47,o),
(351,-12,o),
(423,-12,cs)
);
}
);
width = 942;
},
{
guides = (
{
pos = (-172,2352);
},
{
angle = 90;
pos = (423,426);
}
);
layerId = "5C20EF92-B63D-42A8-8878-93C2863E0093";
shapes = (
{
closed = 1;
nodes = (
(714,466,l),
(714,500,ls),
(714,616,o),
(769,674,o),
(874,736,cs),
(1017,819,o),
(1114,923,o),
(1114,1100,cs),
(1114,1373,o),
(883,1510,o),
(572,1510,cs),
(289,1510,o),
(52,1376,o),
(52,1056,c),
(424,1056,l),
(424,1140,o),
(491,1198,o),
(570,1198,cs),
(642,1198,o),
(700,1149,o),
(700,1076,cs),
(700,995,o),
(630,945,o),
(538,884,cs),
(429,814,o),
(372,740,o),
(372,500,cs),
(372,466,l)
);
},
{
closed = 1;
nodes = (
(673,-24,o),
(757,52,o),
(757,175,cs),
(757,298,o),
(673,374,o),
(543,374,cs),
(413,374,o),
(329,298,o),
(329,175,cs),
(329,52,o),
(413,-24,o),
(543,-24,cs)
);
}
);
width = 1182;
},
{
layerId = "11F4534A-B963-4AB5-820F-DAF9A20CD933";
shapes = (
{
closed = 1;
nodes = (
(490,448,l),
(491,458,ls),
(521,638,o),
(578,687,o),
(720,766,cs),
(860,844,o),
(954,956,o),
(981,1118,cs),
(1018,1344,o),
(880,1510,o),
(623,1510,cs),
(388,1510,o),
(177,1364,o),
(127,1118,c),
(309,1118,l),
(349,1289,o),
(480,1358,o),
(598,1358,cs),
(736,1358,o),
(831,1268,o),
(808,1126,cs),
(789,1010,o),
(709,927,o),
(614,876,cs),
(458,789,o),
(363,735,o),
(317,458,cs),
(316,448,l)
);
},
{
closed = 1;
nodes = (
(400,-12,o),
(469,47,o),
(481,119,cs),
(493,191,o),
(444,250,o),
(372,250,cs),
(300,250,o),
(231,191,o),
(219,119,cs),
(207,47,o),
(256,-12,o),
(328,-12,cs)
);
}
);
width = 942;
},
{
guides = (
{
pos = (1460,2352);
}
);
layerId = "D0EC06BF-13F9-4C88-A6F5-B8203AF6C77E";
shapes = (
{
closed = 1;
nodes = (
(699,466,l),
(704,500,ls),
(723,616,o),
(788,674,o),
(903,736,cs),
(1060,819,o),
(1174,923,o),
(1204,1100,cs),
(1249,1373,o),
(1040,1510,o),
(729,1510,cs),
(446,1510,o),
(187,1376,o),
(134,1056,c),
(506,1056,l),
(520,1140,o),
(597,1198,o),
(676,1198,cs),
(748,1198,o),
(798,1149,o),
(786,1076,cs),
(772,995,o),
(694,945,o),
(592,884,cs),
(471,814,o),
(402,740,o),
(362,500,cs),
(357,466,l)
);
},
{
closed = 1;
nodes = (
(576,-24,o),
(673,52,o),
(693,175,cs),
(714,298,o),
(642,374,o),
(512,374,cs),
(382,374,o),
(286,298,o),
(265,175,cs),
(245,52,o),
(316,-24,o),
(446,-24,cs)
);
}
);
width = 1182;
},
{
guides = (
{
angle = 90;
pos = (448,391);
}
);
layerId = "B1F27B51-9973-4381-9301-4FE46FE1CA59";
shapes = (
{
closed = 1;
nodes = (
(472,442,l),
(472,544,ls),
(472,662,o),
(510,723,o),
(648,824,cs),
(807,937,o),
(864,1023,o),
(864,1146,cs),
(864,1356,o),
(699,1510,o),
(486,1510,cs),
(263,1510,o),
(96,1341,o),
(96,1118,c),
(142,1118,l),
(142,1315,o),
(288,1464,o),
(486,1464,cs),
(673,1464,o),
(818,1331,o),
(818,1146,cs),
(818,1041,o),
(770,965,o),
(622,862,cs),
(473,756,o),
(424,678,o),
(424,544,cs),
(424,442,l)
);
},
{
closed = 1;
nodes = (
(477,-9,o),
(501,15,o),
(501,44,cs),
(501,73,o),
(477,97,o),
(448,97,cs),
(419,97,o),
(395,73,o),
(395,44,cs),
(395,15,o),
(419,-9,o),
(448,-9,cs)
);
}
);
width = 980;
},
{
layerId = "200BE2C5-40F6-4CF4-AF4F-A33C0CC0964F";
shapes = (
{
closed = 1;
nodes = (
(453,442,l),
(470,544,ls),
(490,662,o),
(537,723,o),
(692,824,cs),
(870,937,o),
(941,1021,o),
(961,1144,cs),
(996,1354,o),
(857,1510,o),
(644,1510,cs),
(421,1510,o),
(226,1341,o),
(189,1118,c),
(235,1118,l),
(267,1315,o),
(450,1464,o),
(648,1464,cs),
(835,1464,o),
(946,1333,o),
(915,1148,cs),
(898,1043,o),
(833,966,o),
(668,863,cs),
(502,757,o),
(445,678,o),
(423,544,cs),
(406,442,l)
);
},
{
closed = 1;
nodes = (
(386,-9,o),
(414,15,o),
(419,44,cs),
(424,73,o),
(404,97,o),
(375,97,cs),
(346,97,o),
(318,73,o),
(313,44,cs),
(308,15,o),
(328,-9,o),
(357,-9,cs)
);
}
);
width = 980;
},
{
associatedMasterId = "B1F27B51-9973-4381-9301-4FE46FE1CA59";
layerId = "75D4D36F-F0AC-4556-9658-7C6E75F1070E";
name = "Nov 30 18, 00:07";
shapes = (
{
closed = 0;
nodes = (
(418,396,l),
(419,657,o),
(468,730,o),
(596,818,cs),
(710,895,o),
(797,981,o),
(798,1140,cs),
(797,1343,o),
(658,1487,o),
(462,1486,cs),
(260,1487,o),
(116,1334,o),
(116,1118,c)
);
},
{
pos = (154,0);
ref = period;
}
);
width = 926;
},
{
associatedMasterId = "B1F27B51-9973-4381-9301-4FE46FE1CA59";
guides = (
{
angle = 90;
pos = (576,516);
}
);
layerId = "ED769F43-BCBA-464F-BC0C-E3675F1B7BB8";
name = "Nov 30 18, 00:10";
shapes = (
{
closed = 1;
nodes = (
(140,1118,l),
(140,1321,o),
(273,1463,o),
(462,1464,cs),
(646,1463,o),
(774,1329,o),
(774,1140,cs),
(774,1015,o),
(721,931,o),
(584,838,cs),
(436,736,o),
(396,643,o),
(396,396,c),
(442,396,l),
(442,628,o),
(474,707,o),
(610,800,cs),
(759,899,o),
(820,998,o),
(820,1140,cs),
(820,1356,o),
(672,1510,o),
(462,1510,cs),
(247,1510,o),
(93,1347,o),
(94,1118,c)
);
},
{
pos = (160,0);
ref = period;
}
);
width = 926;
},
{
associatedMasterId = "B1F27B51-9973-4381-9301-4FE46FE1CA59";
background = {
shapes = (
{
closed = 1;
nodes = (
(454,232,l),
(454,585,o),
(486,666,o),
(622,770,cs),
(762,881,o),
(832,995,o),
(832,1140,cs),
(832,1356,o),
(684,1510,o),
(474,1510,cs),
(259,1510,o),
(105,1347,o),
(104,1118,c),
(152,1118,l),
(151,1321,o),
(285,1463,o),
(474,1464,cs),
(657,1463,o),
(785,1329,o),
(786,1140,cs),
(785,1012,o),
(730,913,o),
(596,808,cs),
(448,695,o),
(407,593,o),
(408,232,c)
);
},
{
closed = 0;
nodes = (
(448,466,l),
(445,650,o),
(488,722,o),
(652,838,cs),
(767,919,o),
(832,1007,o),
(832,1154,cs),
(832,1350,o),
(681,1485,o),
(474,1486,cs),
(266,1488,o),
(79,1365,o),
(78,1102,c)
);
}
);
};
guides = (
{
angle = 90;
pos = (592,516);
}
);
layerId = "A64C3A59-7B69-4518-AB3E-BEEAC2E00FFE";
name = "Jan 22 19, 06:51";
shapes = (
{
closed = 0;
nodes = (
(430,232,l),
(428,659,o),
(497,735,o),
(652,838,cs),
(784,927,o),
(832,1034,o),
(832,1146,cs),
(832,1340,o),
(687,1487,o),
(474,1486,cs),
(257,1487,o),
(79,1332,o),
(78,1118,c)
);
},
{
pos = (172,0);
ref = period;
}
);
width = 962;
},
{
associatedMasterId = "B1F27B51-9973-4381-9301-4FE46FE1CA59";
guides = (
{
angle = 90;
pos = (656,516);
}
);
layerId = "97860723-3877-46AB-80B9-B6DA2B6A584E";
name = "Jan 22 19, 06:56";
shapes = (
{
closed = 1;
nodes = (
(149,1314,o),
(310,1463,o),
(520,1464,cs),
(719,1463,o),
(855,1331,o),
(856,1146,cs),
(855,1027,o),
(799,934,o),
(686,858,cs),
(529,752,o),
(451,668,o),
(454,232,c),
(500,232,l),
(497,641,o),
(561,721,o),
(710,818,cs),
(836,900,o),
(902,1012,o),
(902,1146,cs),
(902,1356,o),
(744,1510,o),
(520,1510,cs),
(284,1510,o),
(103,1340,o),
(102,1118,c),
(148,1118,l)
);
},
{
pos = (218,0);
ref = period;
}
);
width = 1010;
},
{
associatedMasterId = "B1F27B51-9973-4381-9301-4FE46FE1CA59";
background = {
shapes = (
{
closed = 0;
nodes = (
(152,1152,l),
(168,1348,o),
(317,1485,o),
(514,1486,cs),
(716,1488,o),
(870,1345,o),
(870,1158,cs),
(870,1036,o),
(812,948,o),
(664,840,cs),
(519,737,o),
(477,668,o),
(478,544,cs),
(478,446,l)
);
}
);
};
guides = (
{
angle = 90;
pos = (656,516);
}
);
layerId = "257671DD-319E-494D-ABB6-8D5D07521099";
name = "Jan 22 19, 09:25";
shapes = (
{
closed = 0;
nodes = (
(148,1106,l),
(148,1338,o),
(310,1487,o),
(514,1486,cs),
(716,1487,o),
(870,1345,o),
(870,1146,cs),
(870,1025,o),
(812,948,o),
(664,840,cs),
(519,737,o),
(477,668,o),
(478,544,cs),
(478,442,l)
);
},
{
pos = (218,0);
ref = period;
}
);
width = 1010;
},
{
associatedMasterId = "B1F27B51-9973-4381-9301-4FE46FE1CA59";
background = {
shapes = (
{
closed = 0;
nodes = (
(122,1152,l),
(139,1348,o),
(288,1485,o),
(486,1486,cs),
(687,1488,o),
(841,1345,o),
(840,1158,cs),
(841,1036,o),
(783,948,o),
(634,840,cs),
(489,737,o),
(448,668,o),
(448,544,cs),
(448,446,l)
);
}
);
};
guides = (
{
angle = 90;
pos = (616,516);
}
);
layerId = "D2256727-13BA-427B-A422-447CE61ECAB7";
name = "Jan 22 19, 09:29";
shapes = (
{
closed = 0;
nodes = (
(120,1118,l),
(119,1338,o),
(288,1487,o),
(486,1486,cs),
(678,1487,o),
(841,1347,o),
(840,1146,cs),
(841,1025,o),
(783,948,o),
(634,840,cs),
(489,737,o),
(448,668,o),
(448,544,cs),
(448,442,l)
);
},
{
pos = (190,0);
ref = period;
}
);
width = 980;
},
{
associatedMasterId = "C698F293-3EC0-4A5A-A3A0-0FDB1F5CF265";
guides = (
{
angle = 90;
pos = (508,400);
}
);
layerId = "00DE21B9-C62D-4EC6-B6D8-9AD15EC28CF8";
name = "Jun 9, 22, 10:52";
shapes = (
{
closed = 1;
nodes = (
(556,418,l),
(556,428,ls),
(556,608,o),
(605,687,o),
(734,766,cs),
(861,844,o),
(936,956,o),
(936,1118,cs),
(936,1344,o),
(771,1510,o),
(514,1510,cs),
(279,1510,o),
(92,1364,o),
(82,1118,c),
(264,1118,l),
(276,1289,o),
(396,1358,o),
(514,1358,cs),
(652,1358,o),
(762,1268,o),
(762,1126,cs),
(762,1010,o),
(696,927,o),
(610,876,cs),
(468,789,o),
(382,705,o),
(382,428,cs),
(382,418,l)
);
},
{
pos = (192,0);
ref = period;
}
);
width = 1038;
}
);
tags = (
"TODO-opsz"
);
unicode = 63;
userData = {
"interface.width-adjustments" = (
-16
);
};
}
{
glyphname = at;
layers = (
{
layerId = "C698F293-3EC0-4A5A-A3A0-0FDB1F5CF265";
shapes = (
{
closed = 1;
nodes = (
(1116,-392,o),
(1305,-349,o),
(1394,-312,c),
(1354,-178,l),
(1302,-195,o),
(1133,-254,o),
(974,-254,cs),
(476,-254,o),
(210,26,o),
(210,520,cs),
(210,1007,o),
(481,1298,o),
(938,1298,cs),
(1401,1298,o),
(1618,972,o),
(1618,646,cs),
(1618,314,o),
(1584,166,o),
(1436,166,cs),
(1348,166,o),
(1302,239,o),
(1302,320,cs),
(1302,978,l),
(1148,978,l),
(1148,896,l),
(1138,896,l),
(1104,942,o),
(1019,1002,o),
(888,1002,cs),
(650,1002,o),
(476,802,o),
(476,536,cs),
(476,254,o),
(612,38,o),
(877,38,cs),
(1031,38,o),
(1114,116,o),
(1148,198,c),
(1156,198,l),
(1174,73,o),
(1331,30,o),
(1432,30,cs),
(1741,30,o),
(1770,361,o),
(1770,642,cs),
(1770,1041,o),
(1491,1434,o),
(946,1434,cs),
(385,1434,o),
(50,1094,o),
(50,526,cs),
(50,-61,o),
(374,-392,o),
(968,-392,cs)
);
},
{
closed = 1;
nodes = (
(694,186,o),
(626,358,o),
(626,544,cs),
(626,713,o),
(723,858,o),
(888,858,cs),
(1063,858,o),
(1156,788,o),
(1156,544,cs),
(1156,303,o),
(1078,186,o),
(882,186,cs)
);
}
);
width = 1822;
},
{
layerId = "5C20EF92-B63D-42A8-8878-93C2863E0093";
shapes = (
{
closed = 1;
nodes = (
(1343,-454,o),
(1555,-401,o),
(1646,-340,c),
(1554,-78,l),
(1459,-119,o),
(1293,-152,o),
(1120,-152,cs),
(662,-152,o),
(408,81,o),
(408,518,cs),
(408,887,o),
(624,1216,o),
(1126,1216,cs),
(1401,1216,o),
(1796,1155,o),
(1796,610,cs),
(1796,358,o),
(1733,242,o),
(1664,242,cs),
(1639,242,o),
(1618,256,o),
(1618,314,cs),
(1618,1058,l),
(1342,1058,l),
(1342,978,l),
(1330,978,l),
(1307,1030,o),
(1182,1082,o),
(1040,1082,cs),
(771,1082,o),
(526,888,o),
(526,510,cs),
(526,165,o),
(729,-45,o),
(1019,-45,cs),
(1173,-45,o),
(1337,13,o),
(1368,96,c),
(1376,96,l),
(1390,21,o),
(1397,-55,o),
(1552,-55,cs),
(1919,-55,o),
(2110,185,o),
(2110,584,cs),
(2110,1181,o),
(1727,1516,o),
(1126,1516,cs),
(458,1516,o),
(82,1097,o),
(82,500,cs),
(82,-99,o),
(461,-454,o),
(1096,-454,cs)
);
},
{
closed = 1;
nodes = (
(906,256,o),
(844,384,o),
(844,518,cs),
(844,681,o),
(933,766,o),
(1092,766,cs),
(1282,766,o),
(1312,649,o),
(1312,520,cs),
(1312,352,o),
(1264,256,o),
(1096,256,cs)
);
}
);
width = 2192;
},
{
layerId = "11F4534A-B963-4AB5-820F-DAF9A20CD933";
shapes = (
{
closed = 1;
nodes = (
(959,-392,o),
(1155,-349,o),
(1250,-312,c),
(1232,-178,l),
(1177,-195,o),
(998,-254,o),
(839,-254,cs),
(341,-254,o),
(122,26,o),
(204,520,cs),
(284,1007,o),
(603,1298,o),
(1060,1298,cs),
(1523,1298,o),
(1686,972,o),
(1632,646,cs),
(1577,314,o),
(1519,166,o),
(1371,166,cs),
(1283,166,o),
(1249,239,o),
(1262,320,cs),
(1371,978,l),
(1217,978,l),
(1204,896,l),
(1194,896,l),
(1167,942,o),
(1092,1002,o),
(961,1002,cs),
(723,1002,o),
(516,802,o),
(472,536,cs),
(426,254,o),
(526,38,o),
(791,38,cs),
(945,38,o),
(1041,116,o),
(1088,198,c),
(1096,198,l),
(1094,73,o),
(1243,30,o),
(1344,30,cs),
(1653,30,o),
(1737,361,o),
(1784,642,cs),
(1850,1041,o),
(1636,1434,o),
(1091,1434,cs),
(530,1434,o),
(139,1094,o),
(45,526,cs),
(-53,-61,o),
(217,-392,o),
(811,-392,cs)
);
},
{
closed = 1;
nodes = (
(632,186,o),
(593,358,o),
(624,544,cs),
(651,713,o),
(772,858,o),
(937,858,cs),
(1112,858,o),
(1194,788,o),
(1154,544,cs),
(1114,303,o),
(1016,186,o),
(820,186,cs)
);
}
);
width = 1822;
},
{
layerId = "D0EC06BF-13F9-4C88-A6F5-B8203AF6C77E";
shapes = (
{
closed = 1;
nodes = (
(1175,-454,o),
(1396,-401,o),
(1497,-340,c),
(1449,-78,l),
(1347,-119,o),
(1175,-152,o),
(1002,-152,cs),
(544,-152,o),
(329,81,o),
(401,518,cs),
(462,887,o),
(733,1216,o),
(1235,1216,cs),
(1510,1216,o),
(1895,1155,o),
(1804,610,cs),
(1763,358,o),
(1681,242,o),
(1612,242,cs),
(1587,242,o),
(1568,256,o),
(1577,314,cs),
(1701,1058,l),
(1425,1058,l),
(1411,978,l),
(1399,978,l),
(1385,1030,o),
(1269,1082,o),
(1127,1082,cs),
(858,1082,o),
(580,888,o),
(518,510,cs),
(461,165,o),
(629,-45,o),
(919,-45,cs),
(1073,-45,o),
(1247,13,o),
(1291,96,c),
(1299,96,l),
(1301,21,o),
(1295,-55,o),
(1450,-55,cs),
(1817,-55,o),
(2048,185,o),
(2114,584,cs),
(2213,1181,o),
(1885,1516,o),
(1284,1516,cs),
(616,1516,o),
(171,1097,o),
(72,500,cs),
(-27,-99,o),
(293,-454,o),
(928,-454,cs)
);
},
{
closed = 1;
nodes = (
(856,256,o),
(815,384,o),
(837,518,cs),
(864,681,o),
(967,766,o),
(1126,766,cs),
(1316,766,o),
(1327,649,o),
(1306,520,cs),
(1278,352,o),
(1214,256,o),
(1046,256,cs)
);
}
);
width = 2192;
},
{
layerId = "B1F27B51-9973-4381-9301-4FE46FE1CA59";
shapes = (
{
closed = 1;
nodes = (
(1129,-396,o),
(1292,-343,o),
(1432,-244,c),
(1402,-206,l),
(1271,-300,o),
(1120,-350,o),
(960,-350,cs),
(512,-350,o),
(148,38,o),
(148,518,cs),
(148,998,o),
(512,1386,o),
(960,1386,cs),
(1405,1386,o),
(1770,998,o),
(1770,518,cs),
(1770,279,o),
(1638,102,o),
(1460,102,cs),
(1373,102,o),
(1350,137,o),
(1350,280,cs),
(1350,986,l),
(1304,986,l),
(1304,754,l),
(1298,754,l),
(1228,902,o),
(1094,1000,o),
(940,1000,cs),
(710,1000,o),
(527,785,o),
(527,518,cs),
(527,250,o),
(710,34,o),
(940,34,cs),
(1094,34,o),
(1228,134,o),
(1298,280,c),
(1304,280,l),
(1303,113,o),
(1344,56,o),
(1460,56,cs),
(1667,56,o),
(1816,253,o),
(1816,518,cs),
(1816,1024,o),
(1431,1432,o),
(960,1432,cs),
(486,1432,o),
(102,1024,o),
(102,518,cs),
(102,15,o),
(486,-396,o),
(960,-396,cs)
);
},
{
closed = 1;
nodes = (
(739,80,o),
(573,276,o),
(573,518,cs),
(573,759,o),
(739,954,o),
(940,954,cs),
(1140,954,o),
(1304,759,o),
(1304,518,cs),
(1304,275,o),
(1141,80,o),
(940,80,cs)
);
}
);
width = 1918;
},
{
layerId = "200BE2C5-40F6-4CF4-AF4F-A33C0CC0964F";
shapes = (
{
closed = 1;
nodes = (
(971,-396,o),
(1143,-343,o),
(1299,-244,c),
(1275,-206,l),
(1129,-300,o),
(970,-350,o),
(810,-350,cs),
(362,-350,o),
(62,38,o),
(141,518,cs),
(221,998,o),
(649,1386,o),
(1097,1386,cs),
(1542,1386,o),
(1843,998,o),
(1763,518,cs),
(1724,279,o),
(1562,102,o),
(1384,102,cs),
(1297,102,o),
(1280,137,o),
(1304,280,cs),
(1421,986,l),
(1375,986,l),
(1336,754,l),
(1330,754,l),
(1285,902,o),
(1167,1000,o),
(1013,1000,cs),
(783,1000,o),
(564,785,o),
(520,518,cs),
(476,250,o),
(623,34,o),
(853,34,cs),
(1007,34,o),
(1158,134,o),
(1252,280,c),
(1258,280,l),
(1229,113,o),
(1261,56,o),
(1377,56,cs),
(1584,56,o),
(1765,253,o),
(1809,518,cs),
(1893,1024,o),
(1576,1432,o),
(1105,1432,cs),
(631,1432,o),
(179,1024,o),
(95,518,cs),
(12,15,o),
(328,-396,o),
(802,-396,cs)
);
},
{
closed = 1;
nodes = (
(660,80,o),
(526,276,o),
(566,518,cs),
(606,759,o),
(804,954,o),
(1005,954,cs),
(1205,954,o),
(1337,759,o),
(1297,518,cs),
(1257,275,o),
(1062,80,o),
(861,80,cs)
);
}
);
width = 1918;
},
{
associatedMasterId = "B1F27B51-9973-4381-9301-4FE46FE1CA59";
background = {
shapes = (
{
closed = 1;
nodes = (
(1111,858,o),
(1204,788,o),
(1204,544,cs),
(1204,303,o),
(1126,186,o),
(930,186,cs),
(742,186,o),
(675,358,o),
(674,544,cs),
(675,713,o),
(771,858,o),
(936,858,cs)
);
},
{
closed = 1;
nodes = (
(433,1434,o),
(99,1094,o),
(98,526,cs),
(99,-61,o),
(422,-393,o),
(1016,-392,cs),
(1164,-393,o),
(1353,-349,o),
(1442,-312,c),
(1402,-178,l),
(1350,-195,o),
(1181,-253,o),
(1022,-254,cs),
(524,-253,o),
(259,26,o),
(258,520,cs),
(259,1007,o),
(529,1297,o),
(986,1298,cs),
(1449,1297,o),
(1667,972,o),
(1666,646,cs),
(1667,314,o),
(1632,166,o),
(1484,166,cs),
(1396,166,o),
(1350,239,o),
(1350,320,cs),
(1350,978,l),
(1196,978,l),
(1196,896,l),
(1186,896,l),
(1167,960,o),
(1053,1015,o),
(908,1000,cs),
(689,977,o),
(524,797,o),
(524,536,cs),
(524,259,o),
(655,47,o),
(908,38,cs),
(1073,32,o),
(1161,113,o),
(1196,198,c),
(1204,198,l),
(1222,73,o),
(1379,29,o),
(1480,30,cs),
(1789,29,o),
(1818,361,o),
(1818,642,cs),
(1818,1041,o),
(1539,1434,o),
(994,1434,cs)
);
}
);
};
guides = (
{
pos = (1384,1940);
},
{
pos = (1272,80);
},
{
pos = (1292,1344);
},
{
pos = (1416,-512);
},
{
angle = 90;
pos = (172,728);
},
{
angle = 90;
pos = (756,736);
},
{
angle = 90;
pos = (1824,736);
},
{
angle = 90;
pos = (2464,876);
},
{
orientation = center;
pos = (2440,712);
}
);
layerId = "F02EBEA3-A9A1-4BF5-A5DE-99015680B117";
name = "Dec 27 18, 17:10";
shapes = (
{
closed = 1;
nodes = (
(1419,-372,o),
(1792,26,o),
(1792,518,cs),
(1792,1009,o),
(1419,1408,o),
(958,1408,cs),
(498,1408,o),
(125,1009,o),
(126,518,cs),
(125,26,o),
(498,-372,o),
(958,-372,cs)
);
},
{
closed = 1;
nodes = (
(1153,58,o),
(1327,264,o),
(1326,518,cs),
(1327,772,o),
(1153,977,o),
(938,978,cs),
(724,977,o),
(550,772,o),
(550,518,cs),
(550,264,o),
(724,58,o),
(938,58,cs)
);
}
);
width = 1918;
},
{
associatedMasterId = "B1F27B51-9973-4381-9301-4FE46FE1CA59";
background = {
shapes = (
{
closed = 1;
nodes = (
(1111,858,o),
(1204,788,o),
(1204,544,cs),
(1204,303,o),
(1126,186,o),
(930,186,cs),
(742,186,o),
(675,358,o),
(674,544,cs),
(675,713,o),
(771,858,o),
(936,858,cs)
);
},
{
closed = 1;
nodes = (
(433,1434,o),
(99,1094,o),
(98,526,cs),
(99,-61,o),
(422,-393,o),
(1016,-392,cs),
(1164,-393,o),
(1353,-349,o),
(1442,-312,c),
(1402,-178,l),
(1350,-195,o),
(1181,-253,o),
(1022,-254,cs),
(524,-253,o),
(259,26,o),
(258,520,cs),
(259,1007,o),
(529,1297,o),
(986,1298,cs),
(1449,1297,o),
(1667,972,o),
(1666,646,cs),
(1667,314,o),
(1632,166,o),
(1484,166,cs),
(1396,166,o),
(1350,239,o),
(1350,320,cs),
(1350,978,l),
(1196,978,l),
(1196,896,l),
(1186,896,l),
(1167,960,o),
(1053,1015,o),
(908,1000,cs),
(689,977,o),
(524,797,o),
(524,536,cs),
(524,259,o),
(655,47,o),
(908,38,cs),
(1073,32,o),
(1161,113,o),
(1196,198,c),
(1204,198,l),
(1222,73,o),
(1379,29,o),
(1480,30,cs),
(1789,29,o),
(1818,361,o),
(1818,642,cs),
(1818,1041,o),
(1539,1434,o),
(994,1434,cs)
);
}
);
};
guides = (
{
pos = (1384,1940);
},
{
pos = (1272,80);
},
{
pos = (1292,1344);
},
{
pos = (1416,-512);
},
{
angle = 90;
pos = (172,728);
},
{
angle = 90;
pos = (756,736);
},
{
angle = 90;
pos = (1824,736);
},
{
angle = 90;
pos = (2464,876);
},
{
orientation = center;
pos = (2440,712);
}
);
layerId = "9330E9C2-5A13-4EB8-A18E-F8A68B4A0796";
name = "Dec 27 18, 17:59";
shapes = (
{
closed = 0;
nodes = (
(1792,514,l),
(1792,265,o),
(1654,79,o),
(1460,78,cs),
(1345,79,o),
(1327,145,o),
(1326,280,c),
(1326,518,ls),
(1327,772,o),
(1153,977,o),
(940,978,cs),
(724,977,o),
(550,772,o),
(550,518,cs),
(550,264,o),
(724,58,o),
(940,58,cs),
(1151,58,o),
(1327,261,o),
(1326,512,cs),
(1326,994,l)
);
},
{
closed = 0;
nodes = (
(1792,518,l),
(1792,1009,o),
(1419,1408,o),
(958,1408,cs),
(498,1408,o),
(125,1009,o),
(126,518,cs),
(125,26,o),
(498,-372,o),
(958,-372,cs),
(1128,-372,o),
(1286,-319,o),
(1416,-224,cs)
);
}
);
width = 1918;
},
{
associatedMasterId = "B1F27B51-9973-4381-9301-4FE46FE1CA59";
background = {
shapes = (
{
closed = 1;
nodes = (
(1111,858,o),
(1204,788,o),
(1204,544,cs),
(1204,303,o),
(1126,186,o),
(930,186,cs),
(742,186,o),
(675,358,o),
(674,544,cs),
(675,713,o),
(771,858,o),
(936,858,cs)
);
},
{
closed = 1;
nodes = (
(433,1434,o),
(99,1094,o),
(98,526,cs),
(99,-61,o),
(422,-393,o),
(1016,-392,cs),
(1164,-393,o),
(1353,-349,o),
(1442,-312,c),
(1402,-178,l),
(1350,-195,o),
(1181,-253,o),
(1022,-254,cs),
(524,-253,o),
(259,26,o),
(258,520,cs),
(259,1007,o),
(529,1297,o),
(986,1298,cs),
(1449,1297,o),
(1667,972,o),
(1666,646,cs),
(1667,314,o),
(1632,166,o),
(1484,166,cs),
(1396,166,o),
(1350,239,o),
(1350,320,cs),
(1350,978,l),
(1196,978,l),
(1196,896,l),
(1186,896,l),
(1167,960,o),
(1053,1015,o),
(908,1000,cs),
(689,977,o),
(524,797,o),
(524,536,cs),
(524,259,o),
(655,47,o),
(908,38,cs),
(1073,32,o),
(1161,113,o),
(1196,198,c),
(1204,198,l),
(1222,73,o),
(1379,29,o),
(1480,30,cs),
(1789,29,o),
(1818,361,o),
(1818,642,cs),
(1818,1041,o),
(1539,1434,o),
(994,1434,cs)
);
}
);
};
guides = (
{
pos = (1384,1940);
},
{
pos = (1272,80);
},
{
pos = (1292,1344);
},
{
pos = (1416,-512);
},
{
angle = 90;
pos = (172,728);
},
{
angle = 90;
pos = (756,736);
},
{
angle = 90;
pos = (1824,736);
},
{
angle = 90;
pos = (2464,876);
},
{
orientation = center;
pos = (2440,712);
}
);
layerId = "39D8C4D3-01B4-4081-9FD2-F9FB814DC8A5";
name = "Dec 27 18, 18:03";
shapes = (
{
closed = 1;
nodes = (
(102,15,o),
(486,-396,o),
(960,-396,cs),
(1129,-396,o),
(1292,-343,o),
(1432,-244,c),
(1402,-206,l),
(1271,-300,o),
(1120,-349,o),
(960,-350,cs),
(512,-349,o),
(148,38,o),
(148,518,cs),
(148,998,o),
(512,1385,o),
(960,1384,cs),
(1405,1385,o),
(1769,998,o),
(1768,518,cs),
(1769,279,o),
(1638,102,o),
(1460,102,cs),
(1373,102,o),
(1350,137,o),
(1350,280,cs),
(1350,992,l),
(1304,992,l),
(1304,742,l),
(1233,896,o),
(1097,1001,o),
(940,1000,cs),
(710,1001,o),
(527,785,o),
(526,518,cs),
(527,250,o),
(710,35,o),
(940,34,cs),
(1097,35,o),
(1233,140,o),
(1304,290,c),
(1304,280,ls),
(1303,113,o),
(1344,55,o),
(1460,56,cs),
(1667,55,o),
(1815,253,o),
(1816,518,cs),
(1815,1024,o),
(1431,1431,o),
(960,1432,cs),
(486,1431,o),
(102,1024,o),
(102,518,cs)
);
},
{
closed = 1;
nodes = (
(573,759,o),
(739,954,o),
(940,954,cs),
(1140,954,o),
(1303,759,o),
(1304,518,cs),
(1304,512,ls),
(1303,276,o),
(1140,81,o),
(940,82,cs),
(739,81,o),
(573,276,o),
(574,518,cs)
);
}
);
width = 1918;
}
);
tags = (
"TODO-opsz"
);
unicode = 64;
userData = {
"interface.width-adjustments" = (
-16
);
};
}
{
color = (219,235,247,1);
glyphname = A;
kernLeft = A;
kernRight = A;
layers = (
{
anchors = (
{
name = bottom;
pos = (644,0);
},
{
name = ogonek;
pos = (1284,0);
},
{
name = tonos;
pos = (446,1490);
},
{
name = top;
pos = (644,1676);
}
);
guides = (
{
angle = 90;
pos = (1800,1832);
}
);
layerId = "C698F293-3EC0-4A5A-A3A0-0FDB1F5CF265";
shapes = (
{
closed = 1;
nodes = (
(638,1254,l),
(650,1254,l),
(1096,0,l),
(1284,0,l),
(738,1490,l),
(552,1490,l),
(4,0,l),
(194,0,l)
);
},
{
closed = 1;
nodes = (
(264,422,l),
(1026,422,l),
(1026,582,l),
(264,582,l)
);
}
);
width = 1288;
},
{
anchors = (
{
name = bottom;
pos = (790,0);
},
{
name = ogonek;
pos = (1558,0);
},
{
name = tonos;
pos = (436,1490);
},
{
name = top;
pos = (790,1676);
}
);
background = {
shapes = (
{
pos = (-1436,0);
ref = V;
}
);
};
guides = (
{
pos = (892,1364);
},
{
orientation = center;
angle = 90;
pos = (-3110,964);
}
);
layerId = "5C20EF92-B63D-42A8-8878-93C2863E0093";
shapes = (
{
closed = 1;
nodes = (
(784,1080,l),
(796,1080,l),
(1122,0,l),
(1558,0,l),
(1066,1490,l),
(514,1490,l),
(22,0,l),
(458,0,l)
);
},
{
closed = 1;
nodes = (
(378,286,l),
(1198,286,l),
(1198,588,l),
(378,588,l)
);
}
);
width = 1580;
},
{
anchors = (
{
name = bottom;
pos = (552,0);
},
{
name = ogonek;
pos = (1192,0);
},
{
name = tonos;
pos = (600,1490);
},
{
name = top;
pos = (830,1676);
}
);
guides = (
{
angle = 90;
pos = (3200,1832);
}
);
layerId = "11F4534A-B963-4AB5-820F-DAF9A20CD933";
shapes = (
{
closed = 1;
nodes = (
(754,1254,l),
(766,1254,l),
(1002,0,l),
(1192,0,l),
(892,1490,l),
(706,1490,l),
(-88,0,l),
(100,0,l)
);
},
{
closed = 1;
nodes = (
(240,422,l),
(1002,422,l),
(1028,582,l),
(266,582,l)
);
}
);
width = 1290;
},
{
anchors = (
{
name = bottom;
pos = (698,0);
},
{
name = ogonek;
pos = (1466,0);
},
{
name = tonos;
pos = (590,1490);
},
{
name = top;
pos = (976,1676);
}
);
guides = (
{
pos = (1636,1896);
},
{
angle = 90;
pos = (1332,964);
}
);
layerId = "D0EC06BF-13F9-4C88-A6F5-B8203AF6C77E";
shapes = (
{
closed = 1;
nodes = (
(872,1080,l),
(884,1080,l),
(1030,0,l),
(1466,0,l),
(1222,1490,l),
(668,1490,l),
(-70,0,l),
(366,0,l)
);
},
{
closed = 1;
nodes = (
(330,286,l),
(1152,286,l),
(1204,588,l),
(384,588,l)
);
}
);
width = 1582;
},
{
anchors = (
{
name = bottom;
pos = (632,0);
},
{
name = ogonek;
pos = (1196,0);
},
{
name = tonos;
pos = (526,1490);
},
{
name = top;
pos = (632,1676);
}
);
layerId = "B1F27B51-9973-4381-9301-4FE46FE1CA59";
shapes = (
{
closed = 1;
nodes = (
(628,1432,l),
(634,1432,l),
(1146,0,l),
(1196,0,l),
(664,1490,l),
(600,1490,l),
(66,0,l),
(116,0,l)
);
},
{
closed = 1;
nodes = (
(286,504,l),
(978,504,l),
(978,550,l),
(286,550,l)
);
}
);
width = 1262;
},
{
anchors = (
{
name = bottom;
pos = (538,0);
},
{
name = ogonek;
pos = (1102,0);
},
{
name = tonos;
pos = (680,1490);
},
{
name = top;
pos = (818,1676);
}
);
layerId = "200BE2C5-40F6-4CF4-AF4F-A33C0CC0964F";
shapes = (
{
closed = 1;
nodes = (
(774,1432,l),
(780,1432,l),
(1054,0,l),
(1102,0,l),
(818,1490,l),
(754,1490,l),
(-26,0,l),
(24,0,l)
);
},
{
closed = 1;
nodes = (
(276,504,l),
(968,504,l),
(978,550,l),
(286,550,l)
);
}
);
width = 1262;
}
);
metricRight = "=|A";
unicode = 65;
userData = {
com.typemytype.robofont.guideline.magnetic.9EkLRXjahr = 5;
"interface.width-adjustments" = (
-16
);
};
}
{
color = (219,235,247,1);
glyphname = B;
kernLeft = B;
kernRight = B;
layers = (
{
anchors = (
{
name = bottom;
pos = (598,0);
},
{
name = top;
pos = (590,1676);
}
);
guides = (
{
angle = 90;
pos = (828,1772);
},
{
angle = 90;
pos = (1516,1340);
}
);
layerId = "C698F293-3EC0-4A5A-A3A0-0FDB1F5CF265";
shapes = (
{
closed = 1;
nodes = (
(670,0,ls),
(1023,0,o),
(1168,172,o),
(1168,396,cs),
(1168,631,o),
(1005,759,o),
(868,768,c),
(868,782,l),
(996,817,o),
(1110,902,o),
(1110,1094,cs),
(1110,1312,o),
(964,1490,o),
(654,1490,cs),
(132,1490,l),
(132,0,l)
);
},
{
closed = 1;
nodes = (
(312,678,l),
(680,678,ls),
(874,678,o),
(996,547,o),
(996,396,cs),
(996,265,o),
(906,160,o),
(670,160,cs),
(312,160,l)
);
},
{
closed = 1;
nodes = (
(312,1330,l),
(654,1330,ls),
(851,1330,o),
(938,1225,o),
(938,1094,cs),
(938,937,o),
(810,834,o),
(648,834,cs),
(312,834,l)
);
}
);
width = 1236;
},
{
anchors = (
{
name = bottom;
pos = (640,0);
},
{
name = top;
pos = (642,1676);
}
);
guides = (
{
orientation = center;
angle = 90;
pos = (-2720,716);
}
);
layerId = "5C20EF92-B63D-42A8-8878-93C2863E0093";
shapes = (
{
closed = 1;
nodes = (
(774,0,ls),
(1097,0,o),
(1296,177,o),
(1296,422,cs),
(1296,632,o),
(1142,769,o),
(950,776,c),
(950,792,l),
(1123,825,o),
(1238,953,o),
(1238,1118,cs),
(1238,1344,o),
(1058,1490,o),
(718,1490,cs),
(72,1490,l),
(72,0,l)
);
},
{
closed = 1;
nodes = (
(476,638,l),
(672,638,ls),
(794,638,o),
(870,579,o),
(870,474,cs),
(870,375,o),
(801,322,o),
(666,322,cs),
(476,322,l)
);
},
{
closed = 1;
nodes = (
(476,1172,l),
(648,1172,ls),
(748,1172,o),
(822,1121,o),
(822,1030,cs),
(822,938,o),
(748,888,o),
(642,888,cs),
(476,888,l)
);
}
);
width = 1320;
},
{
anchors = (
{
name = bottom;
pos = (504,0);
},
{
name = top;
pos = (776,1676);
}
);
guides = (
{
angle = 90;
pos = (1328,1772);
},
{
angle = 90;
pos = (1800,1340);
}
);
layerId = "11F4534A-B963-4AB5-820F-DAF9A20CD933";
shapes = (
{
closed = 1;
nodes = (
(578,0,ls),
(929,0,o),
(1104,172,o),
(1142,396,cs),
(1180,631,o),
(1037,759,o),
(904,768,c),
(906,782,l),
(1037,817,o),
(1165,902,o),
(1198,1094,cs),
(1235,1312,o),
(1119,1489,o),
(808,1490,cs),
(286,1490,l),
(40,0,l)
);
},
{
closed = 1;
nodes = (
(334,678,l),
(700,678,ls),
(895,678,o),
(993,547,o),
(970,396,cs),
(947,265,o),
(839,160,o),
(604,160,cs),
(246,160,l)
);
},
{
closed = 1;
nodes = (
(440,1330,l),
(782,1330,ls),
(979,1329,o),
(1049,1225,o),
(1026,1094,cs),
(1002,937,o),
(857,835,o),
(694,834,cs),
(360,834,l)
);
}
);
width = 1236;
},
{
anchors = (
{
name = bottom;
pos = (546,0);
},
{
name = top;
pos = (828,1676);
}
);
guides = (
{
orientation = center;
angle = 90;
pos = (-672,716);
}
);
layerId = "D0EC06BF-13F9-4C88-A6F5-B8203AF6C77E";
shapes = (
{
closed = 1;
nodes = (
(680,0,ls),
(1003,0,o),
(1233,177,o),
(1274,422,cs),
(1308,631,o),
(1177,771,o),
(986,776,c),
(988,792,l),
(1166,826,o),
(1303,954,o),
(1332,1118,cs),
(1369,1344,o),
(1212,1489,o),
(872,1490,cs),
(226,1490,l),
(-22,0,l)
);
},
{
closed = 1;
nodes = (
(488,638,l),
(682,638,ls),
(808,637,o),
(872,579,o),
(854,474,cs),
(840,375,o),
(761,323,o),
(628,322,cs),
(438,322,l)
);
},
{
closed = 1;
nodes = (
(578,1172,l),
(750,1172,ls),
(849,1172,o),
(916,1123,o),
(902,1030,cs),
(887,940,o),
(802,887,o),
(698,888,cs),
(532,888,l)
);
}
);
width = 1320;
},
{
anchors = (
{
name = bottom;
pos = (638,0);
},
{
name = top;
pos = (620,1676);
}
);
guides = (
{
orientation = center;
angle = 180;
pos = (944,1040);
}
);
layerId = "B1F27B51-9973-4381-9301-4FE46FE1CA59";
shapes = (
{
closed = 1;
nodes = (
(748,0,ls),
(1004,0,o),
(1154,151,o),
(1154,382,cs),
(1154,588,o),
(1031,740,o),
(870,754,c),
(870,760,l),
(1014,796,o),
(1096,936,o),
(1096,1112,cs),
(1096,1346,o),
(948,1490,o),
(698,1490,cs),
(232,1490,l),
(232,0,l)
);
},
{
closed = 1;
nodes = (
(280,734,l),
(748,734,ls),
(958,734,o),
(1108,588,o),
(1108,382,cs),
(1108,180,o),
(966,46,o),
(748,46,cs),
(280,46,l)
);
},
{
closed = 1;
nodes = (
(280,1442,l),
(698,1442,ls),
(915,1442,o),
(1050,1323,o),
(1050,1112,cs),
(1050,934,o),
(951,780,o),
(748,780,cs),
(280,780,l)
);
}
);
width = 1312;
},
{
anchors = (
{
name = bottom;
pos = (544,0);
},
{
name = top;
pos = (806,1676);
}
);
layerId = "200BE2C5-40F6-4CF4-AF4F-A33C0CC0964F";
shapes = (
{
closed = 1;
nodes = (
(654,0,ls),
(911,0,o),
(1088,151,o),
(1126,382,cs),
(1161,588,o),
(1062,739,o),
(902,754,c),
(902,760,l),
(1053,797,o),
(1158,937,o),
(1186,1112,cs),
(1228,1347,o),
(1103,1489,o),
(852,1490,cs),
(386,1490,l),
(140,0,l)
);
},
{
closed = 1;
nodes = (
(308,734,l),
(776,734,ls),
(986,733,o),
(1114,588,o),
(1080,382,cs),
(1044,180,o),
(881,47,o),
(664,46,cs),
(194,46,l)
);
},
{
closed = 1;
nodes = (
(424,1442,l),
(844,1442,ls),
(1062,1443,o),
(1175,1324,o),
(1140,1112,cs),
(1111,934,o),
(986,780,o),
(786,780,cs),
(318,780,l)
);
}
);
width = 1312;
}
);
metricLeft = H;
unicode = 66;
userData = {
com.typemytype.robofont.guideline.magnetic.olHMUUD5VH = 5;
com.typemytype.robofont.guideline.magnetic.rWKPWS6RQH = 5;
"interface.width-adjustments" = (
-16
);
};
}
{
color = (219,235,247,1);
glyphname = C;
kernLeft = C;
kernRight = C;
layers = (
{
anchors = (
{
name = cedilla;
pos = (732,-12);
},
{
name = top;
pos = (732,1676);
}
);
background = {
shapes = (
{
ref = O;
}
);
};
guides = (
{
angle = 90;
pos = (976,1432);
}
);
layerId = "C698F293-3EC0-4A5A-A3A0-0FDB1F5CF265";
shapes = (
{
closed = 1;
nodes = (
(1031,-20,o),
(1276,160,o),
(1330,466,c),
(1150,466,l),
(1107,259,o),
(929,148,o),
(732,148,cs),
(461,148,o),
(248,358,o),
(248,744,cs),
(248,1132,o),
(461,1342,o),
(732,1342,cs),
(929,1342,o),
(1107,1231,o),
(1150,1024,c),
(1330,1024,l),
(1276,1329,o),
(1031,1510,o),
(732,1510,cs),
(351,1510,o),
(74,1216,o),
(74,744,cs),
(74,273,o),
(351,-20,o),
(732,-20,cs)
);
}
);
width = 1394;
},
{
anchors = (
{
name = cedilla;
pos = (776,6);
},
{
name = top;
pos = (784,1676);
}
);
background = {
hints = (
{
horizontal = 1;
place = (-20, 21);
target = up;
type = BottomGhost;
},
{
horizontal = 1;
place = (1510, -20);
target = down;
type = TopGhost;
},
{
horizontal = 1;
options = 4;
place = (-20, 0);
type = TTSnap;
},
{
horizontal = 1;
options = 4;
place = (1510, 0);
type = TTSnap;
},
{
horizontal = 1;
place = (-20, 21);
target = up;
type = BottomGhost;
},
{
horizontal = 1;
place = (1510, -20);
target = down;
type = TopGhost;
},
{
horizontal = 1;
options = 4;
place = (-20, 0);
type = TTSnap;
},
{
horizontal = 1;
options = 4;
place = (1510, 0);
type = TTSnap;
},
{
horizontal = 1;
place = (-20, 21);
target = up;
type = BottomGhost;
},
{
horizontal = 1;
place = (1510, -20);
target = down;
type = TopGhost;
},
{
horizontal = 1;
options = 4;
place = (-20, 0);
type = TTSnap;
},
{
horizontal = 1;
options = 4;
place = (1510, 0);
type = TTSnap;
}
);
shapes = (
{
ref = O;
}
);
};
guides = (
{
pos = (1016,1024);
},
{
pos = (-132,0);
}
);
layerId = "5C20EF92-B63D-42A8-8878-93C2863E0093";
shapes = (
{
closed = 1;
nodes = (
(1221,-20,o),
(1442,284,o),
(1462,538,c),
(1052,538,l),
(1032,411,o),
(942,332,o),
(794,332,cs),
(596,332,o),
(482,471,o),
(482,744,cs),
(482,1004,o),
(593,1158,o),
(796,1158,cs),
(952,1158,o),
(1041,1066,o),
(1052,930,c),
(1462,930,l),
(1431,1300,o),
(1160,1510,o),
(784,1510,cs),
(383,1510,o),
(66,1242,o),
(66,744,cs),
(66,249,o),
(375,-20,o),
(784,-20,cs)
);
}
);
width = 1526;
},
{
anchors = (
{
name = cedilla;
pos = (649,-12);
},
{
name = top;
pos = (921,1676);
}
);
guides = (
{
angle = 90;
pos = (1517,1432);
},
{
angle = -99.4;
pos = (969,692);
}
);
layerId = "11F4534A-B963-4AB5-820F-DAF9A20CD933";
shapes = (
{
closed = 1;
nodes = (
(942,-20,o),
(1210,160,o),
(1317,466,c),
(1137,466,l),
(1058,259,o),
(858,148,o),
(655,148,cs),
(389,148,o),
(215,352,o),
(279,734,c),
(343,1126,o),
(596,1341,o),
(873,1342,cs),
(1064,1341,o),
(1221,1231,o),
(1231,1024,c),
(1407,1024,l),
(1402,1329,o),
(1184,1510,o),
(881,1510,cs),
(503,1510,o),
(186,1222,o),
(107,756,c),
(29,279,o),
(261,-20,o),
(649,-20,cs)
);
}
);
width = 1395;
},
{
anchors = (
{
name = bottom_dd;
pos = (1250,-408);
},
{
name = cedilla;
pos = (686,-12);
},
{
name = top;
pos = (966,1676);
},
{
name = top0315;
pos = (1588,1632);
},
{
name = top_dd;
pos = (1582,1600);
}
);
associatedMasterId = "11F4534A-B963-4AB5-820F-DAF9A20CD933";
guides = (
{
angle = 90;
pos = (1392,1432);
}
);
layerId = "773773F7-3DB5-4147-B766-F86286931301";
name = "Sep 11 18, 23:27";
shapes = (
{
closed = 1;
nodes = (
(1452,1329,o),
(1236,1510,o),
(936,1510,cs),
(556,1510,o),
(230,1216,o),
(154,744,c),
(76,273,o),
(303,-20,o),
(684,-20,cs),
(983,-20,o),
(1257,160,o),
(1364,466,c),
(1184,466,l),
(1105,259,o),
(911,148,o),
(712,148,cs),
(442,148,o),
(265,358,o),
(328,744,c),
(393,1132,o),
(640,1341,o),
(910,1342,cs),
(1108,1341,o),
(1265,1231,o),
(1274,1024,c),
(1454,1024,l)
);
}
);
width = 1490;
},
{
anchors = (
{
name = cedilla;
pos = (681,6);
},
{
name = top;
pos = (969,1676);
}
);
background = {
shapes = (
{
pos = (11,0);
ref = O;
}
);
};
guides = (
{
pos = (1575,1024);
},
{
pos = (-1439,0);
},
{
angle = -99.4;
pos = (887,584);
}
);
layerId = "D0EC06BF-13F9-4C88-A6F5-B8203AF6C77E";
shapes = (
{
closed = 1;
nodes = (
(1136,-20,o),
(1395,285,o),
(1457,538,c),
(1049,538,l),
(1008,413,o),
(895,332,o),
(733,332,cs),
(549,332,o),
(467,460,o),
(509,722,c),
(555,992,o),
(703,1158,o),
(917,1158,cs),
(1064,1158,o),
(1128,1068,o),
(1117,930,c),
(1521,930,l),
(1550,1300,o),
(1308,1510,o),
(919,1510,cs),
(531,1510,o),
(182,1257,o),
(101,768,c),
(19,262,o),
(290,-20,o),
(709,-20,cs)
);
}
);
width = 1525;
},
{
anchors = (
{
name = bottom_dd;
pos = (1314,-408);
},
{
name = cedilla;
pos = (680,6);
},
{
name = top;
pos = (940,1586);
},
{
name = top0315;
pos = (1646,1588);
},
{
name = top_dd;
pos = (1646,1600);
}
);
associatedMasterId = "D0EC06BF-13F9-4C88-A6F5-B8203AF6C77E";
background = {
shapes = (
{
ref = O;
}
);
};
guides = (
{
pos = (1232,1024);
},
{
pos = (-256,0);
}
);
layerId = "06889DA9-D1FD-4E3E-9B69-96C5F07B1474";
name = "Sep 14 18, 09:35";
shapes = (
{
closed = 1;
nodes = (
(1539,1295,o),
(1283,1510,o),
(936,1510,cs),
(547,1510,o),
(192,1233,o),
(114,744,c),
(32,256,o),
(279,-20,o),
(696,-20,cs),
(1129,-20,o),
(1376,282,o),
(1438,536,c),
(1026,538,l),
(989,413,o),
(879,337,o),
(748,338,cs),
(564,337,o),
(480,489,o),
(524,744,c),
(564,1004,o),
(704,1155,o),
(884,1154,cs),
(1012,1155,o),
(1100,1079,o),
(1090,930,c),
(1502,930,l)
);
}
);
width = 1522;
},
{
anchors = (
{
name = cedilla;
pos = (766,0);
},
{
name = top;
pos = (766,1676);
}
);
layerId = "B1F27B51-9973-4381-9301-4FE46FE1CA59";
shapes = (
{
closed = 1;
nodes = (
(1116,-20,o),
(1299,256,o),
(1336,466,c),
(1286,466,l),
(1249,265,o),
(1069,26,o),
(766,26,cs),
(460,26,o),
(194,276,o),
(194,744,cs),
(194,1207,o),
(460,1464,o),
(766,1464,cs),
(1069,1464,o),
(1249,1222,o),
(1286,1024,c),
(1336,1024,l),
(1299,1236,o),
(1116,1510,o),
(766,1510,cs),
(399,1510,o),
(148,1201,o),
(148,744,cs),
(148,288,o),
(399,-20,o),
(766,-20,cs)
);
}
);
width = 1480;
},
{
anchors = (
{
name = cedilla;
pos = (671,0);
},
{
name = top;
pos = (949,1676);
}
);
layerId = "200BE2C5-40F6-4CF4-AF4F-A33C0CC0964F";
shapes = (
{
closed = 1;
nodes = (
(1018,-20,o),
(1247,256,o),
(1319,466,c),
(1269,466,l),
(1199,265,o),
(979,26,o),
(675,26,cs),
(370,26,o),
(146,276,o),
(225,744,cs),
(301,1207,o),
(608,1463,o),
(911,1464,cs),
(1217,1463,o),
(1357,1222,o),
(1359,1024,c),
(1409,1024,l),
(1409,1236,o),
(1272,1510,o),
(921,1510,cs),
(554,1510,o),
(253,1201,o),
(179,744,cs),
(101,288,o),
(301,-20,o),
(667,-20,cs)
);
}
);
width = 1481;
}
);
metricLeft = O;
unicode = 67;
userData = {
com.typemytype.robofont.guideline.magnetic.ju3ppiFr9V = 5;
"interface.width-adjustments" = (
-16
);
};
}
{
color = (219,235,247,1);
glyphname = D;
kernLeft = B;
kernRight = D;
layers = (
{
anchors = (
{
name = bottom;
pos = (574,0);
},
{
name = cross;
pos = (222,768);
},
{
name = top;
pos = (568,1676);
}
);
layerId = "C698F293-3EC0-4A5A-A3A0-0FDB1F5CF265";
shapes = (
{
closed = 1;
nodes = (
(1046,0,o),
(1302,282,o),
(1302,748,cs),
(1302,1210,o),
(1046,1490,o),
(612,1490,cs),
(226,1490,l),
(226,1330,l),
(600,1330,ls),
(950,1330,o),
(1128,1108,o),
(1128,748,cs),
(1128,384,o),
(950,160,o),
(580,160,cs),
(234,160,l),
(234,0,l),
(592,0,ls)
);
},
{
closed = 1;
nodes = (
(132,1490,l),
(132,0,l),
(312,0,l),
(312,1490,l)
);
}
);
width = 1376;
},
{
anchors = (
{
name = bottom;
pos = (650,0);
},
{
name = cross;
pos = (272,788);
},
{
name = top;
pos = (570,1676);
}
);
guides = (
{
pos = (1776,1024);
},
{
pos = (-132,764);
},
{
pos = (-132,1548);
},
{
pos = (1740,1696);
},
{
pos = (1740,348);
},
{
pos = (1276,1480);
},
{
pos = (1340,560);
}
);
layerId = "5C20EF92-B63D-42A8-8878-93C2863E0093";
shapes = (
{
closed = 1;
nodes = (
(1099,0,o),
(1386,279,o),
(1386,744,cs),
(1386,1210,o),
(1099,1490,o),
(640,1490,cs),
(232,1490,l),
(232,1146,l),
(618,1146,ls),
(852,1146,o),
(980,1056,o),
(980,744,cs),
(980,433,o),
(852,344,o),
(630,344,cs),
(238,344,l),
(238,0,l),
(646,0,l)
);
},
{
closed = 1;
nodes = (
(72,1490,l),
(72,0,l),
(476,0,l),
(476,1490,l)
);
}
);
width = 1452;
},
{
anchors = (
{
name = bottom;
pos = (388,0);
},
{
name = cross;
pos = (292,768);
},
{
name = top;
pos = (942,1676);
}
);
layerId = "11F4534A-B963-4AB5-820F-DAF9A20CD933";
shapes = (
{
closed = 1;
nodes = (
(959,0,o),
(1255,276,o),
(1330,736,cs),
(1409,1204,o),
(1194,1489,o),
(760,1490,cs),
(380,1490,l),
(354,1330,l),
(734,1330,ls),
(1084,1329,o),
(1220,1114,o),
(1160,760,cs),
(1098,390,o),
(880,160,o),
(510,160,cs),
(168,160,l),
(142,0,l),
(504,0,ls)
);
},
{
closed = 1;
nodes = (
(286,1490,l),
(40,0,l),
(220,0,l),
(466,1490,l)
);
}
);
width = 1375;
},
{
anchors = (
{
name = bottom;
pos = (530,0);
},
{
name = bottom_dd;
pos = (1190,-408);
},
{
name = cross;
pos = (306,768);
},
{
name = top;
pos = (802,1676);
},
{
name = top0315;
pos = (1524,1612);
},
{
name = top_dd;
pos = (1522,1600);
}
);
associatedMasterId = "11F4534A-B963-4AB5-820F-DAF9A20CD933";
layerId = "43B3EEE0-AAB0-4149-B835-61E9C8667B70";
name = "Sep 11 18, 23:23";
shapes = (
{
closed = 1;
nodes = (
(1001,0,o),
(1303,282,o),
(1382,748,c),
(1457,1210,o),
(1248,1489,o),
(814,1490,c),
(428,1490,l),
(402,1330,l),
(776,1330,l),
(1126,1329,o),
(1265,1108,o),
(1208,748,c),
(1146,384,o),
(931,160,o),
(562,160,c),
(216,160,l),
(190,0,l),
(546,0,l)
);
},
{
closed = 1;
nodes = (
(334,1490,l),
(88,0,l),
(268,0,l),
(514,1490,l)
);
}
);
width = 1472;
},
{
anchors = (
{
name = bottom;
pos = (558,0);
},
{
name = cross;
pos = (310,788);
},
{
name = top;
pos = (756,1676);
}
);
guides = (
{
pos = (2128,1024);
},
{
pos = (-40,764);
},
{
pos = (740,1548);
},
{
pos = (2756,1696);
},
{
pos = (1420,348);
},
{
pos = (2076,1480);
},
{
pos = (1228,560);
}
);
layerId = "D0EC06BF-13F9-4C88-A6F5-B8203AF6C77E";
shapes = (
{
closed = 1;
nodes = (
(1015,0,o),
(1337,268,o),
(1414,724,c),
(1492,1199,o),
(1244,1489,o),
(784,1490,c),
(386,1490,l),
(328,1146,l),
(724,1146,l),
(956,1146,o),
(1064,1068,o),
(1014,766,c),
(962,445,o),
(808,343,o),
(586,344,c),
(202,344,l),
(144,0,l),
(560,0,l)
);
},
{
closed = 1;
nodes = (
(226,1490,l),
(-22,0,l),
(384,0,l),
(630,1490,l)
);
}
);
width = 1453;
},
{
anchors = (
{
name = bottom;
pos = (574,0);
},
{
name = bottom_dd;
pos = (1326,-408);
},
{
name = cross;
pos = (326,788);
},
{
name = top;
pos = (754,1586);
},
{
name = top0315;
pos = (1658,1594);
},
{
name = top_dd;
pos = (1658,1600);
}
);
associatedMasterId = "D0EC06BF-13F9-4C88-A6F5-B8203AF6C77E";
guides = (
{
pos = (1992,1024);
},
{
pos = (0,764);
},
{
pos = (260,1548);
},
{
pos = (2180,1696);
},
{
pos = (1732,348);
},
{
pos = (1644,1480);
},
{
pos = (1404,560);
}
);
layerId = "E3EE1E77-C165-47A6-B00B-72F4081D370D";
name = "Sep 14 18, 09:46";
shapes = (
{
closed = 1;
nodes = (
(1021,0,o),
(1356,279,o),
(1434,744,c),
(1510,1210,o),
(1268,1489,o),
(808,1490,c),
(402,1490,l),
(344,1146,l),
(730,1146,l),
(963,1146,o),
(1076,1056,o),
(1026,744,c),
(975,433,o),
(832,343,o),
(610,344,c),
(218,344,l),
(160,0,l),
(568,0,l)
);
},
{
closed = 1;
nodes = (
(242,1490,l),
(-6,0,l),
(398,0,l),
(646,1490,l)
);
}
);
width = 1484;
},
{
anchors = (
{
name = bottom;
pos = (590,0);
},
{
name = cross;
pos = (256,756);
},
{
name = top;
pos = (632,1676);
}
);
layerId = "B1F27B51-9973-4381-9301-4FE46FE1CA59";
shapes = (
{
closed = 1;
nodes = (
(1060,0,o),
(1314,275,o),
(1314,750,cs),
(1314,1214,o),
(1071,1490,o),
(660,1490,cs),
(256,1490,l),
(256,1442,l),
(660,1442,ls),
(1047,1442,o),
(1268,1185,o),
(1268,750,cs),
(1268,309,o),
(1036,46,o),
(622,46,cs),
(256,46,l),
(256,0,l),
(622,0,ls)
);
},
{
closed = 1;
nodes = (
(232,1490,l),
(232,0,l),
(280,0,l),
(280,1490,l)
);
}
);
width = 1462;
},
{
anchors = (
{
name = bottom;
pos = (498,0);
},
{
name = cross;
pos = (288,756);
},
{
name = top;
pos = (818,1676);
}
);
layerId = "200BE2C5-40F6-4CF4-AF4F-A33C0CC0964F";
shapes = (
{
closed = 1;
nodes = (
(966,0,o),
(1265,276,o),
(1346,750,cs),
(1425,1213,o),
(1225,1489,o),
(814,1490,cs),
(410,1490,l),
(402,1442,l),
(806,1442,ls),
(1201,1443,o),
(1372,1193,o),
(1300,750,cs),
(1231,317,o),
(943,47,o),
(538,46,cs),
(172,46,l),
(162,0,l),
(530,0,ls)
);
},
{
closed = 1;
nodes = (
(386,1490,l),
(140,0,l),
(186,0,l),
(434,1490,l)
);
}
);
width = 1462;
}
);
metricLeft = H;
metricRight = O;
note = "!post:RemoveOverlap";
unicode = 68;
userData = {
"interface.width-adjustments" = (
-16
);
};
}
{
color = (219,235,247,1);
glyphname = E;
kernLeft = B;
kernRight = E;
layers = (
{
anchors = (
{
name = bottom;
pos = (566,0);
},
{
name = cedilla;
pos = (568,0);
},
{
name = ogonek;
pos = (1042,0);
},
{
name = tonos;
pos = (86,1490);
},
{
name = top;
pos = (580,1676);
}
);
guides = (
{
orientation = center;
angle = 90;
pos = (-228,516);
}
);
layerId = "C698F293-3EC0-4A5A-A3A0-0FDB1F5CF265";
shapes = (
{
closed = 1;
nodes = (
(1042,0,l),
(1042,160,l),
(312,160,l),
(312,672,l),
(984,672,l),
(984,832,l),
(312,832,l),
(312,1330,l),
(1032,1330,l),
(1032,1490,l),
(132,1490,l),
(132,0,l)
);
}
);
width = 1128;
},
{
anchors = (
{
name = bottom;
pos = (614,0);
},
{
name = cedilla;
pos = (616,0);
},
{
name = ogonek;
pos = (1142,0);
},
{
name = tonos;
pos = (32,1490);
},
{
name = top;
pos = (614,1676);
}
);
guides = (
{
pos = (-132,1360);
},
{
orientation = center;
angle = 90;
pos = (-2309,620);
}
);
layerId = "5C20EF92-B63D-42A8-8878-93C2863E0093";
shapes = (
{
closed = 1;
nodes = (
(1142,0,l),
(1142,326,l),
(476,326,l),
(476,594,l),
(1090,594,l),
(1090,912,l),
(476,912,l),
(476,1164,l),
(1146,1164,l),
(1146,1490,l),
(72,1490,l),
(72,0,l)
);
}
);
width = 1226;
},
{
anchors = (
{
name = bottom;
pos = (472,0);
},
{
name = cedilla;
pos = (476,0);
},
{
name = ogonek;
pos = (950,0);
},
{
name = tonos;
pos = (240,1490);
},
{
name = top;
pos = (766,1676);
}
);
guides = (
{
orientation = center;
angle = 90;
pos = (-436,516);
}
);
layerId = "11F4534A-B963-4AB5-820F-DAF9A20CD933";
shapes = (
{
closed = 1;
nodes = (
(950,0,l),
(976,160,l),
(246,160,l),
(330,666,l),
(1002,666,l),
(1028,826,l),
(356,826,l),
(440,1330,l),
(1160,1330,l),
(1186,1490,l),
(286,1490,l),
(40,0,l)
);
}
);
width = 1128;
},
{
anchors = (
{
name = bottom;
pos = (520,0);
},
{
name = cedilla;
pos = (522,0);
},
{
name = ogonek;
pos = (1050,0);
},
{
name = tonos;
pos = (186,1490);
},
{
name = top;
pos = (800,1676);
}
);
guides = (
{
pos = (260,1360);
},
{
orientation = center;
angle = 90;
pos = (-434,620);
}
);
layerId = "D0EC06BF-13F9-4C88-A6F5-B8203AF6C77E";
shapes = (
{
closed = 1;
nodes = (
(1050,0,l),
(1104,326,l),
(438,326,l),
(480,582,l),
(1094,582,l),
(1148,908,l),
(534,908,l),
(576,1164,l),
(1244,1164,l),
(1300,1490,l),
(226,1490,l),
(-22,0,l)
);
}
);
width = 1226;
},
{
anchors = (
{
name = bottom;
pos = (600,0);
},
{
name = cedilla;
pos = (602,0);
},
{
name = ogonek;
pos = (1048,0);
},
{
name = tonos;
pos = (180,1490);
},
{
name = top;
pos = (634,1676);
}
);
layerId = "B1F27B51-9973-4381-9301-4FE46FE1CA59";
shapes = (
{
closed = 1;
nodes = (
(1048,0,l),
(1048,46,l),
(280,46,l),
(280,722,l),
(984,722,l),
(984,768,l),
(280,768,l),
(280,1442,l),
(1026,1442,l),
(1026,1490,l),
(232,1490,l),
(232,0,l)
);
}
);
width = 1196;
},
{
anchors = (
{
name = bottom;
pos = (506,0);
},
{
name = cedilla;
pos = (510,0);
},
{
name = ogonek;
pos = (954,0);
},
{
name = tonos;
pos = (334,1490);
},
{
name = top;
pos = (818,1676);
}
);
layerId = "200BE2C5-40F6-4CF4-AF4F-A33C0CC0964F";
shapes = (
{
closed = 1;
nodes = (
(954,0,l),
(962,46,l),
(194,46,l),
(306,722,l),
(1010,722,l),
(1018,768,l),
(314,768,l),
(424,1442,l),
(1172,1442,l),
(1182,1490,l),
(386,1490,l),
(140,0,l)
);
}
);
width = 1196;
}
);
metricLeft = H;
unicode = 69;
userData = {
"interface.width-adjustments" = (
-16
);
};
}
{
color = (219,235,247,1);
glyphname = F;
kernLeft = B;
kernRight = F;
layers = (
{
anchors = (
{
name = bottom;
pos = (510,12);
},
{
name = cross;
pos = (222,350);
},
{
name = top;
pos = (598,1676);
}
);
background = {
shapes = (
{
ref = E;
}
);
};
layerId = "C698F293-3EC0-4A5A-A3A0-0FDB1F5CF265";
shapes = (
{
closed = 1;
nodes = (
(312,0,l),
(312,650,l),
(958,650,l),
(958,810,l),
(312,810,l),
(312,1330,l),
(1026,1330,l),
(1026,1490,l),
(132,1490,l),
(132,0,l)
);
}
);
width = 1106;
},
{
anchors = (
{
name = bottom;
pos = (618,12);
},
{
name = cross;
pos = (272,250);
},
{
name = top;
pos = (598,1676);
}
);
background = {
shapes = (
{
ref = E;
}
);
};
guides = (
{
pos = (-132,1320);
}
);
layerId = "5C20EF92-B63D-42A8-8878-93C2863E0093";
shapes = (
{
closed = 1;
nodes = (
(476,0,l),
(476,510,l),
(1056,510,l),
(1056,828,l),
(476,828,l),
(476,1164,l),
(1120,1164,l),
(1120,1490,l),
(72,1490,l),
(72,0,l)
);
}
);
width = 1148;
},
{
anchors = (
{
name = bottom;
pos = (420,12);
},
{
name = cross;
pos = (188,350);
},
{
name = top;
pos = (784,1676);
}
);
layerId = "11F4534A-B963-4AB5-820F-DAF9A20CD933";
shapes = (
{
closed = 1;
nodes = (
(220,0,l),
(330,666,l),
(976,666,l),
(1002,826,l),
(356,826,l),
(440,1330,l),
(1154,1330,l),
(1180,1490,l),
(286,1490,l),
(40,0,l)
);
}
);
width = 1106;
},
{
anchors = (
{
name = bottom;
pos = (528,12);
},
{
name = cross;
pos = (220,250);
},
{
name = top;
pos = (784,1676);
}
);
guides = (
{
pos = (240,1320);
}
);
layerId = "D0EC06BF-13F9-4C88-A6F5-B8203AF6C77E";
shapes = (
{
closed = 1;
nodes = (
(384,0,l),
(480,582,l),
(1058,582,l),
(1114,908,l),
(534,908,l),
(576,1164,l),
(1218,1164,l),
(1274,1490,l),
(226,1490,l),
(-22,0,l)
);
}
);
width = 1148;
},
{
anchors = (
{
name = bottom;
pos = (510,12);
},
{
name = cross;
pos = (256,410);
},
{
name = top;
pos = (634,1676);
}
);
guides = (
{
angle = 90;
pos = (872,2220);
}
);
layerId = "B1F27B51-9973-4381-9301-4FE46FE1CA59";
shapes = (
{
closed = 1;
nodes = (
(280,0,l),
(280,722,l),
(962,722,l),
(962,768,l),
(280,768,l),
(280,1442,l),
(1032,1442,l),
(1032,1490,l),
(232,1490,l),
(232,0,l)
);
}
);
width = 1198;
},
{
anchors = (
{
name = bottom;
pos = (418,12);
},
{
name = cross;
pos = (232,410);
},
{
name = top;
pos = (820,1676);
}
);
layerId = "200BE2C5-40F6-4CF4-AF4F-A33C0CC0964F";
shapes = (
{
closed = 1;
nodes = (
(186,0,l),
(306,722,l),
(990,722,l),
(998,768,l),
(314,768,l),
(424,1442,l),
(1178,1442,l),
(1186,1490,l),
(386,1490,l),
(140,0,l)
);
}
);
width = 1198;
},
{
anchors = (
{
name = bottom;
pos = (558,12);
},
{
name = cross;
pos = (270,350);
},
{
name = top;
pos = (646,1676);
}
);
associatedMasterId = "C698F293-3EC0-4A5A-A3A0-0FDB1F5CF265";
background = {
shapes = (
{
ref = E;
}
);
};
layerId = "C292F685-5F3A-49DB-9317-6C4D88F9DD6B";
name = "May 30, 22, 12:40";
shapes = (
{
closed = 1;
nodes = (
(360,0,l),
(360,666,l),
(1006,666,l),
(1006,826,l),
(360,826,l),
(360,1330,l),
(1074,1330,l),
(1074,1490,l),
(180,1490,l),
(180,0,l)
);
}
);
width = 1202;
}
);
metricLeft = H;
unicode = 70;
userData = {
"interface.width-adjustments" = (
-16
);
};
}
{
color = (219,235,247,1);
glyphname = G;
kernLeft = C;
kernRight = G;
layers = (
{
anchors = (
{
name = bottom;
pos = (722,0);
},
{
name = top;
pos = (726,1676);
}
);
background = {
shapes = (
{
ref = C;
}
);
};
layerId = "C698F293-3EC0-4A5A-A3A0-0FDB1F5CF265";
shapes = (
{
closed = 1;
nodes = (
(1092,-20,o),
(1346,216,o),
(1346,584,cs),
(1346,744,l),
(778,744,l),
(778,584,l),
(1226,584,l),
(1170,596,l),
(1170,322,o),
(993,148,o),
(738,148,cs),
(461,148,o),
(248,358,o),
(248,744,cs),
(248,1132,o),
(461,1342,o),
(726,1342,cs),
(941,1342,o),
(1087,1220,o),
(1150,1024,c),
(1336,1024,l),
(1281,1312,o),
(1040,1510,o),
(726,1510,cs),
(344,1510,o),
(74,1216,o),
(74,744,cs),
(74,273,o),
(342,-20,o),
(738,-20,cs)
);
}
);
width = 1426;
},
{
anchors = (
{
name = bottom;
pos = (778,6);
},
{
name = top;
pos = (782,1676);
}
);
background = {
shapes = (
{
ref = C;
}
);
};
guides = (
{
angle = 7.9575;
pos = (892,1320);
},
{
orientation = center;
angle = 90;
pos = (-2979,528);
},
{
pos = (1228,756);
}
);
layerId = "5C20EF92-B63D-42A8-8878-93C2863E0093";
shapes = (
{
closed = 1;
nodes = (
(1186,-20,o),
(1466,218,o),
(1466,626,cs),
(1466,832,l),
(806,832,l),
(806,544,l),
(1146,544,l),
(1076,552,l),
(1076,417,o),
(984,332,o),
(800,332,cs),
(590,332,o),
(482,486,o),
(482,748,cs),
(482,1006,o),
(599,1158,o),
(802,1158,cs),
(929,1158,o),
(1015,1100,o),
(1040,998,c),
(1448,998,l),
(1417,1297,o),
(1145,1510,o),
(794,1510,cs),
(392,1510,o),
(66,1233,o),
(66,742,cs),
(66,271,o),
(361,-20,o),
(796,-20,cs)
);
}
);
width = 1534;
},
{
anchors = (
{
name = bottom;
pos = (629,0);
},
{
name = top;
pos = (911,1676);
}
);
guides = (
{
pos = (2943,1408);
},
{
angle = 90;
pos = (2767,1304);
},
{
angle = 90;
pos = (2555,1644);
},
{
angle = -99.4;
pos = (1175,1024);
}
);
layerId = "11F4534A-B963-4AB5-820F-DAF9A20CD933";
shapes = (
{
closed = 1;
nodes = (
(995,-20,o),
(1289,215,o),
(1347,584,cs),
(1377,744,l),
(809,744,l),
(781,584,l),
(1229,584,l),
(1175,596,l),
(1132,323,o),
(911,148,o),
(655,148,cs),
(379,148,o),
(216,358,o),
(279,744,cs),
(344,1132,o),
(606,1341,o),
(871,1342,cs),
(1086,1341,o),
(1196,1219,o),
(1225,1024,c),
(1411,1024,l),
(1406,1312,o),
(1196,1510,o),
(881,1510,cs),
(501,1510,o),
(181,1216,o),
(105,744,cs),
(27,273,o),
(245,-20,o),
(641,-20,cs)
);
}
);
width = 1425;
},
{
anchors = (
{
name = bottom;
pos = (680,-12);
},
{
name = bottom_dd;
pos = (1312,-408);
},
{
name = top;
pos = (960,1676);
},
{
name = top0315;
pos = (1650,1632);
},
{
name = top_dd;
pos = (1644,1600);
}
);
associatedMasterId = "11F4534A-B963-4AB5-820F-DAF9A20CD933";
guides = (
{
pos = (2196,1408);
},
{
angle = 90;
pos = (2160,1304);
},
{
angle = 90;
pos = (1492,1644);
}
);
layerId = "4E80DD12-BE55-4A22-8C8A-5EF47AF296F7";
name = "Sep 11 18, 23:24";
shapes = (
{
closed = 1;
nodes = (
(76,273,o),
(303,-20,o),
(692,-20,cs),
(1041,-20,o),
(1335,212,o),
(1396,578,cs),
(1422,738,l),
(884,738,l),
(858,578,l),
(1268,578,l),
(1228,622,l),
(1222,578,l),
(1181,326,o),
(972,148,o),
(718,148,cs),
(442,148,o),
(265,358,o),
(328,744,cs),
(393,1132,o),
(640,1341,o),
(904,1342,cs),
(1097,1341,o),
(1239,1231,o),
(1274,1024,c),
(1458,1024,l),
(1423,1329,o),
(1228,1510,o),
(930,1510,cs),
(553,1510,o),
(233,1216,o),
(154,748,cs)
);
}
);
width = 1522;
},
{
anchors = (
{
name = bottom;
pos = (688,6);
},
{
name = top;
pos = (966,1676);
}
);
background = {
shapes = (
{
pos = (146,0);
ref = C;
}
);
};
layerId = "D0EC06BF-13F9-4C88-A6F5-B8203AF6C77E";
shapes = (
{
closed = 1;
nodes = (
(1091,-20,o),
(1409,218,o),
(1478,626,cs),
(1510,832,l),
(850,832,l),
(804,544,l),
(1144,544,l),
(1074,552,l),
(1053,417,o),
(940,332,o),
(754,332,cs),
(545,332,o),
(471,486,o),
(514,748,cs),
(556,1006,o),
(713,1158,o),
(918,1158,cs),
(1043,1158,o),
(1105,1100,o),
(1112,998,c),
(1520,998,l),
(1540,1297,o),
(1303,1510,o),
(952,1510,cs),
(550,1510,o),
(178,1233,o),
(96,742,cs),
(19,271,o),
(266,-20,o),
(700,-20,cs)
);
}
);
width = 1534;
},
{
anchors = (
{
name = bottom;
pos = (684,6);
},
{
name = bottom_dd;
pos = (1374,-408);
},
{
name = top;
pos = (942,1586);
},
{
name = top0315;
pos = (1704,1588);
},
{
name = top_dd;
pos = (1704,1600);
}
);
associatedMasterId = "D0EC06BF-13F9-4C88-A6F5-B8203AF6C77E";
background = {
shapes = (
{
ref = C;
}
);
};
guides = (
{
angle = 7.9575;
pos = (1208,1320);
},
{
angle = 90;
pos = (944,528);
},
{
pos = (1356,756);
}
);
layerId = "DB24DE82-64F7-46A2-B463-9A6336A82810";
name = "Sep 14 18, 09:43";
shapes = (
{
closed = 1;
nodes = (
(35,271,o),
(268,-20,o),
(690,-20,cs),
(1071,-20,o),
(1385,218,o),
(1452,626,cs),
(1484,820,l),
(812,820,l),
(766,538,l),
(1140,538,l),
(1070,626,l),
(1056,538,l),
(1021,407,o),
(887,337,o),
(756,338,cs),
(564,337,o),
(480,489,o),
(524,748,cs),
(564,1004,o),
(698,1155,o),
(888,1154,cs),
(1030,1155,o),
(1079,1068,o),
(1088,998,c),
(1502,998,l),
(1533,1295,o),
(1283,1510,o),
(936,1510,cs),
(547,1510,o),
(192,1233,o),
(110,742,cs)
);
}
);
width = 1524;
},
{
anchors = (
{
name = bottom;
pos = (756,0);
},
{
name = top;
pos = (756,1676);
}
);
guides = (
{
pos = (1872,1408);
}
);
layerId = "B1F27B51-9973-4381-9301-4FE46FE1CA59";
shapes = (
{
closed = 1;
nodes = (
(1105,-20,o),
(1346,221,o),
(1346,628,cs),
(1346,674,l),
(786,674,l),
(786,628,l),
(1320,628,l),
(1300,646,l),
(1300,248,o),
(1082,26,o),
(770,26,cs),
(419,26,o),
(194,319,o),
(194,744,cs),
(194,1175,o),
(423,1464,o),
(766,1464,cs),
(1071,1464,o),
(1253,1227,o),
(1288,1024,c),
(1336,1024,l),
(1300,1236,o),
(1113,1510,o),
(766,1510,cs),
(396,1510,o),
(148,1203,o),
(148,744,cs),
(148,289,o),
(393,-20,o),
(770,-20,cs)
);
}
);
width = 1512;
},
{
anchors = (
{
name = bottom;
pos = (661,0);
},
{
name = top;
pos = (941,1676);
}
);
layerId = "200BE2C5-40F6-4CF4-AF4F-A33C0CC0964F";
shapes = (
{
closed = 1;
nodes = (
(1008,-20,o),
(1289,221,o),
(1357,628,cs),
(1365,674,l),
(803,674,l),
(795,628,l),
(1331,628,l),
(1313,646,l),
(1255,261,o),
(988,26,o),
(681,26,cs),
(322,26,o),
(152,311,o),
(225,744,cs),
(303,1205,o),
(609,1463,o),
(911,1464,cs),
(1230,1463,o),
(1362,1233,o),
(1363,1024,c),
(1409,1024,l),
(1410,1236,o),
(1273,1510,o),
(921,1510,cs),
(554,1510,o),
(253,1201,o),
(179,744,cs),
(101,288,o),
(295,-20,o),
(673,-20,cs)
);
}
);
width = 1513;
}
);
metricLeft = O;
note = "C + hook segments";
unicode = 71;
userData = {
com.typemytype.robofont.guideline.magnetic.DBpTQJmUAf = 5;
com.typemytype.robofont.guideline.magnetic.Mdeh49HlEG = 5;
com.typemytype.robofont.guideline.magnetic.iFgX6ho5qJ = 5;
"interface.width-adjustments" = (
-16
);
};
}
{
color = (219,235,247,1);
glyphname = H;
kernLeft = B;
kernRight = H;
layers = (
{
anchors = (
{
name = bottom;
pos = (708,0);
},
{
name = cedilla;
pos = (246,-2);
},
{
name = cyrtic;
pos = (1352,64);
},
{
name = right;
pos = (1286,0);
},
{
name = tonos;
pos = (98,1490);
},
{
name = top;
pos = (708,1676);
}
);
guides = (
{
orientation = center;
angle = 90;
pos = (-522,56);
},
{
angle = 90;
pos = (660,1400);
}
);
layerId = "C698F293-3EC0-4A5A-A3A0-0FDB1F5CF265";
shapes = (
{
closed = 1;
nodes = (
(312,0,l),
(312,666,l),
(1106,666,l),
(1106,0,l),
(1286,0,l),
(1286,1490,l),
(1106,1490,l),
(1106,826,l),
(312,826,l),
(312,1490,l),
(132,1490,l),
(132,0,l)
);
}
);
width = 1418;
},
{
anchors = (
{
name = bottom;
pos = (744,0);
},
{
name = cedilla;
pos = (264,0);
},
{
name = cyrtic;
pos = (1608,162);
},
{
name = right;
pos = (1416,0);
},
{
name = tonos;
pos = (38,1490);
},
{
name = top;
pos = (744,1676);
}
);
layerId = "5C20EF92-B63D-42A8-8878-93C2863E0093";
shapes = (
{
closed = 1;
nodes = (
(476,0,l),
(476,582,l),
(1012,582,l),
(1012,0,l),
(1416,0,l),
(1416,1490,l),
(1012,1490,l),
(1012,908,l),
(476,908,l),
(476,1490,l),
(72,1490,l),
(72,0,l)
);
}
);
width = 1488;
},
{
anchors = (
{
name = bottom;
pos = (616,0);
},
{
name = cedilla;
pos = (150,0);
},
{
name = cyrtic;
pos = (1272,64);
},
{
name = right;
pos = (1192,0);
},
{
name = tonos;
pos = (246,1490);
},
{
name = top;
pos = (904,1678);
}
);
guides = (
{
orientation = center;
angle = 90;
pos = (-876,56);
}
);
layerId = "11F4534A-B963-4AB5-820F-DAF9A20CD933";
shapes = (
{
closed = 1;
nodes = (
(220,0,l),
(330,666,l),
(1124,666,l),
(1014,0,l),
(1194,0,l),
(1442,1490,l),
(1262,1490,l),
(1150,826,l),
(356,826,l),
(466,1490,l),
(286,1490,l),
(40,0,l)
);
}
);
width = 1420;
},
{
anchors = (
{
name = bottom;
pos = (650,0);
},
{
name = cedilla;
pos = (170,0);
},
{
name = cyrtic;
pos = (1542,162);
},
{
name = right;
pos = (1322,0);
},
{
name = tonos;
pos = (192,1490);
},
{
name = top;
pos = (930,1676);
}
);
guides = (
{
pos = (696,1652);
},
{
orientation = center;
angle = 90;
pos = (-96,1344);
}
);
layerId = "D0EC06BF-13F9-4C88-A6F5-B8203AF6C77E";
shapes = (
{
closed = 1;
nodes = (
(384,0,l),
(480,582,l),
(1014,582,l),
(918,0,l),
(1322,0,l),
(1570,1490,l),
(1166,1490,l),
(1070,908,l),
(534,908,l),
(630,1490,l),
(226,1490,l),
(-22,0,l)
);
}
);
width = 1488;
},
{
anchors = (
{
name = bottom;
pos = (754,0);
},
{
name = cedilla;
pos = (256,-6);
},
{
name = cyrtic;
pos = (1294,6);
},
{
name = right;
pos = (1274,0);
},
{
name = tonos;
pos = (198,1490);
},
{
name = top;
pos = (754,1676);
}
);
layerId = "B1F27B51-9973-4381-9301-4FE46FE1CA59";
shapes = (
{
closed = 1;
nodes = (
(280,0,l),
(280,722,l),
(1228,722,l),
(1228,0,l),
(1274,0,l),
(1274,1490,l),
(1228,1490,l),
(1228,768,l),
(280,768,l),
(280,1490,l),
(232,1490,l),
(232,0,l)
);
}
);
width = 1506;
},
{
anchors = (
{
name = bottom;
pos = (660,0);
},
{
name = cedilla;
pos = (162,-6);
},
{
name = cyrtic;
pos = (1202,6);
},
{
name = right;
pos = (1182,0);
},
{
name = tonos;
pos = (352,1490);
},
{
name = top;
pos = (940,1676);
}
);
layerId = "200BE2C5-40F6-4CF4-AF4F-A33C0CC0964F";
shapes = (
{
closed = 1;
nodes = (
(186,0,l),
(306,722,l),
(1254,722,l),
(1134,0,l),
(1182,0,l),
(1428,1490,l),
(1382,1490,l),
(1262,768,l),
(314,768,l),
(434,1490,l),
(386,1490,l),
(140,0,l)
);
}
);
width = 1506;
}
);
unicode = 72;
userData = {
"interface.width-adjustments" = (
-16
);
};
}
{
color = (219,235,247,1);
glyphname = I;
kernLeft = B;
kernRight = H;
layers = (
{
anchors = (
{
name = bottom;
pos = (222,0);
},
{
name = cross;
pos = (222,768);
},
{
name = ogonek;
pos = (312,0);
},
{
name = right;
pos = (328,0);
},
{
name = tonos;
pos = (132,1490);
},
{
name = top;
pos = (222,1676);
}
);
guides = (
{
angle = 90;
pos = (276,1848);
}
);
layerId = "C698F293-3EC0-4A5A-A3A0-0FDB1F5CF265";
shapes = (
{
closed = 1;
nodes = (
(132,1490,l),
(132,0,l),
(312,0,l),
(312,1490,l)
);
}
);
width = 444;
},
{
anchors = (
{
name = bottom;
pos = (272,0);
},
{
name = cross;
pos = (272,788);
},
{
name = ogonek;
pos = (476,0);
},
{
name = right;
pos = (502,0);
},
{
name = tonos;
pos = (72,1490);
},
{
name = top;
pos = (276,1676);
}
);
guides = (
{
orientation = center;
angle = 90;
pos = (-1258,1240);
}
);
layerId = "5C20EF92-B63D-42A8-8878-93C2863E0093";
shapes = (
{
closed = 1;
nodes = (
(72,1490,l),
(72,0,l),
(476,0,l),
(476,1490,l)
);
}
);
width = 548;
},
{
anchors = (
{
name = bottom;
pos = (132,0);
},
{
name = cross;
pos = (258,768);
},
{
name = ogonek;
pos = (220,0);
},
{
name = right;
pos = (234,0);
},
{
name = tonos;
pos = (286,1490);
},
{
name = top;
pos = (406,1676);
}
);
guides = (
{
angle = -99.4;
pos = (456,1852);
}
);
layerId = "11F4534A-B963-4AB5-820F-DAF9A20CD933";
shapes = (
{
closed = 1;
nodes = (
(286,1490,l),
(40,0,l),
(220,0,l),
(466,1490,l)
);
}
);
width = 445;
},
{
anchors = (
{
name = bottom;
pos = (182,0);
},
{
name = cross;
pos = (310,788);
},
{
name = ogonek;
pos = (384,0);
},
{
name = right;
pos = (410,0);
},
{
name = tonos;
pos = (226,1490);
},
{
name = top;
pos = (462,1676);
}
);
guides = (
{
angle = -99.4;
pos = (556,1356);
}
);
layerId = "D0EC06BF-13F9-4C88-A6F5-B8203AF6C77E";
shapes = (
{
closed = 1;
nodes = (
(226,1490,l),
(-22,0,l),
(384,0,l),
(630,1490,l)
);
}
);
width = 549;
},
{
anchors = (
{
name = bottom;
pos = (256,0);
},
{
name = cross;
pos = (256,768);
},
{
name = ogonek;
pos = (280,0);
},
{
name = right;
pos = (288,0);
},
{
name = tonos;
pos = (232,1490);
},
{
name = top;
pos = (256,1676);
}
);
layerId = "B1F27B51-9973-4381-9301-4FE46FE1CA59";
shapes = (
{
closed = 1;
nodes = (
(232,1490,l),
(232,0,l),
(280,0,l),
(280,1490,l)
);
}
);
width = 512;
},
{
anchors = (
{
name = bottom;
pos = (162,0);
},
{
name = cross;
pos = (290,768);
},
{
name = ogonek;
pos = (186,0);
},
{
name = right;
pos = (194,0);
},
{
name = tonos;
pos = (386,1490);
},
{
name = top;
pos = (442,1676);
}
);
layerId = "200BE2C5-40F6-4CF4-AF4F-A33C0CC0964F";
shapes = (
{
closed = 1;
nodes = (
(386,1490,l),
(140,0,l),
(186,0,l),
(434,1490,l)
);
}
);
width = 511;
}
);
metricLeft = H;
metricRight = H;
unicode = 73;
userData = {
"interface.width-adjustments" = (
-16
);
};
}
{
color = (219,235,247,1);
glyphname = J;
kernLeft = J;
kernRight = J;
layers = (
{
anchors = (
{
name = cross;
pos = (808,884);
},
{
name = top;
pos = (808,1676);
}
);
guides = (
{
angle = 90;
pos = (1112,2256);
}
);
layerId = "B1F27B51-9973-4381-9301-4FE46FE1CA59";
shapes = (
{
closed = 1;
nodes = (
(662,-20,o),
(832,93,o),
(832,396,cs),
(832,1490,l),
(786,1490,l),
(786,396,ls),
(786,119,o),
(634,26,o),
(472,26,cs),
(294,26,o),
(156,134,o),
(156,280,cs),
(156,288,l),
(110,288,l),
(110,280,ls),
(110,108,o),
(266,-20,o),
(472,-20,cs)
);
}
);
width = 1064;
},
{
anchors = (
{
name = cross;
pos = (862,884);
},
{
name = top;
pos = (993,1676);
}
);
layerId = "200BE2C5-40F6-4CF4-AF4F-A33C0CC0964F";
shapes = (
{
closed = 1;
nodes = (
(566,-20,o),
(755,93,o),
(805,396,cs),
(986,1490,l),
(940,1490,l),
(759,396,ls),
(713,119,o),
(546,26,o),
(384,26,cs),
(206,26,o),
(86,134,o),
(110,280,cs),
(111,288,l),
(65,288,l),
(64,280,ls),
(35,108,o),
(170,-20,o),
(376,-20,cs)
);
}
);
width = 1063;
},
{
anchors = (
{
name = cross;
pos = (792,884);
},
{
name = top;
pos = (792,1676);
}
);
guides = (
{
angle = 90;
pos = (1060,1476);
},
{
angle = 90;
pos = (600,492);
}
);
layerId = "C698F293-3EC0-4A5A-A3A0-0FDB1F5CF265";
shapes = (
{
closed = 1;
nodes = (
(717,-20,o),
(882,139,o),
(882,424,cs),
(882,1490,l),
(702,1490,l),
(702,424,ls),
(702,239,o),
(614,140,o),
(458,140,cs),
(316,140,o),
(214,223,o),
(214,350,cs),
(214,384,l),
(36,384,l),
(36,350,ls),
(36,120,o),
(214,-20,o),
(458,-20,cs)
);
}
);
width = 1014;
},
{
anchors = (
{
name = cross;
pos = (846,884);
},
{
name = top;
pos = (977,1676);
}
);
guides = (
{
angle = -99.4;
pos = (1180,1492);
}
);
layerId = "11F4534A-B963-4AB5-820F-DAF9A20CD933";
shapes = (
{
closed = 1;
nodes = (
(621,-20,o),
(813,139,o),
(860,424,c),
(1036,1490,l),
(856,1490,l),
(680,424,l),
(650,239,o),
(545,140,o),
(389,140,cs),
(247,140,o),
(158,223,o),
(179,350,cs),
(185,384,l),
(7,384,l),
(1,350,ls),
(-37,120,o),
(118,-20,o),
(362,-20,cs)
);
}
);
width = 1014;
},
{
anchors = (
{
name = cross;
pos = (880,884);
},
{
name = top;
pos = (884,1676);
}
);
guides = (
{
angle = 90;
pos = (1104,1476);
}
);
layerId = "5C20EF92-B63D-42A8-8878-93C2863E0093";
shapes = (
{
closed = 1;
nodes = (
(876,-20,o),
(1084,177,o),
(1084,468,cs),
(1084,1490,l),
(686,1490,l),
(686,468,ls),
(686,353,o),
(636,294,o),
(546,294,cs),
(457,294,o),
(404,353,o),
(404,466,cs),
(404,472,l),
(0,472,l),
(0,466,ls),
(0,122,o),
(259,-20,o),
(546,-20,cs)
);
}
);
width = 1156;
},
{
anchors = (
{
name = cross;
pos = (934,884);
},
{
name = top;
pos = (1069,1676);
}
);
background = {
shapes = (
{
closed = 1;
nodes = (
(679,384,o),
(620,294,o),
(520,294,cs),
(434,294,o),
(396,349,o),
(414,466,c),
(8,466,l),
(-52,122,o),
(161,-20,o),
(448,-20,cs),
(777,-20,o),
(1042,177,o),
(1094,468,c),
(1262,1490,l),
(864,1490,l),
(696,468,l)
);
}
);
};
guides = (
{
angle = -99.4;
pos = (1676,1484);
}
);
layerId = "D0EC06BF-13F9-4C88-A6F5-B8203AF6C77E";
shapes = (
{
closed = 1;
nodes = (
(754,-20,o),
(1021,177,o),
(1069,468,cs),
(1238,1490,l),
(840,1490,l),
(671,468,ls),
(652,353,o),
(592,294,o),
(502,294,cs),
(413,294,o),
(370,353,o),
(389,466,cs),
(390,472,l),
(-14,472,l),
(-15,466,ls),
(-72,122,o),
(137,-20,o),
(424,-20,cs)
);
}
);
width = 1156;
},
{
anchors = (
{
name = bottom;
pos = (488,-12);
},
{
name = bottom_dd;
pos = (1096,-408);
},
{
name = cross;
pos = (1032,884);
},
{
name = top;
pos = (1140,1570);
},
{
name = top0315;
pos = (1428,1600);
},
{
name = top_dd;
pos = (1428,1600);
}
);
associatedMasterId = "D0EC06BF-13F9-4C88-A6F5-B8203AF6C77E";
layerId = "AD268349-6365-406D-9447-8D02F922AB8D";
name = "Sep 14 18, 09:53";
shapes = (
{
closed = 1;
nodes = (
(753,384,o),
(695,294,o),
(594,294,cs),
(509,294,o),
(471,349,o),
(486,466,c),
(82,466,l),
(23,122,o),
(236,-20,o),
(520,-20,cs),
(852,-20,o),
(1117,177,o),
(1166,468,c),
(1336,1490,l),
(936,1490,l),
(768,468,l)
);
}
);
width = 1274;
}
);
metricRight = H;
unicode = 74;
}
{
color = (219,235,247,1);
glyphname = K;
kernLeft = B;
kernRight = K;
layers = (
{
anchors = (
{
name = bottom;
pos = (622,0);
},
{
name = top;
pos = (626,1676);
}
);
guides = (
{
angle = 227.6708;
pos = (1652,2048);
},
{
angle = 90;
pos = (832,212);
}
);
layerId = "C698F293-3EC0-4A5A-A3A0-0FDB1F5CF265";
shapes = (
{
closed = 1;
nodes = (
(312,0,l),
(312,482,l),
(498,692,l),
(1016,0,l),
(1234,0,l),
(610,818,l),
(1234,1490,l),
(1000,1490,l),
(330,750,l),
(312,750,l),
(312,1490,l),
(132,1490,l),
(132,0,l)
);
}
);
width = 1240;
},
{
anchors = (
{
name = bottom;
pos = (698,2);
},
{
name = top;
pos = (700,1676);
}
);
guides = (
{
orientation = center;
angle = 90;
pos = (-2672,1820);
}
);
layerId = "5C20EF92-B63D-42A8-8878-93C2863E0093";
shapes = (
{
closed = 1;
nodes = (
(476,0,l),
(476,384,l),
(610,558,l),
(944,0,l),
(1428,0,l),
(912,826,l),
(1416,1490,l),
(944,1490,l),
(496,888,l),
(476,888,l),
(476,1490,l),
(72,1490,l),
(72,0,l)
);
}
);
width = 1416;
},
{
anchors = (
{
name = bottom;
pos = (548,0);
},
{
name = top;
pos = (808,1676);
}
);
guides = (
{
angle = -99.4;
pos = (740,212);
}
);
layerId = "11F4534A-B963-4AB5-820F-DAF9A20CD933";
shapes = (
{
closed = 1;
nodes = (
(220,0,l),
(302,482,l),
(522,692,l),
(924,0,l),
(1142,0,l),
(654,818,l),
(1390,1490,l),
(1154,1490,l),
(362,750,l),
(344,750,l),
(466,1490,l),
(286,1490,l),
(40,0,l)
);
}
);
width = 1240;
},
{
anchors = (
{
name = bottom;
pos = (608,2);
},
{
name = top;
pos = (886,1676);
}
);
guides = (
{
angle = -99.4;
pos = (1396,1372);
}
);
layerId = "D0EC06BF-13F9-4C88-A6F5-B8203AF6C77E";
shapes = (
{
closed = 1;
nodes = (
(384,0,l),
(448,382,l),
(614,558,l),
(852,0,l),
(1334,0,l),
(960,826,l),
(1570,1490,l),
(1098,1490,l),
(552,888,l),
(532,888,l),
(630,1490,l),
(226,1490,l),
(-22,0,l)
);
}
);
width = 1416;
},
{
anchors = (
{
name = bottom;
pos = (634,0);
},
{
name = top;
pos = (638,1676);
}
);
guides = (
{
angle = 227.6708;
pos = (1640,2048);
}
);
layerId = "B1F27B51-9973-4381-9301-4FE46FE1CA59";
shapes = (
{
closed = 1;
nodes = (
(280,0,l),
(280,486,l),
(504,734,l),
(1122,0,l),
(1184,0,l),
(536,768,l),
(1192,1490,l),
(1128,1490,l),
(286,562,l),
(280,562,l),
(280,1490,l),
(232,1490,l),
(232,0,l)
);
}
);
width = 1262;
},
{
anchors = (
{
name = bottom;
pos = (542,0);
},
{
name = top;
pos = (824,1676);
}
);
layerId = "200BE2C5-40F6-4CF4-AF4F-A33C0CC0964F";
shapes = (
{
closed = 1;
nodes = (
(186,0,l),
(268,486,l),
(532,734,l),
(1030,0,l),
(1090,0,l),
(570,768,l),
(1346,1490,l),
(1282,1490,l),
(286,562,l),
(280,562,l),
(434,1490,l),
(386,1490,l),
(140,0,l)
);
}
);
width = 1262;
}
);
metricLeft = H;
unicode = 75;
userData = {
com.typemytype.robofont.guideline.magnetic.bB6GeEoQ3O = 5;
"interface.width-adjustments" = (
-16
);
};
}
{
color = (219,235,247,1);
glyphname = L;
kernLeft = B;
kernRight = L;
layers = (
{
anchors = (
{
name = bottom;
pos = (568,0);
},
{
name = cross;
pos = (222,768);
},
{
name = dot;
pos = (558,794);
},
{
name = raccent;
pos = (566,1490);
},
{
name = top;
pos = (222,1676);
}
);
guides = (
{
angle = 90;
pos = (276,1944);
},
{
angle = 90;
pos = (752,-100);
}
);
layerId = "C698F293-3EC0-4A5A-A3A0-0FDB1F5CF265";
shapes = (
{
closed = 1;
nodes = (
(1006,0,l),
(1006,160,l),
(312,160,l),
(312,1490,l),
(132,1490,l),
(132,0,l)
);
}
);
width = 1056;
},
{
anchors = (
{
name = bottom;
pos = (576,0);
},
{
name = cross;
pos = (272,788);
},
{
name = dot;
pos = (582,872);
},
{
name = raccent;
pos = (680,1490);
},
{
name = top;
pos = (270,1676);
}
);
guides = (
{
pos = (-132,1304);
},
{
angle = 90;
pos = (680,584);
},
{
pos = (844,-416);
}
);
layerId = "5C20EF92-B63D-42A8-8878-93C2863E0093";
shapes = (
{
closed = 1;
nodes = (
(1078,0,l),
(1078,326,l),
(476,326,l),
(476,1490,l),
(72,1490,l),
(72,0,l)
);
}
);
width = 1122;
},
{
anchors = (
{
name = bottom;
pos = (484,0);
},
{
name = cross;
pos = (258,768);
},
{
name = dot;
pos = (594,794);
},
{
name = raccent;
pos = (718,1490);
},
{
name = top;
pos = (412,1676);
}
);
layerId = "11F4534A-B963-4AB5-820F-DAF9A20CD933";
shapes = (
{
closed = 1;
nodes = (
(912,0,l),
(938,160,l),
(246,160,l),
(466,1490,l),
(286,1490,l),
(40,0,l)
);
}
);
width = 1056;
},
{
anchors = (
{
name = bottom;
pos = (436,0);
},
{
name = cross;
pos = (310,788);
},
{
name = dot;
pos = (634,872);
},
{
name = raccent;
pos = (838,1490);
},
{
name = top;
pos = (456,1676);
}
);
guides = (
{
pos = (228,1304);
},
{
orientation = center;
angle = 90;
pos = (-170,584);
}
);
layerId = "D0EC06BF-13F9-4C88-A6F5-B8203AF6C77E";
shapes = (
{
closed = 1;
nodes = (
(986,0,l),
(1040,326,l),
(438,326,l),
(630,1490,l),
(226,1490,l),
(-22,0,l)
);
}
);
width = 1122;
},
{
anchors = (
{
name = bottom;
pos = (628,0);
},
{
name = cross;
pos = (256,768);
},
{
name = dot;
pos = (606,748);
},
{
name = raccent;
pos = (626,1490);
},
{
name = top;
pos = (256,1676);
}
);
guides = (
{
angle = 90;
pos = (864,2088);
},
{
angle = 90;
pos = (352,1932);
}
);
layerId = "B1F27B51-9973-4381-9301-4FE46FE1CA59";
shapes = (
{
closed = 1;
nodes = (
(1024,0,l),
(1024,46,l),
(280,46,l),
(280,1490,l),
(232,1490,l),
(232,0,l)
);
}
);
width = 1152;
},
{
anchors = (
{
name = bottom;
pos = (536,0);
},
{
name = cross;
pos = (290,768);
},
{
name = dot;
pos = (638,748);
},
{
name = raccent;
pos = (780,1490);
},
{
name = top;
pos = (442,1676);
}
);
layerId = "200BE2C5-40F6-4CF4-AF4F-A33C0CC0964F";
shapes = (
{
closed = 1;
nodes = (
(930,0,l),
(940,46,l),
(194,46,l),
(434,1490,l),
(386,1490,l),
(140,0,l)
);
}
);
width = 1152;
}
);
metricLeft = H;
unicode = 76;
userData = {
"interface.width-adjustments" = (
-16
);
};
}
{
color = (219,235,247,1);
glyphname = M;
kernLeft = B;
kernRight = H;
layers = (
{
anchors = (
{
name = bottom;
pos = (862,0);
},
{
name = right;
pos = (1594,0);
},
{
name = top;
pos = (862,1676);
}
);
guides = (
{
orientation = center;
angle = 90;
pos = (-653,152);
},
{
angle = 90;
pos = (420,2056);
},
{
angle = 90;
pos = (1836,2060);
}
);
layerId = "C698F293-3EC0-4A5A-A3A0-0FDB1F5CF265";
shapes = (
{
closed = 1;
nodes = (
(132,0,l),
(302,0,l),
(302,1132,l),
(316,1132,l),
(779,0,l),
(941,0,l),
(1410,1132,l),
(1424,1132,l),
(1424,0,l),
(1601,0,l),
(1601,1490,l),
(1378,1490,l),
(872,254,l),
(854,254,l),
(348,1490,l),
(132,1490,l)
);
}
);
width = 1733;
},
{
anchors = (
{
name = bottom;
pos = (930,0);
},
{
name = right;
pos = (1788,0);
},
{
name = top;
pos = (930,1676);
}
);
guides = (
{
pos = (44,1220);
},
{
orientation = center;
angle = 90;
pos = (-3742,2164);
}
);
layerId = "5C20EF92-B63D-42A8-8878-93C2863E0093";
shapes = (
{
closed = 1;
nodes = (
(72,0,l),
(468,0,l),
(468,866,l),
(480,866,l),
(810,12,l),
(1050,12,l),
(1382,862,l),
(1392,862,l),
(1392,0,l),
(1788,0,l),
(1788,1490,l),
(1286,1490,l),
(938,646,l),
(922,646,l),
(576,1490,l),
(72,1490,l)
);
}
);
width = 1860;
},
{
anchors = (
{
name = bottom;
pos = (770,0);
},
{
name = right;
pos = (1480,0);
},
{
name = top;
pos = (1048,1676);
}
);
guides = (
{
angle = 90;
pos = (620,152);
},
{
angle = 90;
pos = (1488,2056);
},
{
angle = 90;
pos = (2904,2060);
}
);
layerId = "11F4534A-B963-4AB5-820F-DAF9A20CD933";
shapes = (
{
closed = 1;
nodes = (
(40,0,l),
(208,0,l),
(398,1132,l),
(412,1132,l),
(688,0,l),
(850,0,l),
(1506,1132,l),
(1520,1132,l),
(1330,0,l),
(1500,0,l),
(1746,1490,l),
(1532,1490,l),
(822,254,l),
(804,254,l),
(502,1490,l),
(286,1490,l)
);
}
);
width = 1725;
},
{
anchors = (
{
name = bottom;
pos = (838,0);
},
{
name = right;
pos = (1696,0);
},
{
name = top;
pos = (1116,1676);
}
);
guides = (
{
pos = (336,1220);
},
{
angle = 90;
pos = (2136,1848);
},
{
angle = 90;
pos = (1868,2164);
},
{
angle = 90;
pos = (2832,2040);
}
);
layerId = "D0EC06BF-13F9-4C88-A6F5-B8203AF6C77E";
shapes = (
{
closed = 1;
nodes = (
(-22,0,l),
(374,0,l),
(520,866,l),
(532,866,l),
(720,12,l),
(960,12,l),
(1430,862,l),
(1442,862,l),
(1300,0,l),
(1696,0,l),
(1942,1490,l),
(1440,1490,l),
(954,646,l),
(936,646,l),
(730,1490,l),
(226,1490,l)
);
}
);
width = 1861;
},
{
anchors = (
{
name = bottom;
pos = (998,2);
},
{
name = bottom_dd;
pos = (1960,-408);
},
{
name = right;
pos = (1850,0);
},
{
name = top;
pos = (998,1586);
},
{
name = top0315;
pos = (1960,1600);
},
{
name = top_dd;
pos = (1960,1600);
}
);
associatedMasterId = "5C20EF92-B63D-42A8-8878-93C2863E0093";
guides = (
{
pos = (188,1220);
},
{
angle = 90;
pos = (1572,1848);
},
{
angle = 90;
pos = (1088,2164);
},
{
angle = 90;
pos = (2140,2040);
}
);
layerId = "75B701FF-9FEA-46EA-B4EE-AB55E07CEDFA";
name = "Oct 6 18, 13:17";
shapes = (
{
closed = 1;
nodes = (
(96,0,l),
(504,0,l),
(504,916,l),
(514,916,l),
(870,30,l),
(1126,30,l),
(1480,910,l),
(1492,910,l),
(1492,0,l),
(1900,0,l),
(1900,1490,l),
(1368,1490,l),
(1006,640,l),
(990,640,l),
(628,1490,l),
(96,1490,l)
);
}
);
width = 1996;
},
{
anchors = (
{
name = bottom;
pos = (884,0);
},
{
name = right;
pos = (1536,0);
},
{
name = top;
pos = (884,1676);
}
);
layerId = "B1F27B51-9973-4381-9301-4FE46FE1CA59";
shapes = (
{
closed = 1;
nodes = (
(232,0,l),
(280,0,l),
(280,1344,l),
(286,1344,l),
(862,0,l),
(908,0,l),
(1484,1344,l),
(1490,1344,l),
(1490,0,l),
(1536,0,l),
(1536,1490,l),
(1496,1490,l),
(888,70,l),
(882,70,l),
(274,1490,l),
(232,1490,l)
);
}
);
width = 1768;
},
{
anchors = (
{
name = bottom;
pos = (792,0);
},
{
name = right;
pos = (1442,0);
},
{
name = top;
pos = (1070,1676);
}
);
layerId = "200BE2C5-40F6-4CF4-AF4F-A33C0CC0964F";
shapes = (
{
closed = 1;
nodes = (
(140,0,l),
(186,0,l),
(410,1344,l),
(416,1344,l),
(768,0,l),
(814,0,l),
(1614,1344,l),
(1620,1344,l),
(1396,0,l),
(1442,0,l),
(1690,1490,l),
(1650,1490,l),
(806,70,l),
(800,70,l),
(428,1490,l),
(386,1490,l)
);
}
);
width = 1767;
}
);
metricLeft = H;
metricRight = H;
unicode = 77;
userData = {
com.typemytype.robofont.guideline.magnetic.ezYETy42tZ = 5;
com.typemytype.robofont.guideline.magnetic.wu5HJlZVk6 = 5;
com.typemytype.robofont.guideline.magnetic.x5YoYrsuLC = 5;
"interface.width-adjustments" = (
-16
);
};
}
{
color = (219,235,247,1);
glyphname = N;
kernLeft = B;
kernRight = H;
layers = (
{
anchors = (
{
name = bottom;
pos = (792,0);
},
{
name = right;
pos = (1300,0);
},
{
name = top;
pos = (792,1676);
}
);
layerId = "B1F27B51-9973-4381-9301-4FE46FE1CA59";
shapes = (
{
closed = 1;
nodes = (
(1304,1490,l),
(1304,88,l),
(1298,88,l),
(280,1490,l),
(232,1490,l),
(232,0,l),
(280,0,l),
(280,1402,l),
(286,1402,l),
(1304,0,l),
(1350,0,l),
(1350,1490,l)
);
}
);
width = 1582;
},
{
anchors = (
{
name = bottom;
pos = (698,0);
},
{
name = right;
pos = (1208,0);
},
{
name = top;
pos = (978,1676);
}
);
layerId = "200BE2C5-40F6-4CF4-AF4F-A33C0CC0964F";
shapes = (
{
closed = 1;
nodes = (
(1458,1490,l),
(1224,88,l),
(1218,88,l),
(434,1490,l),
(386,1490,l),
(140,0,l),
(186,0,l),
(418,1402,l),
(424,1402,l),
(1210,0,l),
(1256,0,l),
(1504,1490,l)
);
}
);
width = 1581;
},
{
anchors = (
{
name = bottom;
pos = (722,0);
},
{
name = right;
pos = (1316,0);
},
{
name = top;
pos = (722,1676);
}
);
layerId = "C698F293-3EC0-4A5A-A3A0-0FDB1F5CF265";
shapes = (
{
closed = 1;
nodes = (
(1136,1490,l),
(1136,318,l),
(1122,318,l),
(306,1490,l),
(132,1490,l),
(132,0,l),
(312,0,l),
(312,1170,l),
(328,1170,l),
(1138,0,l),
(1316,0,l),
(1316,1490,l)
);
}
);
width = 1448;
},
{
anchors = (
{
name = bottom;
pos = (756,0);
},
{
name = right;
pos = (1330,0);
},
{
name = top;
pos = (756,1676);
}
);
associatedMasterId = "C698F293-3EC0-4A5A-A3A0-0FDB1F5CF265";
guides = (
{
orientation = center;
angle = 90;
pos = (1116,284);
}
);
layerId = "CDCA1FA0-CAD8-4C14-B3A1-3337A4674D3F";
name = "Oct 7 18, 22:28";
shapes = (
{
closed = 1;
nodes = (
(1154,1490,l),
(1154,318,l),
(1140,318,l),
(354,1490,l),
(180,1490,l),
(180,0,l),
(360,0,l),
(360,1166,l),
(376,1166,l),
(1158,0,l),
(1332,0,l),
(1332,1490,l)
);
}
);
width = 1512;
},
{
anchors = (
{
name = bottom;
pos = (630,0);
},
{
name = right;
pos = (1218,0);
},
{
name = top;
pos = (910,1676);
}
);
guides = (
{
angle = -99.4;
pos = (708,284);
}
);
layerId = "11F4534A-B963-4AB5-820F-DAF9A20CD933";
shapes = (
{
closed = 1;
nodes = (
(1290,1490,l),
(1096,318,l),
(1080,318,l),
(462,1490,l),
(286,1490,l),
(40,0,l),
(220,0,l),
(414,1170,l),
(430,1170,l),
(1046,0,l),
(1220,0,l),
(1468,1490,l)
);
}
);
width = 1446;
},
{
anchors = (
{
name = bottom;
pos = (718,0);
},
{
name = right;
pos = (1430,0);
},
{
name = top;
pos = (718,1676);
}
);
guides = (
{
pos = (-132,1652);
},
{
orientation = center;
angle = 90;
pos = (-2860,240);
}
);
layerId = "5C20EF92-B63D-42A8-8878-93C2863E0093";
shapes = (
{
closed = 1;
nodes = (
(956,1490,l),
(956,710,l),
(944,710,l),
(416,1490,l),
(72,1490,l),
(72,0,l),
(476,0,l),
(476,782,l),
(486,782,l),
(1024,0,l),
(1360,0,l),
(1360,1490,l)
);
}
);
width = 1432;
},
{
anchors = (
{
name = bottom;
pos = (742,0);
},
{
name = bottom_dd;
pos = (1566,-408);
},
{
name = right;
pos = (1454,0);
},
{
name = top;
pos = (742,1586);
},
{
name = top0315;
pos = (1566,1600);
},
{
name = top_dd;
pos = (1566,1600);
}
);
associatedMasterId = "5C20EF92-B63D-42A8-8878-93C2863E0093";
guides = (
{
pos = (12,1652);
},
{
orientation = center;
angle = 90;
pos = (900,240);
}
);
layerId = "F81B89FA-28D8-48B6-8D66-9AD40CA032B3";
name = "Oct 6 18, 13:13";
shapes = (
{
closed = 1;
nodes = (
(980,1490,l),
(980,674,l),
(968,674,l),
(498,1490,l),
(96,1490,l),
(96,0,l),
(500,0,l),
(500,818,l),
(510,818,l),
(990,0,l),
(1384,0,l),
(1384,1490,l)
);
}
);
width = 1480;
},
{
anchors = (
{
name = bottom;
pos = (624,0);
},
{
name = right;
pos = (1338,0);
},
{
name = top;
pos = (904,1676);
}
);
guides = (
{
pos = (696,1652);
},
{
angle = -99.4;
pos = (616,240);
}
);
layerId = "D0EC06BF-13F9-4C88-A6F5-B8203AF6C77E";
shapes = (
{
closed = 1;
nodes = (
(1110,1490,l),
(982,710,l),
(970,710,l),
(570,1490,l),
(226,1490,l),
(-22,0,l),
(384,0,l),
(514,782,l),
(522,782,l),
(930,0,l),
(1268,0,l),
(1514,1490,l)
);
}
);
width = 1433;
}
);
metricLeft = H;
metricRight = H;
unicode = 78;
userData = {
"interface.width-adjustments" = (
-16
);
};
}
{
color = (219,235,247,1);
glyphname = O;
kernLeft = C;
kernRight = D;
layers = (
{
anchors = (
{
name = bottom;
pos = (766,0);
},
{
name = ogonek;
pos = (800,0);
},
{
name = tonos;
pos = (222,1490);
},
{
name = top;
pos = (766,1676);
},
{
name = tophorn;
pos = (1175,1295);
}
);
layerId = "B1F27B51-9973-4381-9301-4FE46FE1CA59";
shapes = (
{
closed = 1;
nodes = (
(1132,-20,o),
(1382,289,o),
(1382,744,cs),
(1382,1200,o),
(1132,1510,o),
(766,1510,cs),
(398,1510,o),
(148,1199,o),
(148,744,cs),
(148,291,o),
(397,-20,o),
(766,-20,cs)
);
},
{
closed = 1;
nodes = (
(423,26,o),
(194,320,o),
(194,744,cs),
(194,1175,o),
(428,1464,o),
(766,1464,cs),
(1104,1464,o),
(1336,1172,o),
(1336,744,cs),
(1336,317,o),
(1104,26,o),
(766,26,cs)
);
}
);
width = 1530;
},
{
anchors = (
{
name = bottom;
pos = (733,0);
},
{
name = ogonek;
pos = (874,-6);
},
{
name = tonos;
pos = (150,1490);
},
{
name = top;
pos = (733,1676);
},
{
name = tophorn;
pos = (1118,1186);
}
);
guides = (
{
angle = 90;
pos = (685,803);
}
);
layerId = "C698F293-3EC0-4A5A-A3A0-0FDB1F5CF265";
shapes = (
{
closed = 1;
nodes = (
(1114,-20,o),
(1390,273,o),
(1390,744,cs),
(1390,1216,o),
(1114,1510,o),
(733,1510,cs),
(352,1510,o),
(74,1216,o),
(74,744,cs),
(74,273,o),
(352,-20,o),
(733,-20,cs)
);
},
{
closed = 1;
nodes = (
(462,148,o),
(248,358,o),
(248,744,cs),
(248,1132,o),
(462,1342,o),
(733,1342,cs),
(1003,1342,o),
(1216,1132,o),
(1216,744,cs),
(1216,358,o),
(1003,148,o),
(733,148,cs)
);
}
);
width = 1464;
},
{
anchors = (
{
name = bottom;
pos = (790,0);
},
{
name = ogonek;
pos = (998,6);
},
{
name = tonos;
pos = (148,1490);
},
{
name = top;
pos = (790,1676);
},
{
name = tophorn;
pos = (1289,1056);
}
);
guides = (
{
orientation = center;
angle = 90;
pos = (-2846,940);
}
);
layerId = "5C20EF92-B63D-42A8-8878-93C2863E0093";
shapes = (
{
closed = 1;
nodes = (
(1195,-20,o),
(1514,247,o),
(1514,744,cs),
(1514,1242,o),
(1195,1510,o),
(790,1510,cs),
(383,1510,o),
(66,1242,o),
(66,744,cs),
(66,250,o),
(383,-20,o),
(790,-20,cs)
);
},
{
closed = 1;
nodes = (
(590,332,o),
(482,477,o),
(482,744,cs),
(482,1012,o),
(590,1158,o),
(790,1158,cs),
(991,1158,o),
(1098,1012,o),
(1098,744,cs),
(1098,477,o),
(991,332,o),
(790,332,cs)
);
}
);
width = 1580;
},
{
anchors = (
{
name = bottom;
pos = (673,0);
},
{
name = ogonek;
pos = (707,0);
},
{
name = tonos;
pos = (376,1490);
},
{
name = top;
pos = (951,1676);
},
{
name = tophorn;
pos = (1297,1295);
}
);
layerId = "200BE2C5-40F6-4CF4-AF4F-A33C0CC0964F";
shapes = (
{
closed = 1;
nodes = (
(1036,-20,o),
(1337,289,o),
(1413,744,cs),
(1488,1200,o),
(1289,1510,o),
(923,1510,cs),
(555,1510,o),
(254,1199,o),
(179,744,cs),
(104,291,o),
(301,-20,o),
(670,-20,cs)
);
},
{
closed = 1;
nodes = (
(336,26,o),
(155,314,o),
(224,737,cs),
(295,1169,o),
(579,1464,o),
(923,1464,cs),
(1257,1464,o),
(1438,1175,o),
(1368,752,cs),
(1296,321,o),
(1013,26,o),
(670,26,cs)
);
}
);
width = 1530;
},
{
anchors = (
{
name = bottom;
pos = (640,0);
},
{
name = ogonek;
pos = (780,-6);
},
{
name = tonos;
pos = (304,1490);
},
{
name = top;
pos = (918,1676);
},
{
name = tophorn;
pos = (1222,1186);
}
);
layerId = "11F4534A-B963-4AB5-820F-DAF9A20CD933";
shapes = (
{
closed = 1;
nodes = (
(1023,-20,o),
(1342,267,o),
(1419,733,cs),
(1498,1210,o),
(1266,1510,o),
(880,1510,cs),
(504,1510,o),
(184,1222,o),
(106,755,cs),
(28,279,o),
(261,-20,o),
(648,-20,cs)
);
},
{
closed = 1;
nodes = (
(389,148,o),
(214,352,o),
(277,733,cs),
(342,1126,o),
(597,1342,o),
(873,1342,cs),
(1138,1342,o),
(1312,1138,o),
(1248,755,cs),
(1184,364,o),
(930,148,o),
(654,148,cs)
);
}
);
width = 1464;
},
{
anchors = (
{
name = bottom;
pos = (686,0);
},
{
name = bottom_dd;
pos = (1330,-408);
},
{
name = ogonek;
pos = (830,-6);
},
{
name = tonos;
pos = (440,1490);
},
{
name = top;
pos = (966,1676);
},
{
name = top0315;
pos = (1614,1600);
},
{
name = top_dd;
pos = (1614,1600);
}
);
associatedMasterId = "11F4534A-B963-4AB5-820F-DAF9A20CD933";
guides = (
{
angle = 90;
pos = (1512,1652);
}
);
layerId = "E11F9D15-1819-45F7-A1B9-2845A462DB74";
name = "Sep 11 18, 23:22";
shapes = (
{
closed = 1;
nodes = (
(1545,1216,o),
(1318,1510,o),
(936,1510,cs),
(556,1510,o),
(230,1216,o),
(154,744,c),
(76,273,o),
(303,-20,o),
(684,-20,cs),
(1065,-20,o),
(1391,273,o),
(1470,744,c)
);
},
{
closed = 1;
nodes = (
(1231,358,o),
(983,148,o),
(712,148,cs),
(442,148,o),
(265,358,o),
(328,744,c),
(393,1132,o),
(640,1341,o),
(910,1342,cs),
(1181,1341,o),
(1359,1132,o),
(1294,744,c)
);
}
);
width = 1560;
},
{
anchors = (
{
name = bottom;
pos = (697,0);
},
{
name = ogonek;
pos = (906,6);
},
{
name = tonos;
pos = (302,1490);
},
{
name = top;
pos = (975,1676);
},
{
name = tophorn;
pos = (1371,1056);
}
);
background = {
shapes = (
{
closed = 1;
nodes = (
(1649,1228,o),
(1367,1510,o),
(952,1510,cs),
(556,1510,o),
(204,1251,o),
(126,766,cs),
(41,259,o),
(323,-20,o),
(742,-20,cs),
(1135,-20,o),
(1484,233,o),
(1566,718,cs)
);
},
{
closed = 1;
nodes = (
(1111,489,o),
(969,332,o),
(756,332,cs),
(570,332,o),
(486,460,o),
(532,718,cs),
(576,995,o),
(721,1158,o),
(936,1158,cs),
(1126,1158,o),
(1199,1021,o),
(1158,766,cs)
);
}
);
};
guides = (
{
angle = 90;
pos = (3640,2104);
}
);
layerId = "D0EC06BF-13F9-4C88-A6F5-B8203AF6C77E";
shapes = (
{
closed = 1;
nodes = (
(1109,-20,o),
(1460,234,o),
(1540,718,cs),
(1625,1229,o),
(1342,1510,o),
(927,1510,cs),
(530,1510,o),
(181,1255,o),
(101,770,cs),
(17,263,o),
(297,-20,o),
(715,-20,cs)
);
},
{
closed = 1;
nodes = (
(542,332,o),
(466,464,o),
(508,718,cs),
(555,999,o),
(699,1158,o),
(910,1158,cs),
(1100,1158,o),
(1175,1025,o),
(1133,770,cs),
(1087,490,o),
(943,332,o),
(732,332,cs)
);
}
);
width = 1580;
},
{
anchors = (
{
name = bottom;
pos = (678,0);
},
{
name = bottom_dd;
pos = (1350,-408);
},
{
name = ogonek;
pos = (878,6);
},
{
name = tonos;
pos = (366,1490);
},
{
name = top;
pos = (940,1586);
},
{
name = top0315;
pos = (1696,1600);
},
{
name = top_dd;
pos = (1696,1600);
}
);
associatedMasterId = "D0EC06BF-13F9-4C88-A6F5-B8203AF6C77E";
guides = (
{
angle = 90;
pos = (1468,2104);
}
);
layerId = "62410FF8-B362-47DD-87E9-ADD04A63F2F4";
name = "Sep 14 18, 09:39";
shapes = (
{
closed = 1;
nodes = (
(1568,1239,o),
(1312,1510,o),
(928,1510,cs),
(541,1510,o),
(195,1239,o),
(110,742,c),
(29,247,o),
(288,-20,o),
(674,-20,cs),
(1059,-20,o),
(1402,244,o),
(1484,742,c)
);
},
{
closed = 1;
nodes = (
(1030,474,o),
(913,335,o),
(734,334,cs),
(550,335,o),
(477,474,o),
(520,742,c),
(567,1012,o),
(687,1155,o),
(870,1154,cs),
(1050,1155,o),
(1120,1012,o),
(1074,742,c)
);
}
);
width = 1536;
}
);
unicode = 79;
userData = {
com.typemytype.robofont.guideline.magnetic.GU6fgH972W = 5;
"interface.width-adjustments" = (
-16
);
};
}
